<svg width="391" height="772" viewBox="0 0 391 772" fill="none" xmlns="http://www.w3.org/2000/svg">
<path d="M505 689.772H-549V690.404H505V689.772Z" fill="#EBEBEB"/>
<path d="M399.389 723.691H329.615V724.323H399.389V723.691Z" fill="#EBEBEB"/>
<path d="M149.17 729.591H130.83V730.223H149.17V729.591Z" fill="#EBEBEB"/>
<path d="M327.506 704.309H287.033V704.941H327.506V704.309Z" fill="#EBEBEB"/>
<path d="M406.556 595.808H-0.498291C-7.03309 595.808 -12.5139 590.33 -12.5139 583.799V12.0089C-12.5139 5.47772 -7.03309 0 -0.498291 0H406.556C413.091 0 418.572 5.47772 418.572 12.0089V583.799C418.572 590.541 413.302 595.808 406.556 595.808ZM-0.498291 0.632045C-6.82229 0.632045 -12.0923 5.68841 -12.0923 12.2195V584.01C-12.0923 590.33 -7.03309 595.597 -0.498291 595.597H406.556C412.88 595.597 418.15 590.541 418.15 584.01V12.0089C418.15 5.68841 413.091 0.421363 406.556 0.421363H-0.498291V0.632045Z" fill="#EBEBEB"/>
<path d="M264.899 305.067H210.723V656.695H264.899V305.067Z" fill="#F0F0F0"/>
<path d="M178.26 310.334H124.084V656.695H178.26V310.334Z" fill="#FAFAFA"/>
<path d="M91.6212 197.198H37.4456V656.484H91.6212V197.198Z" fill="#F5F5F5"/>
<path d="M351.538 149.373H297.362V654.377H351.538V149.373Z" fill="#F5F5F5"/>
<path d="M4.98242 280.628H-49.1931V656.695H4.98242V280.628Z" fill="#FAFAFA"/>
<path d="M367.98 108.712C368.191 107.448 368.402 106.184 368.402 104.92C368.402 91.8573 357.862 81.1126 344.581 81.1126C343.316 81.1126 342.052 81.3232 340.787 81.5339C336.149 73.7387 327.506 68.261 317.599 68.261C305.162 68.261 294.622 76.6882 291.46 88.0651C289.773 87.6437 288.087 87.2223 286.19 87.2223C276.493 87.2223 268.482 95.0176 268.482 104.92C268.482 106.184 268.693 107.448 268.904 108.712H367.98Z" fill="#F5F5F5"/>
<path d="M1.39876 99.6525C1.60956 98.1777 1.82032 96.4922 1.82032 95.0175C1.82032 78.3736 -11.6709 64.89 -28.3241 64.89C-30.0105 64.89 -31.6969 65.1007 -33.1725 65.3113C-39.0749 55.4093 -50.0365 48.6675 -62.6845 48.6675C-78.4945 48.6675 -91.7749 59.2016 -95.7801 73.7386C-97.8881 73.1066 -100.207 72.6852 -102.315 72.6852C-114.541 72.6852 -124.66 82.5872 -124.66 95.0175C-124.66 96.7029 -124.449 98.1777 -124.238 99.6525H1.39876Z" fill="#F5F5F5"/>
<path d="M-26.0052 785C199.736 785 382.736 774.341 382.736 761.193C382.736 748.044 199.736 737.386 -26.0052 737.386C-251.747 737.386 -434.746 748.044 -434.746 761.193C-434.746 774.341 -251.747 785 -26.0052 785Z" fill="#F5F5F5"/>
<path d="M-325.973 398.399L-328.503 394.607L-135.621 254.504L-6.40057 350.785L97.7346 277.046L208.405 345.518L352.803 164.332L356.175 167.281L209.248 351.417L97.7346 282.314L-6.40057 356.473L-7.66541 355.42L-135.621 260.192L-325.973 398.399Z" fill="#407BFF"/>
<g opacity="0.7">
<path opacity="0.7" d="M-325.973 398.399L-328.503 394.607L-135.621 254.504L-6.40057 350.785L97.7346 277.046L208.405 345.518L352.803 164.332L356.175 167.281L209.248 351.417L97.7346 282.314L-6.40057 356.473L-7.66541 355.42L-135.621 260.192L-325.973 398.399Z" fill="white"/>
</g>
<path d="M104.685 282.479C105.264 278.683 102.653 275.137 98.8552 274.559C95.0571 273.981 91.5094 276.59 90.9312 280.386C90.353 284.182 92.9633 287.728 96.7614 288.306C100.559 288.884 104.107 286.275 104.685 282.479Z" fill="#407BFF"/>
<path d="M4.15691 355.195C5.0505 349.328 1.0165 343.848 -4.8533 342.955C-10.7231 342.062 -16.2059 346.094 -17.0995 351.961C-17.9931 357.827 -13.9591 363.307 -8.08929 364.2C-2.21948 365.093 3.26332 361.061 4.15691 355.195Z" fill="#407BFF"/>
<path d="M216.677 349.779C217.343 345.408 214.337 341.325 209.964 340.66C205.59 339.994 201.505 342.998 200.839 347.37C200.173 351.741 203.179 355.824 207.553 356.489C211.926 357.155 216.011 354.15 216.677 349.779Z" fill="#407BFF"/>
<path d="M364.607 150.427L322.447 178.026L346.9 197.409L364.607 150.427Z" fill="#407BFF"/>
<path d="M239.813 761.614V758.244V746.445V738.018C238.97 737.175 238.338 736.543 237.705 735.911C237.073 735.279 236.44 734.647 235.386 733.594H82.3456C81.5024 734.436 80.87 735.069 80.2376 735.49C79.3944 736.333 78.762 736.965 77.708 737.807V746.235V758.033V761.193C78.762 762.246 79.3944 762.879 80.2376 763.511L82.3456 765.617H235.386L237.494 763.511C238.127 763.3 238.97 762.668 239.813 761.614Z" fill="#407BFF"/>
<path d="M253.304 729.59V726.22V714.421V705.994C252.461 705.151 251.829 704.519 250.986 703.887C250.353 703.255 249.721 702.623 248.667 701.57H95.6261C94.7829 702.413 94.1505 703.045 93.5181 703.466C92.6749 704.309 92.0425 704.941 90.9885 705.994V714.421V726.22V729.38C92.0425 730.433 92.6749 731.065 93.5181 731.697L95.6261 733.804H248.667L250.775 731.697C251.829 731.065 252.461 730.433 253.304 729.59Z" fill="#407BFF"/>
<path d="M239.813 697.356V693.985V682.187V673.76C238.97 672.917 238.338 672.285 237.705 671.653C237.073 671.021 236.44 670.389 235.386 669.335H82.3456C81.5024 670.178 80.87 670.81 80.2376 671.232C79.3944 672.074 78.762 672.706 77.708 673.549V681.976V693.775V696.935C78.762 697.988 79.3944 698.62 80.2376 699.252L82.3456 701.359H235.386L237.494 699.252C238.127 699.042 238.97 698.199 239.813 697.356Z" fill="#407BFF"/>
<path d="M227.165 665.122V661.751V649.953V641.526C226.322 640.683 225.69 640.051 224.847 639.419C224.214 638.787 223.582 638.155 222.528 637.102H69.4869C68.6437 637.944 68.0113 638.576 67.3789 638.998C66.5357 639.84 65.9034 640.472 64.8494 641.315V649.742V661.541V664.701C65.9034 665.754 66.5357 666.386 67.3789 667.018L69.4869 669.125H222.528L224.636 667.018C225.69 666.808 226.322 666.176 227.165 665.122Z" fill="#407BFF"/>
<path d="M258.785 633.098V629.727V617.929V609.502C257.942 608.659 257.31 608.027 256.677 607.395C256.045 606.763 255.412 606.131 254.358 605.078H101.318C100.474 605.92 99.842 606.552 99.2096 606.974C98.3664 607.816 97.7339 608.449 96.6799 609.291V617.719V629.517V632.677C97.7339 633.73 98.3664 634.362 99.2096 634.994L101.318 637.101H254.358L256.466 634.994C257.099 634.573 257.731 633.941 258.785 633.098Z" fill="#407BFF"/>
<path d="M233.489 600.864V597.493V585.695V577.268C232.646 576.425 232.014 575.793 231.381 575.161C230.749 574.529 230.116 573.897 229.062 572.843H76.0217C75.1785 573.686 74.5461 574.318 73.9137 574.739C73.0705 575.582 72.438 576.214 71.384 577.057V585.484V597.282V600.443C72.438 601.496 73.0705 602.128 73.9137 602.76L76.0217 604.867H229.062L231.17 602.76C232.014 602.549 232.646 601.707 233.489 600.864Z" fill="#407BFF"/>
<path d="M247.824 568.84V565.47V553.671V545.244C246.981 544.401 246.348 543.769 245.505 543.137C244.873 542.505 244.24 541.873 243.186 540.82H90.1454C89.3022 541.663 88.6698 542.295 88.0374 542.716C87.1942 543.559 86.5618 544.191 85.5078 545.244V553.671V565.47V568.63C86.5618 569.683 87.1942 570.315 88.0374 570.947L90.1454 573.054H243.186L245.294 570.947C246.348 570.315 246.981 569.683 247.824 568.84Z" fill="#407BFF"/>
<path d="M25.4297 761.614V758.244V746.445V738.018C24.5865 737.175 23.9541 736.543 23.3217 735.911C22.6893 735.279 22.0569 734.647 21.0029 733.594H-132.038C-132.881 734.436 -133.514 735.069 -134.146 735.49C-134.989 736.333 -135.622 736.965 -136.676 737.807V746.235V758.033V761.193C-135.622 762.246 -134.989 762.879 -134.146 763.511L-132.038 765.617H21.0029L23.1109 763.511C23.9541 763.3 24.5865 762.668 25.4297 761.614Z" fill="#407BFF"/>
<path d="M38.9211 729.59V726.22V714.421V705.994C38.0779 705.151 37.4454 704.519 36.6022 703.887C35.9698 703.255 35.3375 702.623 34.2835 701.57H-118.757C-119.601 702.413 -120.233 703.045 -120.865 703.466C-121.709 704.309 -122.341 704.941 -123.395 705.994V714.421V726.22V729.38C-122.341 730.433 -121.709 731.065 -120.865 731.697L-118.757 733.804H34.2835L36.3915 731.697C37.4455 731.065 38.0779 730.433 38.9211 729.59Z" fill="#407BFF"/>
<path d="M25.4297 697.356V693.985V682.187V673.76C24.5865 672.917 23.9541 672.285 23.3217 671.653C22.6893 671.021 22.0569 670.389 21.0029 669.335H-132.038C-132.881 670.178 -133.514 670.81 -134.146 671.232C-134.989 672.074 -135.622 672.706 -136.676 673.549V681.976V693.775V696.935C-135.622 697.988 -134.989 698.62 -134.146 699.252L-132.038 701.359H21.0029L23.1109 699.252C23.9541 699.042 24.5865 698.199 25.4297 697.356Z" fill="#407BFF"/>
<path d="M12.9925 665.122V661.751V649.953V641.526C12.1493 640.683 11.5168 640.051 10.6736 639.419C10.0412 638.787 9.40884 638.155 8.35484 637.102H-144.686C-145.529 637.944 -146.161 638.576 -146.794 638.998C-147.637 639.84 -148.269 640.472 -149.323 641.315V649.742V661.541V664.701C-148.269 665.754 -147.637 666.386 -146.794 667.018L-144.686 669.125H8.35484L10.4628 667.018C11.306 666.808 11.9385 666.176 12.9925 665.122Z" fill="#407BFF"/>
<path d="M44.4017 633.098V629.727V617.929V609.502C43.5585 608.659 42.9261 608.027 42.2937 607.395C41.6613 606.763 41.0288 606.131 39.9748 605.078H-113.066C-113.909 605.92 -114.542 606.552 -115.174 606.974C-116.017 607.816 -116.65 608.449 -117.704 609.291V617.719V629.517V632.677C-116.65 633.73 -116.017 634.362 -115.174 634.994L-113.066 637.101H39.9748L42.0828 634.994C42.926 634.573 43.5585 633.941 44.4017 633.098Z" fill="#407BFF"/>
<path d="M83.3996 600.864V597.493V585.695V577.268C82.5564 576.425 81.924 575.793 81.2916 575.161C80.6592 574.529 80.0268 573.897 78.9728 572.843H-74.068C-74.9112 573.686 -75.5436 574.318 -76.176 574.739C-77.0192 575.582 -77.6516 576.214 -78.7056 577.057V585.484V597.282V600.443C-77.6516 601.496 -77.0192 602.128 -76.176 602.76L-74.068 604.867H78.9728L81.0807 602.76C81.7132 602.549 82.3456 601.707 83.3996 600.864Z" fill="#407BFF"/>
<path d="M97.7339 568.84V565.47V553.671V545.244C96.8907 544.401 96.2584 543.769 95.4152 543.137C94.7828 542.505 94.1504 541.873 93.0964 540.82H-59.9444C-60.7876 541.663 -61.42 542.295 -62.0524 542.716C-62.8956 543.559 -63.528 544.191 -64.582 545.244V553.671V565.47V568.63C-63.528 569.683 -62.8956 570.315 -62.0524 570.947L-59.9444 573.054H93.0964L95.2044 570.947C96.0476 570.315 96.8907 569.683 97.7339 568.84Z" fill="#407BFF"/>
<g opacity="0.25">
<path opacity="0.25" d="M25.4297 761.614V758.244V746.445V738.018C24.5865 737.175 23.9541 736.543 23.3217 735.911C22.6893 735.279 22.0569 734.647 21.0029 733.594H-132.038C-132.881 734.436 -133.514 735.069 -134.146 735.49C-134.989 736.333 -135.622 736.965 -136.676 737.807V746.235V758.033V761.193C-135.622 762.246 -134.989 762.879 -134.146 763.511L-132.038 765.617H21.0029L23.1109 763.511C23.9541 763.3 24.5865 762.668 25.4297 761.614Z" fill="black"/>
</g>
<g opacity="0.25">
<path opacity="0.25" d="M38.9211 729.59V726.22V714.421V705.994C38.0779 705.151 37.4454 704.519 36.6022 703.887C35.9698 703.255 35.3375 702.623 34.2835 701.57H-118.757C-119.601 702.413 -120.233 703.045 -120.865 703.466C-121.709 704.309 -122.341 704.941 -123.395 705.994V714.421V726.22V729.38C-122.341 730.433 -121.709 731.065 -120.865 731.697L-118.757 733.804H34.2835L36.3915 731.697C37.4455 731.065 38.0779 730.433 38.9211 729.59Z" fill="black"/>
</g>
<g opacity="0.1">
<path opacity="0.1" d="M25.4297 697.356V693.985V682.187V673.76C24.5865 672.917 23.9541 672.285 23.3217 671.653C22.6893 671.021 22.0569 670.389 21.0029 669.335H-132.038C-132.881 670.178 -133.514 670.81 -134.146 671.232C-134.989 672.074 -135.622 672.706 -136.676 673.549V681.976V693.775V696.935C-135.622 697.988 -134.989 698.62 -134.146 699.252L-132.038 701.359H21.0029L23.1109 699.252C23.9541 699.042 24.5865 698.199 25.4297 697.356Z" fill="black"/>
</g>
<g opacity="0.25">
<path opacity="0.25" d="M12.9925 665.122V661.751V649.953V641.526C12.1493 640.683 11.5168 640.051 10.6736 639.419C10.0412 638.787 9.40884 638.155 8.35484 637.102H-144.686C-145.529 637.944 -146.161 638.576 -146.794 638.998C-147.637 639.84 -148.269 640.472 -149.323 641.315V649.742V661.541V664.701C-148.269 665.754 -147.637 666.386 -146.794 667.018L-144.686 669.125H8.35484L10.4628 667.018C11.306 666.808 11.9385 666.176 12.9925 665.122Z" fill="black"/>
</g>
<g opacity="0.1">
<path opacity="0.1" d="M44.4017 633.098V629.727V617.929V609.502C43.5585 608.659 42.9261 608.027 42.2937 607.395C41.6613 606.763 41.0288 606.131 39.9748 605.078H-113.066C-113.909 605.92 -114.542 606.552 -115.174 606.974C-116.017 607.816 -116.65 608.449 -117.704 609.291V617.719V629.517V632.677C-116.65 633.73 -116.017 634.362 -115.174 634.994L-113.066 637.101H39.9748L42.0828 634.994C42.926 634.573 43.5585 633.941 44.4017 633.098Z" fill="black"/>
</g>
<g opacity="0.25">
<path opacity="0.25" d="M83.3996 600.864V597.493V585.695V577.268C82.5564 576.425 81.924 575.793 81.2916 575.161C80.6592 574.529 80.0268 573.897 78.9728 572.843H-74.068C-74.9112 573.686 -75.5436 574.318 -76.176 574.739C-77.0192 575.582 -77.6516 576.214 -78.7056 577.057V585.484V597.282V600.443C-77.6516 601.496 -77.0192 602.128 -76.176 602.76L-74.068 604.867H78.9728L81.0807 602.76C81.7132 602.549 82.3456 601.707 83.3996 600.864Z" fill="black"/>
</g>
<g opacity="0.1">
<path opacity="0.1" d="M97.7339 568.84V565.47V553.671V545.244C96.8907 544.401 96.2584 543.769 95.4152 543.137C94.7828 542.505 94.1504 541.873 93.0964 540.82H-59.9444C-60.7876 541.663 -61.42 542.295 -62.0524 542.716C-62.8956 543.559 -63.528 544.191 -64.582 545.244V553.671V565.47V568.63C-63.528 569.683 -62.8956 570.315 -62.0524 570.947L-59.9444 573.054H93.0964L95.2044 570.947C96.0476 570.315 96.8907 569.683 97.7339 568.84Z" fill="black"/>
</g>
<g opacity="0.2">
<path opacity="0.2" d="M239.813 761.614V758.244V746.445V738.018C238.97 737.175 238.338 736.543 237.705 735.911C237.073 735.279 236.44 734.647 235.386 733.594H82.3456C81.5024 734.436 80.87 735.069 80.2376 735.49C79.3944 736.333 78.762 736.965 77.708 737.807V746.235V758.033V761.193C78.762 762.246 79.3944 762.879 80.2376 763.511L82.3456 765.617H235.386L237.494 763.511C238.127 763.3 238.97 762.668 239.813 761.614Z" fill="black"/>
</g>
<g opacity="0.2">
<path opacity="0.2" d="M253.304 729.59V726.22V714.421V705.994C252.461 705.151 251.829 704.519 250.986 703.887C250.353 703.255 249.721 702.623 248.667 701.57H95.6261C94.7829 702.413 94.1505 703.045 93.5181 703.466C92.6749 704.309 92.0425 704.941 90.9885 705.994V714.421V726.22V729.38C92.0425 730.433 92.6749 731.065 93.5181 731.697L95.6261 733.804H248.667L250.775 731.697C251.829 731.065 252.461 730.433 253.304 729.59Z" fill="black"/>
</g>
<g opacity="0.3">
<path opacity="0.3" d="M239.813 697.356V693.985V682.187V673.76C238.97 672.917 238.338 672.285 237.705 671.653C237.073 671.021 236.44 670.389 235.386 669.335H82.3456C81.5024 670.178 80.87 670.81 80.2376 671.232C79.3944 672.074 78.762 672.706 77.708 673.549V681.976V693.775V696.935C78.762 697.988 79.3944 698.62 80.2376 699.252L82.3456 701.359H235.386L237.494 699.252C238.127 699.042 238.97 698.199 239.813 697.356Z" fill="black"/>
</g>
<g opacity="0.2">
<path opacity="0.2" d="M227.165 665.122V661.751V649.953V641.526C226.322 640.683 225.69 640.051 224.847 639.419C224.214 638.787 223.582 638.155 222.528 637.102H69.4869C68.6437 637.944 68.0113 638.576 67.3789 638.998C66.5357 639.84 65.9034 640.472 64.8494 641.315V649.742V661.541V664.701C65.9034 665.754 66.5357 666.386 67.3789 667.018L69.4869 669.125H222.528L224.636 667.018C225.69 666.808 226.322 666.176 227.165 665.122Z" fill="black"/>
</g>
<g opacity="0.3">
<path opacity="0.3" d="M258.785 633.098V629.727V617.929V609.502C257.942 608.659 257.31 608.027 256.677 607.395C256.045 606.763 255.412 606.131 254.358 605.078H101.318C100.474 605.92 99.842 606.552 99.2096 606.974C98.3664 607.816 97.7339 608.449 96.6799 609.291V617.719V629.517V632.677C97.7339 633.73 98.3664 634.362 99.2096 634.994L101.318 637.101H254.358L256.466 634.994C257.099 634.573 257.731 633.941 258.785 633.098Z" fill="black"/>
</g>
<g opacity="0.2">
<path opacity="0.2" d="M233.489 600.864V597.493V585.695V577.268C232.646 576.425 232.014 575.793 231.381 575.161C230.749 574.529 230.116 573.897 229.062 572.843H76.0217C75.1785 573.686 74.5461 574.318 73.9137 574.739C73.0705 575.582 72.438 576.214 71.384 577.057V585.484V597.282V600.443C72.438 601.496 73.0705 602.128 73.9137 602.76L76.0217 604.867H229.062L231.17 602.76C232.014 602.549 232.646 601.707 233.489 600.864Z" fill="black"/>
</g>
<g opacity="0.3">
<path opacity="0.3" d="M247.824 568.84V565.47V553.671V545.244C246.98 544.401 246.348 543.769 245.505 543.137C244.872 542.505 244.24 541.873 243.186 540.82H90.1452C89.302 541.663 88.6696 542.295 88.0372 542.716C87.194 543.559 86.5616 544.191 85.5076 545.244V553.671V565.47V568.63C86.5616 569.683 87.194 570.315 88.0372 570.947L90.1452 573.054H243.186L245.294 570.947C246.348 570.315 246.98 569.683 247.824 568.84Z" fill="black"/>
</g>
<path d="M126.825 480.986V504.372L122.398 508.796H-30.6428L-35.0696 504.372V480.986C-33.3832 479.301 -32.3292 478.247 -30.6428 476.562H122.398C124.084 478.247 124.928 479.301 126.825 480.986Z" fill="#407BFF"/>
<g opacity="0.3">
<path opacity="0.3" d="M126.825 480.986V504.372L122.398 508.796H-30.6428L-35.0696 504.372V480.986C-33.3832 479.301 -32.3292 478.247 -30.6428 476.562H122.398C124.084 478.247 124.928 479.301 126.825 480.986Z" fill="white"/>
</g>
<g opacity="0.3">
<path opacity="0.3" d="M126.825 489.414H-35.0696V501.212H126.825V489.414Z" fill="white"/>
</g>
<g opacity="0.1">
<path opacity="0.1" d="M-30.6428 508.796H122.398C124.084 507.111 125.138 506.058 126.825 504.372H-35.0696C-33.3832 506.058 -32.54 507.111 -30.6428 508.796Z" fill="black"/>
</g>
<g opacity="0.3">
<path opacity="0.3" d="M122.187 476.562H-30.8537C-32.5401 478.247 -33.5941 479.301 -35.2805 480.986H126.614C124.927 479.301 124.084 478.247 122.187 476.562Z" fill="white"/>
</g>
<g opacity="0.1">
<path opacity="0.1" d="M68.2221 476.562H37.2346V508.796H68.2221V476.562Z" fill="white"/>
</g>
<g opacity="0.1">
<path opacity="0.1" d="M97.5236 476.562H81.9243V508.796H97.5236V476.562Z" fill="white"/>
</g>
<path d="M154.65 513.221V536.606L150.224 541.031H-2.81733L-7.24414 536.606V513.221C-5.55774 511.535 -4.50373 510.482 -2.81733 508.796H150.224C151.91 510.482 152.964 511.535 154.65 513.221Z" fill="#407BFF"/>
<g opacity="0.3">
<path opacity="0.3" d="M154.65 513.221V536.606L150.224 541.031H-2.81733L-7.24414 536.606V513.221C-5.55774 511.535 -4.50373 510.482 -2.81733 508.796H150.224C151.91 510.482 152.964 511.535 154.65 513.221Z" fill="white"/>
</g>
<g opacity="0.3">
<path opacity="0.3" d="M154.65 521.648H-7.24414V533.446H154.65V521.648Z" fill="white"/>
</g>
<g opacity="0.1">
<path opacity="0.1" d="M-2.81733 541.031H150.224C151.91 539.345 152.964 538.292 154.65 536.606H-7.24414C-5.55774 538.292 -4.50373 539.345 -2.81733 541.031Z" fill="black"/>
</g>
<g opacity="0.3">
<path opacity="0.3" d="M150.224 508.796H-2.81733C-4.50373 510.482 -5.55774 511.535 -7.24414 513.221H154.65C152.964 511.535 151.91 510.482 150.224 508.796Z" fill="white"/>
</g>
<g opacity="0.1">
<path opacity="0.1" d="M96.0479 508.796H65.0603V541.031H96.0479V508.796Z" fill="white"/>
</g>
<g opacity="0.1">
<path opacity="0.1" d="M125.349 508.796H109.75V541.031H125.349V508.796Z" fill="white"/>
</g>
<path d="M143.9 545.455V568.84L139.473 573.265H-13.5681L-17.9949 568.84V545.455C-16.3085 543.769 -15.2545 542.716 -13.5681 541.03H139.473C141.159 542.716 142.213 543.558 143.9 545.455Z" fill="#407BFF"/>
<g opacity="0.3">
<path opacity="0.3" d="M143.9 545.455V568.84L139.473 573.265H-13.5681L-17.9949 568.84V545.455C-16.3085 543.769 -15.2545 542.716 -13.5681 541.03H139.473C141.159 542.716 142.213 543.558 143.9 545.455Z" fill="white"/>
</g>
<g opacity="0.3">
<path opacity="0.3" d="M143.9 553.671H-17.9949V565.47H143.9V553.671Z" fill="white"/>
</g>
<g opacity="0.1">
<path opacity="0.1" d="M-13.5681 573.054H139.473C141.159 571.369 142.213 570.315 143.9 568.63H-17.9949C-16.3085 570.526 -15.2545 571.369 -13.5681 573.054Z" fill="black"/>
</g>
<g opacity="0.3">
<path opacity="0.3" d="M139.473 540.82H-13.5681C-15.2545 542.505 -16.3085 543.559 -17.9949 545.244H143.9C142.213 543.559 141.159 542.716 139.473 540.82Z" fill="white"/>
</g>
<g opacity="0.1">
<path opacity="0.1" d="M85.2971 540.82H54.3096V573.054H85.2971V540.82Z" fill="white"/>
</g>
<g opacity="0.1">
<path opacity="0.1" d="M114.598 540.82H98.999V573.054H114.598V540.82Z" fill="white"/>
</g>
<path d="M129.354 577.479V600.864L124.928 605.289H-28.1132L-32.54 600.864V577.479C-30.8536 575.793 -29.7996 574.74 -28.1132 573.054H124.928C126.825 574.74 127.668 575.793 129.354 577.479Z" fill="#407BFF"/>
<g opacity="0.3">
<path opacity="0.3" d="M129.354 577.479V600.864L124.928 605.289H-28.1132L-32.54 600.864V577.479C-30.8536 575.793 -29.7996 574.74 -28.1132 573.054H124.928C126.825 574.74 127.668 575.793 129.354 577.479Z" fill="white"/>
</g>
<g opacity="0.3">
<path opacity="0.3" d="M129.354 585.906H-32.54V597.704H129.354V585.906Z" fill="white"/>
</g>
<g opacity="0.1">
<path opacity="0.1" d="M-27.9024 605.289H125.138C126.825 603.603 127.879 602.55 129.565 600.864H-32.54C-30.6428 602.55 -29.7996 603.603 -27.9024 605.289Z" fill="black"/>
</g>
<g opacity="0.3">
<path opacity="0.3" d="M124.928 573.054H-28.1132C-29.7996 574.74 -30.8536 575.793 -32.54 577.479H129.354C127.668 575.793 126.825 574.74 124.928 573.054Z" fill="white"/>
</g>
<g opacity="0.1">
<path opacity="0.1" d="M70.9628 573.054H39.9751V605.289H70.9628V573.054Z" fill="white"/>
</g>
<g opacity="0.1">
<path opacity="0.1" d="M100.264 573.054H84.6648V605.289H100.264V573.054Z" fill="white"/>
</g>
<path d="M154.65 609.713V633.099L150.224 637.523H-2.81733L-7.24414 633.099V609.713C-5.55774 608.027 -4.50373 606.974 -2.81733 605.289H150.224C151.91 606.974 152.964 607.817 154.65 609.713Z" fill="#407BFF"/>
<g opacity="0.3">
<path opacity="0.3" d="M154.65 609.713V633.099L150.224 637.523H-2.81733L-7.24414 633.099V609.713C-5.55774 608.027 -4.50373 606.974 -2.81733 605.289H150.224C151.91 606.974 152.964 607.817 154.65 609.713Z" fill="white"/>
</g>
<g opacity="0.3">
<path opacity="0.3" d="M154.65 618.14H-7.24414V629.938H154.65V618.14Z" fill="white"/>
</g>
<g opacity="0.1">
<path opacity="0.1" d="M-2.81733 637.523H150.224C151.91 635.838 152.964 634.784 154.65 633.099H-7.24414C-5.55774 634.784 -4.50373 635.838 -2.81733 637.523Z" fill="black"/>
</g>
<g opacity="0.3">
<path opacity="0.3" d="M150.224 605.289H-2.81733C-4.50373 606.974 -5.55774 608.027 -7.24414 609.713H154.65C152.964 607.817 151.91 606.974 150.224 605.289Z" fill="white"/>
</g>
<g opacity="0.1">
<path opacity="0.1" d="M96.0479 605.289H65.0603V637.523H96.0479V605.289Z" fill="white"/>
</g>
<g opacity="0.1">
<path opacity="0.1" d="M125.349 605.289H109.75V637.523H125.349V605.289Z" fill="white"/>
</g>
<path d="M123.241 641.736V665.122L118.815 669.546H-34.2263L-38.6531 665.122V641.736C-36.9667 640.051 -35.9127 638.997 -34.2263 637.312H118.815C120.501 639.208 121.344 640.051 123.241 641.736Z" fill="#407BFF"/>
<g opacity="0.3">
<path opacity="0.3" d="M123.241 641.736V665.122L118.815 669.546H-34.2263L-38.6531 665.122V641.736C-36.9667 640.051 -35.9127 638.997 -34.2263 637.312H118.815C120.501 639.208 121.344 640.051 123.241 641.736Z" fill="white"/>
</g>
<g opacity="0.3">
<path opacity="0.3" d="M123.03 650.164H-38.864V661.962H123.03V650.164Z" fill="white"/>
</g>
<g opacity="0.1">
<path opacity="0.1" d="M-34.2264 669.546H118.814C120.501 667.861 121.555 666.807 123.241 665.122H-38.864C-36.9668 667.018 -36.1236 667.861 -34.2264 669.546Z" fill="black"/>
</g>
<g opacity="0.3">
<path opacity="0.3" d="M118.604 637.312H-34.4372C-36.1236 638.997 -37.1776 640.051 -38.864 641.736H123.03C121.344 640.051 120.501 638.997 118.604 637.312Z" fill="white"/>
</g>
<g opacity="0.1">
<path opacity="0.1" d="M64.6387 637.312H33.6511V669.546H64.6387V637.312Z" fill="white"/>
</g>
<g opacity="0.1">
<path opacity="0.1" d="M93.9401 637.312H78.3408V669.546H93.9401V637.312Z" fill="white"/>
</g>
<path d="M135.678 673.971V697.356L131.252 701.781H-21.7893L-26.2161 697.356V673.971C-24.5297 672.285 -23.4757 671.232 -21.7893 669.546H131.252C133.149 671.232 133.992 672.285 135.678 673.971Z" fill="#407BFF"/>
<g opacity="0.3">
<path opacity="0.3" d="M135.678 673.971V697.356L131.252 701.781H-21.7893L-26.2161 697.356V673.971C-24.5297 672.285 -23.4757 671.232 -21.7893 669.546H131.252C133.149 671.232 133.992 672.285 135.678 673.971Z" fill="white"/>
</g>
<g opacity="0.3">
<path opacity="0.3" d="M135.678 682.398H-26.2161V694.196H135.678V682.398Z" fill="white"/>
</g>
<g opacity="0.1">
<path opacity="0.1" d="M-21.7893 701.781H131.252C132.938 700.095 133.992 699.042 135.678 697.356H-26.2161C-24.5297 699.042 -23.4757 700.095 -21.7893 701.781Z" fill="black"/>
</g>
<g opacity="0.3">
<path opacity="0.3" d="M131.252 669.546H-21.7893C-23.4757 671.232 -24.5297 672.285 -26.2161 673.971H135.678C133.992 672.285 132.938 671.232 131.252 669.546Z" fill="white"/>
</g>
<g opacity="0.1">
<path opacity="0.1" d="M77.2867 669.546H46.2991V701.781H77.2867V669.546Z" fill="white"/>
</g>
<g opacity="0.1">
<path opacity="0.1" d="M106.588 669.546H90.9888V701.781H106.588V669.546Z" fill="white"/>
</g>
<path d="M171.936 706.205V729.591L167.509 734.015H14.4683L10.0415 729.591V706.205C11.7279 704.52 12.7819 703.466 14.4683 701.781H167.509C169.196 703.466 170.25 704.309 171.936 706.205Z" fill="#407BFF"/>
<g opacity="0.3">
<path opacity="0.3" d="M171.936 706.205V729.591L167.509 734.015H14.4683L10.0415 729.591V706.205C11.7279 704.52 12.7819 703.466 14.4683 701.781H167.509C169.196 703.466 170.25 704.309 171.936 706.205Z" fill="white"/>
</g>
<g opacity="0.3">
<path opacity="0.3" d="M171.936 714.632H10.0415V726.43H171.936V714.632Z" fill="white"/>
</g>
<g opacity="0.1">
<path opacity="0.1" d="M14.4683 734.015H167.509C169.196 732.33 170.25 731.276 171.936 729.591H10.0415C11.7279 731.276 12.7819 732.119 14.4683 734.015Z" fill="black"/>
</g>
<g opacity="0.3">
<path opacity="0.3" d="M167.509 701.781H14.4683C12.7819 703.466 11.7279 704.52 10.0415 706.205H171.936C170.25 704.309 169.196 703.466 167.509 701.781Z" fill="white"/>
</g>
<g opacity="0.1">
<path opacity="0.1" d="M113.334 701.781H82.3459V734.015H113.334V701.781Z" fill="white"/>
</g>
<g opacity="0.1">
<path opacity="0.1" d="M142.635 701.781H127.036V734.015H142.635V701.781Z" fill="white"/>
</g>
<path d="M135.678 738.229V761.614L131.252 766.039H-21.7893L-26.2161 761.614V738.229C-24.5297 736.543 -23.4757 735.49 -21.7893 733.804H131.252C133.149 735.49 133.992 736.543 135.678 738.229Z" fill="#407BFF"/>
<g opacity="0.3">
<path opacity="0.3" d="M135.678 738.229V761.614L131.252 766.039H-21.7893L-26.2161 761.614V738.229C-24.5297 736.543 -23.4757 735.49 -21.7893 733.804H131.252C133.149 735.49 133.992 736.543 135.678 738.229Z" fill="white"/>
</g>
<g opacity="0.3">
<path opacity="0.3" d="M135.678 746.656H-26.2161V758.454H135.678V746.656Z" fill="white"/>
</g>
<g opacity="0.1">
<path opacity="0.1" d="M-21.7893 766.039H131.252C132.938 764.353 133.992 763.3 135.678 761.614H-26.2161C-24.5297 763.3 -23.4757 764.353 -21.7893 766.039Z" fill="black"/>
</g>
<g opacity="0.3">
<path opacity="0.3" d="M131.252 733.804H-21.7893C-23.4757 735.49 -24.5297 736.543 -26.2161 738.229H135.678C133.992 736.543 132.938 735.49 131.252 733.804Z" fill="white"/>
</g>
<g opacity="0.1">
<path opacity="0.1" d="M77.2867 733.804H46.2991V766.039H77.2867V733.804Z" fill="white"/>
</g>
<g opacity="0.1">
<path opacity="0.1" d="M106.588 733.804H90.9888V766.039H106.588V733.804Z" fill="white"/>
</g>
<path d="M341.419 577.479V600.864L336.992 605.289H183.951L179.525 600.864V577.479C181.211 575.793 182.265 574.74 183.951 573.054H336.992C338.679 574.74 339.733 575.793 341.419 577.479Z" fill="#407BFF"/>
<g opacity="0.3">
<path opacity="0.3" d="M341.419 577.479V600.864L336.992 605.289H183.951L179.525 600.864V577.479C181.211 575.793 182.265 574.74 183.951 573.054H336.992C338.679 574.74 339.733 575.793 341.419 577.479Z" fill="white"/>
</g>
<g opacity="0.3">
<path opacity="0.3" d="M341.419 585.906H179.525V597.704H341.419V585.906Z" fill="white"/>
</g>
<g opacity="0.1">
<path opacity="0.1" d="M183.951 605.289H336.992C338.679 603.603 339.733 602.55 341.419 600.864H179.525C181.211 602.55 182.265 603.603 183.951 605.289Z" fill="black"/>
</g>
<g opacity="0.3">
<path opacity="0.3" d="M336.992 573.054H183.951C182.265 574.74 181.211 575.793 179.525 577.479H341.419C339.733 575.793 338.679 574.74 336.992 573.054Z" fill="white"/>
</g>
<g opacity="0.1">
<path opacity="0.1" d="M282.817 573.054H251.829V605.289H282.817V573.054Z" fill="white"/>
</g>
<g opacity="0.1">
<path opacity="0.1" d="M312.329 573.054H296.729V605.289H312.329V573.054Z" fill="white"/>
</g>
<path d="M366.715 609.713V633.099L362.288 637.523H209.247L204.821 633.099V609.713C206.507 608.027 207.561 606.974 209.247 605.289H362.288C363.975 606.974 365.029 607.817 366.715 609.713Z" fill="#407BFF"/>
<g opacity="0.3">
<path opacity="0.3" d="M366.715 609.713V633.099L362.288 637.523H209.247L204.821 633.099V609.713C206.507 608.027 207.561 606.974 209.247 605.289H362.288C363.975 606.974 365.029 607.817 366.715 609.713Z" fill="white"/>
</g>
<g opacity="0.3">
<path opacity="0.3" d="M366.715 618.14H204.821V629.938H366.715V618.14Z" fill="white"/>
</g>
<g opacity="0.1">
<path opacity="0.1" d="M209.247 637.523H362.288C363.975 635.838 365.029 634.784 366.715 633.099H204.821C206.507 634.784 207.35 635.838 209.247 637.523Z" fill="black"/>
</g>
<g opacity="0.3">
<path opacity="0.3" d="M362.288 605.289H209.247C207.561 606.974 206.507 608.027 204.821 609.713H366.715C364.818 607.817 363.975 606.974 362.288 605.289Z" fill="white"/>
</g>
<g opacity="0.1">
<path opacity="0.1" d="M308.112 605.289H277.125V637.523H308.112V605.289Z" fill="white"/>
</g>
<g opacity="0.1">
<path opacity="0.1" d="M337.414 605.289H321.814V637.523H337.414V605.289Z" fill="white"/>
</g>
<path d="M335.095 641.736V665.122L330.668 669.546H177.627L173.2 665.122V641.736C174.887 640.051 175.941 638.997 177.627 637.312H330.668C332.354 639.208 333.408 640.051 335.095 641.736Z" fill="#407BFF"/>
<g opacity="0.3">
<path opacity="0.3" d="M335.095 641.736V665.122L330.668 669.546H177.627L173.2 665.122V641.736C174.887 640.051 175.941 638.997 177.627 637.312H330.668C332.354 639.208 333.408 640.051 335.095 641.736Z" fill="white"/>
</g>
<g opacity="0.3">
<path opacity="0.3" d="M335.095 650.164H173.2V661.962H335.095V650.164Z" fill="white"/>
</g>
<g opacity="0.1">
<path opacity="0.1" d="M177.627 669.546H330.668C332.354 667.861 333.408 666.807 335.095 665.122H173.2C174.887 667.018 175.941 667.861 177.627 669.546Z" fill="black"/>
</g>
<g opacity="0.3">
<path opacity="0.3" d="M330.668 637.312H177.627C175.941 638.997 174.887 640.051 173.2 641.736H335.095C333.408 640.051 332.354 638.997 330.668 637.312Z" fill="white"/>
</g>
<g opacity="0.1">
<path opacity="0.1" d="M276.703 637.312H245.716V669.546H276.703V637.312Z" fill="white"/>
</g>
<g opacity="0.1">
<path opacity="0.1" d="M306.004 637.312H290.405V669.546H306.004V637.312Z" fill="white"/>
</g>
<path d="M347.743 673.971V697.356L343.316 701.781H190.275L185.849 697.356V673.971C187.535 672.285 188.589 671.232 190.275 669.546H343.316C345.003 671.232 346.057 672.285 347.743 673.971Z" fill="#407BFF"/>
<g opacity="0.3">
<path opacity="0.3" d="M347.743 673.971V697.356L343.316 701.781H190.275L185.849 697.356V673.971C187.535 672.285 188.589 671.232 190.275 669.546H343.316C345.003 671.232 346.057 672.285 347.743 673.971Z" fill="white"/>
</g>
<g opacity="0.3">
<path opacity="0.3" d="M347.743 682.398H185.849V694.196H347.743V682.398Z" fill="white"/>
</g>
<g opacity="0.1">
<path opacity="0.1" d="M190.275 701.781H343.316C345.003 700.095 346.057 699.042 347.743 697.356H185.849C187.535 699.042 188.589 700.095 190.275 701.781Z" fill="black"/>
</g>
<g opacity="0.3">
<path opacity="0.3" d="M343.316 669.546H190.275C188.589 671.232 187.535 672.285 185.849 673.971H347.743C346.057 672.285 345.003 671.232 343.316 669.546Z" fill="white"/>
</g>
<g opacity="0.1">
<path opacity="0.1" d="M289.141 669.546H258.153V701.781H289.141V669.546Z" fill="white"/>
</g>
<g opacity="0.1">
<path opacity="0.1" d="M318.442 669.546H302.843V701.781H318.442V669.546Z" fill="white"/>
</g>
<path d="M361.445 706.205V729.591L357.018 734.015H203.977L199.551 729.591V706.205C201.237 704.52 202.291 703.466 203.977 701.781H357.018C358.704 703.466 359.758 704.309 361.445 706.205Z" fill="#407BFF"/>
<g opacity="0.3">
<path opacity="0.3" d="M361.445 706.205V729.591L357.018 734.015H203.977L199.551 729.591V706.205C201.237 704.52 202.291 703.466 203.977 701.781H357.018C358.704 703.466 359.758 704.309 361.445 706.205Z" fill="white"/>
</g>
<g opacity="0.3">
<path opacity="0.3" d="M361.445 714.632H199.551V726.43H361.445V714.632Z" fill="white"/>
</g>
<g opacity="0.1">
<path opacity="0.1" d="M203.977 734.015H357.018C358.704 732.33 359.758 731.276 361.445 729.591H199.551C201.237 731.276 202.291 732.119 203.977 734.015Z" fill="black"/>
</g>
<g opacity="0.3">
<path opacity="0.3" d="M357.018 701.781H203.977C202.291 703.466 201.237 704.52 199.551 706.205H361.445C359.758 704.309 358.704 703.466 357.018 701.781Z" fill="white"/>
</g>
<g opacity="0.1">
<path opacity="0.1" d="M302.843 701.781H271.855V734.015H302.843V701.781Z" fill="white"/>
</g>
<g opacity="0.1">
<path opacity="0.1" d="M332.144 701.781H316.544V734.015H332.144V701.781Z" fill="white"/>
</g>
<path d="M347.743 738.229V761.614L343.316 766.039H190.275L185.849 761.614V738.229C187.535 736.543 188.589 735.49 190.275 733.804H343.316C345.003 735.49 346.057 736.543 347.743 738.229Z" fill="#407BFF"/>
<g opacity="0.3">
<path opacity="0.3" d="M347.743 738.229V761.614L343.316 766.039H190.275L185.849 761.614V738.229C187.535 736.543 188.589 735.49 190.275 733.804H343.316C345.003 735.49 346.057 736.543 347.743 738.229Z" fill="white"/>
</g>
<g opacity="0.3">
<path opacity="0.3" d="M347.743 746.656H185.849V758.454H347.743V746.656Z" fill="white"/>
</g>
<g opacity="0.1">
<path opacity="0.1" d="M190.275 766.039H343.316C345.003 764.353 346.057 763.3 347.743 761.614H185.849C187.535 763.3 188.589 764.353 190.275 766.039Z" fill="black"/>
</g>
<g opacity="0.3">
<path opacity="0.3" d="M343.316 733.804H190.275C188.589 735.49 187.535 736.543 185.849 738.229H347.743C346.057 736.543 345.003 735.49 343.316 733.804Z" fill="white"/>
</g>
<g opacity="0.1">
<path opacity="0.1" d="M289.141 733.804H258.153V766.039H289.141V733.804Z" fill="white"/>
</g>
<g opacity="0.1">
<path opacity="0.1" d="M318.442 733.804H302.843V766.039H318.442V733.804Z" fill="white"/>
</g>
<path d="M236.23 486.254C236.23 486.254 230.96 495.734 239.392 508.797C244.452 516.381 251.408 518.699 255.624 515.96C259.84 513.221 260.683 506.058 255.624 498.263C246.981 485.2 236.23 486.254 236.23 486.254Z" fill="#407BFF"/>
<path opacity="0.2" d="M236.23 486.254C236.23 486.254 230.96 495.734 239.392 508.797C244.452 516.381 251.408 518.699 255.624 515.96C259.84 513.221 260.683 506.058 255.624 498.263C246.981 485.2 236.23 486.254 236.23 486.254Z" fill="white"/>
<path d="M311.697 440.746C311.697 440.746 293.146 436.743 275.861 457.18C265.742 469.399 265.531 481.829 272.066 487.307C278.601 492.995 291.038 490.678 301.367 478.669C318.864 458.444 311.697 440.746 311.697 440.746Z" fill="#407BFF"/>
<path d="M287.454 359.212C287.454 359.212 283.238 360.266 281.974 366.376C281.13 369.957 282.395 372.485 284.503 372.907C286.4 373.328 288.719 371.643 289.352 368.061C290.827 361.951 287.454 359.212 287.454 359.212Z" fill="#407BFF"/>
<path d="M254.78 542.084C252.462 533.657 251.408 524.808 251.408 516.17C251.619 507.532 252.883 499.105 255.202 491.099C256.256 487.096 257.521 483.093 259.207 479.301C260.05 477.405 260.683 475.509 261.526 473.613C261.948 472.77 262.369 471.716 262.791 470.874L263.423 469.61L264.056 468.346C267.429 461.393 270.59 454.441 273.331 447.277C276.071 440.114 278.812 432.951 280.709 425.788C282.817 418.414 284.293 411.04 285.136 403.456C285.979 395.871 285.768 388.286 284.503 380.702C283.028 373.117 280.287 365.954 276.071 359.423C281.13 365.322 284.714 372.485 287.033 380.07C289.352 387.654 290.406 395.66 290.406 403.666C290.406 411.672 289.773 419.678 288.508 427.473C287.244 435.268 285.346 443.064 283.238 450.648C281.13 458.233 278.601 465.817 276.071 473.191L275.65 474.666L275.439 475.298L275.228 475.93C275.017 476.773 274.596 477.616 274.385 478.458C273.752 480.144 273.331 482.04 272.909 483.725C272.066 487.307 271.223 490.888 270.59 494.47C269.536 501.633 269.115 508.796 269.747 515.538C270.38 522.491 272.066 529.233 274.596 535.342L254.78 542.084Z" fill="#407BFF"/>
<path opacity="0.2" d="M254.78 542.084C252.462 533.657 251.408 524.808 251.408 516.17C251.619 507.532 252.883 499.105 255.202 491.099C256.256 487.096 257.521 483.093 259.207 479.301C260.05 477.405 260.683 475.509 261.526 473.613C261.948 472.77 262.369 471.716 262.791 470.874L263.423 469.61L264.056 468.346C267.429 461.393 270.59 454.441 273.331 447.277C276.071 440.114 278.812 432.951 280.709 425.788C282.817 418.414 284.293 411.04 285.136 403.456C285.979 395.871 285.768 388.286 284.503 380.702C283.028 373.117 280.287 365.954 276.071 359.423C281.13 365.322 284.714 372.485 287.033 380.07C289.352 387.654 290.406 395.66 290.406 403.666C290.406 411.672 289.773 419.678 288.508 427.473C287.244 435.268 285.346 443.064 283.238 450.648C281.13 458.233 278.601 465.817 276.071 473.191L275.65 474.666L275.439 475.298L275.228 475.93C275.017 476.773 274.596 477.616 274.385 478.458C273.752 480.144 273.331 482.04 272.909 483.725C272.066 487.307 271.223 490.888 270.59 494.47C269.536 501.633 269.115 508.796 269.747 515.538C270.38 522.491 272.066 529.233 274.596 535.342L254.78 542.084Z" fill="black"/>
<path d="M293.779 521.858L293.146 528.39L289.352 570.526C289.141 572.001 287.876 573.054 286.401 573.054H238.549C237.073 573.054 235.809 572.001 235.598 570.526L231.803 528.39L231.171 521.858H293.779Z" fill="#407BFF"/>
<path d="M293.149 545.307L291.798 560.416L292.428 560.472L293.779 545.363L293.149 545.307Z" fill="#407BFF"/>
<path d="M293.913 537.407L293.594 540.975L294.224 541.031L294.543 537.464L293.913 537.407Z" fill="#407BFF"/>
<path d="M264.477 399.242C264.477 399.242 257.099 409.144 264.688 425.156C269.115 434.636 276.704 438.007 281.763 435.69C286.822 433.162 288.93 425.366 284.503 415.886C276.915 399.874 264.477 399.242 264.477 399.242Z" fill="#407BFF"/>
<path opacity="0.2" d="M264.477 399.242C264.477 399.242 257.099 409.144 264.688 425.156C269.115 434.636 276.704 438.007 281.763 435.69C286.822 433.162 288.93 425.366 284.503 415.886C276.915 399.874 264.477 399.242 264.477 399.242Z" fill="black"/>
<path opacity="0.2" d="M293.779 521.858L293.146 528.39H232.225L231.593 521.858H293.779Z" fill="black"/>
<path d="M297.573 525.23H228.009C227.166 525.23 226.744 524.598 226.744 523.966V515.538C226.744 514.696 227.377 514.274 228.009 514.274H297.573C298.416 514.274 298.838 514.906 298.838 515.538V523.966C298.838 524.598 298.205 525.23 297.573 525.23Z" fill="#407BFF"/>
<path d="M331.474 412.491C336.842 401.127 331.975 387.566 320.605 382.201C309.235 376.837 295.666 381.7 290.299 393.064C284.931 404.428 289.797 417.989 301.167 423.354C312.538 428.718 326.106 423.855 331.474 412.491Z" fill="#407BFF"/>
<path opacity="0.1" d="M328.982 408.301C331.09 399.874 327.085 390.815 318.863 387.023C309.588 382.598 298.627 386.601 294.2 395.871C291.249 402.192 292.092 409.144 295.676 414.411C291.46 408.933 290.406 401.349 293.568 394.607C297.994 385.126 309.378 381.123 318.863 385.548C327.717 389.761 331.722 399.453 328.982 408.301Z" fill="black"/>
<path d="M317.81 405.984L315.491 410.83C315.28 411.251 315.069 411.462 314.648 411.672C314.226 411.883 313.804 411.883 313.383 411.672L309.167 409.776L307.48 413.147C307.27 413.568 307.059 413.779 306.637 413.99C306.216 414.2 305.794 414.2 305.372 413.99C304.951 413.779 304.74 413.568 304.529 413.147C304.318 412.726 304.318 412.304 304.529 411.883L306.216 408.512L302 406.616C301.578 406.405 301.367 406.195 301.156 405.773C300.946 405.352 300.946 404.93 301.156 404.509C301.367 404.088 301.578 403.877 302 403.666C302.421 403.456 302.843 403.456 303.264 403.666L312.961 408.301L313.804 406.405L304.108 401.77C303.686 401.56 303.475 401.349 303.264 400.928C303.054 400.506 303.054 400.085 303.264 399.663L305.583 394.818C305.794 394.396 306.005 394.186 306.426 393.975C306.848 393.764 307.27 393.764 307.691 393.975L311.907 395.871L313.594 392.5C313.804 392.079 314.015 391.868 314.437 391.658C314.858 391.447 315.28 391.447 315.702 391.658C316.123 391.868 316.334 392.079 316.545 392.5C316.756 392.922 316.756 393.343 316.545 393.764L314.858 397.135L319.074 399.242C319.496 399.453 319.707 399.663 319.918 400.085C320.128 400.506 320.128 400.928 319.918 401.349C319.707 401.77 319.496 401.981 319.074 402.192C318.653 402.402 318.231 402.402 317.81 402.192L308.113 397.557L307.27 399.453L316.966 404.088C317.388 404.298 317.599 404.509 317.81 404.93C318.02 405.352 318.02 405.773 317.81 405.984Z" fill="#FAFAFA"/>
<path d="M266.018 472.083C269.895 463.875 266.381 454.081 258.169 450.207C249.957 446.332 240.157 449.845 236.281 458.052C232.404 466.259 235.918 476.053 244.13 479.928C252.342 483.802 262.142 480.29 266.018 472.083Z" fill="#407BFF"/>
<path opacity="0.1" d="M264.477 469.188C265.953 463.078 263.212 456.547 257.31 453.808C250.564 450.648 242.554 453.598 239.392 460.129C237.284 464.553 237.916 469.609 240.446 473.612C237.284 469.609 236.651 464.132 238.97 459.286C242.132 452.333 250.354 449.595 257.31 452.755C263.423 455.704 266.374 462.657 264.477 469.188Z" fill="black"/>
<path d="M256.256 467.503L254.57 470.874C254.359 471.084 254.148 471.295 253.937 471.506C253.727 471.506 253.305 471.506 253.094 471.506L250.143 470.031L249.089 472.559C248.878 472.77 248.667 472.98 248.457 473.191C248.246 473.191 247.824 473.191 247.613 473.191C247.403 472.98 247.192 472.77 246.981 472.559C246.77 472.348 246.981 471.927 246.981 471.716L248.246 469.188L245.295 467.713C245.084 467.503 244.873 467.292 244.662 467.081C244.451 466.871 244.662 466.449 244.662 466.239C244.873 466.028 245.084 465.817 245.295 465.607C245.505 465.607 245.927 465.607 246.138 465.607L253.094 468.978L253.727 467.503L246.77 464.132C246.559 463.921 246.349 463.71 246.138 463.5C246.138 463.289 246.138 462.868 246.138 462.657L247.824 459.286C248.035 459.075 248.246 458.865 248.457 458.654C248.667 458.654 249.089 458.654 249.3 458.654L252.251 460.129L253.305 457.601C253.516 457.39 253.727 457.179 253.937 456.969C254.148 456.758 254.57 456.969 254.781 456.969C254.991 457.179 255.202 457.39 255.413 457.601C255.413 457.811 255.413 458.233 255.413 458.443L254.359 460.972L257.521 462.446C257.732 462.657 257.943 462.868 258.153 463.078C258.364 463.289 258.153 463.71 258.153 463.921C257.943 464.132 257.732 464.342 257.521 464.553C257.31 464.764 256.889 464.553 256.678 464.553L249.721 461.182L249.089 462.657L256.045 466.028C256.256 466.239 256.467 466.449 256.678 466.66C256.467 466.871 256.467 467.081 256.256 467.503Z" fill="#FAFAFA"/>
<path d="M15.944 360.898C15.944 360.898 6.45796 376.278 19.7384 398.188C27.538 411.04 38.7104 415.254 45.6668 411.04C52.8341 406.826 54.5205 395.028 46.9317 382.177C33.862 360.055 15.944 360.898 15.944 360.898Z" fill="#407BFF"/>
<path opacity="0.2" d="M15.944 360.898C15.944 360.898 6.45796 376.278 19.7384 398.188C27.538 411.04 38.7104 415.254 45.6668 411.04C52.8341 406.826 54.5205 395.028 46.9317 382.177C33.862 360.055 15.944 360.898 15.944 360.898Z" fill="white"/>
<path d="M107.431 320.236C107.431 320.236 84.8755 315.18 63.5848 340.462C51.1476 355.42 50.7259 370.589 58.9471 377.542C66.9575 384.494 82.1351 381.755 94.7831 366.797C116.074 341.726 107.431 320.236 107.431 320.236Z" fill="#407BFF"/>
<path d="M80.4489 209.207C80.4489 209.207 73.2817 211.103 71.1737 221.427C69.9089 227.536 72.0169 231.961 75.3897 232.593C78.7625 233.225 82.5569 230.275 83.8217 224.165C86.1405 214.053 80.4489 209.207 80.4489 209.207Z" fill="#407BFF"/>
<path d="M38.7101 439.061C35.7589 428.737 34.4941 417.992 34.7049 407.458C34.9157 396.924 36.6021 386.601 39.3425 376.699C40.6073 371.853 42.2937 367.007 44.1909 362.162C45.0341 359.844 46.0881 357.527 47.1421 355.209C47.5637 354.156 48.1961 352.892 48.6177 351.838L49.4609 350.153L50.3041 348.467C54.3093 340.04 58.1038 331.402 61.6874 322.764C65.0602 314.126 68.2221 305.278 70.7517 296.429C73.2814 287.37 75.1786 278.31 76.2326 269.04C77.0758 259.77 77.0758 250.5 75.3894 241.23C73.703 231.96 70.3302 223.112 64.8494 215.106C70.9626 222.48 75.6002 231.118 78.3406 240.388C81.081 249.658 82.3458 259.56 82.5566 269.251C82.5566 278.943 81.7134 288.845 80.2378 298.325C78.7622 308.017 76.4434 317.497 73.9138 326.767C71.3841 336.037 68.4329 345.307 65.2709 354.367L64.6386 356.052L64.4277 356.895L64.2169 357.737C63.7953 358.791 63.5845 359.844 63.1629 360.898C62.5305 363.005 61.8981 365.111 61.2657 367.429C60.2117 371.853 59.1578 376.067 58.5254 380.491C57.2606 389.129 56.8389 397.978 57.6821 406.405C58.5253 414.832 60.4225 423.049 63.5846 430.633L38.7101 439.061Z" fill="#407BFF"/>
<path opacity="0.2" d="M38.7101 439.061C35.7589 428.737 34.4941 417.992 34.7049 407.458C34.9157 396.924 36.6021 386.601 39.3425 376.699C40.6073 371.853 42.2937 367.007 44.1909 362.162C45.0341 359.844 46.0881 357.527 47.1421 355.209C47.5637 354.156 48.1961 352.892 48.6177 351.838L49.4609 350.153L50.3041 348.467C54.3093 340.04 58.1038 331.402 61.6874 322.764C65.0602 314.126 68.2221 305.278 70.7517 296.429C73.2814 287.37 75.1786 278.31 76.2326 269.04C77.0758 259.77 77.0758 250.5 75.3894 241.23C73.703 231.96 70.3302 223.112 64.8494 215.106C70.9626 222.48 75.6002 231.118 78.3406 240.388C81.081 249.658 82.3458 259.56 82.5566 269.251C82.5566 278.943 81.7134 288.845 80.2378 298.325C78.7622 308.017 76.4434 317.497 73.9138 326.767C71.3841 336.037 68.4329 345.307 65.2709 354.367L64.6386 356.052L64.4277 356.895L64.2169 357.737C63.7953 358.791 63.5845 359.844 63.1629 360.898C62.5305 363.005 61.8981 365.111 61.2657 367.429C60.2117 371.853 59.1578 376.067 58.5254 380.491C57.2606 389.129 56.8389 397.978 57.6821 406.405C58.5253 414.832 60.4225 423.049 63.5846 430.633L38.7101 439.061Z" fill="black"/>
<path d="M86.5618 414.411L85.9295 422.417L81.2918 474.034C81.081 475.93 79.6054 477.194 77.7082 477.194H19.1058C17.2086 477.194 15.733 475.719 15.5222 474.034L10.8846 422.417L10.2522 414.411H86.5618Z" fill="#407BFF"/>
<path d="M85.7201 442.969L84.0686 461.435L84.6985 461.491L86.3499 443.025L85.7201 442.969Z" fill="#407BFF"/>
<path d="M86.6069 433.073L86.2126 437.48L86.8425 437.536L87.2368 433.13L86.6069 433.073Z" fill="#407BFF"/>
<path d="M56.4177 232.593C56.4177 232.593 48.8288 242.706 56.6284 258.928C61.266 268.619 68.8549 272.201 74.1249 269.673C79.3949 267.145 81.5029 259.139 76.8653 249.447C69.0657 233.225 56.4177 232.593 56.4177 232.593Z" fill="#407BFF"/>
<path opacity="0.2" d="M56.4177 232.593C56.4177 232.593 48.8288 242.706 56.6284 258.928C61.266 268.619 68.8549 272.201 74.1249 269.673C79.3949 267.145 81.5029 259.139 76.8653 249.447C69.0657 233.225 56.4177 232.593 56.4177 232.593Z" fill="black"/>
<path opacity="0.2" d="M86.5618 414.411L85.9295 422.206H11.0954L10.2522 414.411H86.5618Z" fill="black"/>
<path d="M91.1995 418.203H5.8256C4.9824 418.203 4.13916 417.361 4.13916 416.518V405.984C4.13916 405.141 4.9824 404.298 5.8256 404.298H91.1995C92.0427 404.298 92.8859 405.141 92.8859 405.984V416.518C92.6751 417.571 92.0427 418.203 91.1995 418.203Z" fill="#407BFF"/>
<path d="M133.104 286.976C139.665 273.087 133.717 256.512 119.82 249.955C105.923 243.398 89.3394 249.342 82.7789 263.232C76.2185 277.121 82.1659 293.695 96.0629 300.252C109.96 306.809 126.544 300.865 133.104 286.976Z" fill="#407BFF"/>
<path opacity="0.1" d="M130.198 281.892C132.938 271.569 127.879 260.403 117.761 255.768C106.377 250.501 92.8861 255.346 87.4053 266.723C83.8217 274.308 84.8757 282.946 89.3025 289.477C84.0325 282.735 82.7677 273.465 86.5621 265.248C92.0429 253.661 105.956 248.605 117.55 254.082C128.511 258.928 133.571 270.937 130.198 281.892Z" fill="black"/>
<path d="M116.496 279.153L113.755 285.052C113.544 285.474 113.123 285.895 112.701 285.895C112.279 286.106 111.647 286.106 111.226 285.895L105.956 283.367L104.058 287.581C103.847 288.002 103.426 288.423 103.004 288.634C102.583 288.845 101.95 288.845 101.529 288.634C101.107 288.423 100.685 288.002 100.475 287.581C100.264 287.159 100.264 286.527 100.475 286.106L102.372 281.892L97.3127 279.575C96.8911 279.364 96.4695 278.943 96.2587 278.521C96.0479 278.1 96.0479 277.468 96.2587 277.047C96.4695 276.625 96.8911 276.204 97.3127 275.993C97.7343 275.782 98.3666 275.782 98.7882 275.993L110.804 281.681L111.858 279.153L99.8422 273.465C99.4206 273.254 98.999 272.833 98.7882 272.412C98.5774 271.99 98.5774 271.358 98.7882 270.937L101.529 265.038C101.739 264.616 102.161 264.195 102.583 263.984C103.004 263.774 103.637 263.774 104.058 263.984L109.118 266.302L111.015 262.088C111.225 261.667 111.647 261.245 112.069 261.035C112.49 260.824 113.123 260.824 113.544 261.035C113.966 261.245 114.388 261.667 114.388 262.088C114.598 262.509 114.598 263.142 114.388 263.563L112.49 267.777L117.76 270.305C118.182 270.515 118.603 270.937 118.814 271.358C119.025 271.779 119.025 272.412 118.814 272.833C118.603 273.254 118.182 273.676 117.76 273.886C117.339 274.097 116.706 274.097 116.285 273.886L104.269 268.198L103.215 270.515L115.231 276.204C115.652 276.414 116.074 276.836 116.285 277.257C116.706 278.1 116.706 278.521 116.496 279.153Z" fill="#FAFAFA"/>
<path d="M62.9527 323.208C69.5131 309.319 63.5657 292.744 49.6687 286.187C35.7718 279.631 19.1877 285.575 12.6273 299.464C6.06682 313.353 12.0143 329.928 25.9112 336.484C39.8082 343.041 56.3922 337.097 62.9527 323.208Z" fill="#407BFF"/>
<path opacity="0.1" d="M60.0012 318.34C62.7416 308.017 57.6824 296.851 47.564 292.216C36.1808 286.949 22.6896 291.794 17.2088 303.171C13.6252 310.756 14.6792 319.394 19.106 325.925C13.836 319.183 12.5712 309.913 16.3656 301.696C21.8464 290.109 35.7592 285.053 47.3532 290.53C58.3148 295.376 63.374 307.385 60.0012 318.34Z" fill="black"/>
<path d="M46.299 315.391L43.5586 321.29C43.3478 321.711 42.9262 322.132 42.5046 322.132C42.083 322.343 41.4506 322.343 41.029 322.132L35.759 319.604L33.8618 323.818C33.651 324.239 33.2294 324.661 32.8078 324.871C32.3862 325.082 31.7538 325.082 31.3322 324.871C30.9106 324.661 30.489 324.239 30.2782 323.818C30.0674 323.397 30.0674 322.764 30.2782 322.343L32.1754 318.129L27.1162 315.812C26.6946 315.601 26.273 315.18 26.0622 314.759C25.8514 314.337 25.8514 313.705 26.0622 313.284C26.273 312.862 26.6946 312.441 27.1162 312.23C27.5378 312.02 28.1702 312.02 28.5918 312.23L40.6074 317.919L41.6614 315.391L29.6458 309.702C29.2242 309.492 28.8026 309.07 28.5918 308.649C28.381 308.227 28.381 307.595 28.5918 307.174L31.3322 301.275C31.543 300.854 31.9646 300.432 32.3862 300.222C32.8078 300.011 33.4402 300.011 33.8618 300.222L38.921 302.539L40.8182 298.325C41.029 297.904 41.4506 297.483 41.8722 297.272C42.2938 297.061 42.9262 297.061 43.3478 297.272C43.7694 297.483 44.191 297.904 44.191 298.325C44.4018 298.747 44.4018 299.379 44.191 299.8L42.2938 304.014L47.5638 306.542C47.9854 306.753 48.407 307.174 48.6178 307.595C48.8286 308.017 48.8286 308.649 48.6178 309.07C48.407 309.492 47.9854 309.913 47.5638 310.124C47.1422 310.334 46.5098 310.334 46.0882 310.124L34.0726 304.435L33.0186 306.753L45.0342 312.441C45.4558 312.652 45.8774 313.073 46.0882 313.494C46.5098 314.548 46.5098 314.969 46.299 315.391Z" fill="#FAFAFA"/>
</svg>
