<svg width="499" height="326" viewBox="0 0 499 326" fill="none" xmlns="http://www.w3.org/2000/svg">
<g clip-path="url(#clip0)">
<path d="M494.362 326H1.58365C0.716412 326 0 325.302 0 324.417C0 323.549 0.697559 322.833 1.58365 322.833H494.381C495.248 322.833 495.965 323.531 495.965 324.417C495.946 325.302 495.248 326 494.362 326Z" fill="#2E5B99"/>
<path d="M340.642 155.978L499.007 155.978V7.90733L340.642 7.90733V155.978Z" fill="#E6F6FF"/>
<path d="M78.1431 271.04H184.775V175.242H78.1431L78.1431 271.04Z" fill="#E6F6FF"/>
<path d="M320.161 100.303V87.0138C320.161 80.9817 325.063 76.0806 331.096 76.0806H447.513C453.546 76.0806 458.448 80.9817 458.448 87.0138V322.079H157.328V100.303H320.161Z" fill="white"/>
<path d="M319.199 100.303V87.0138C319.199 80.9817 324.101 76.0806 330.134 76.0806H446.551C452.584 76.0806 457.486 80.9817 457.486 87.0138V322.079H156.348V100.303H319.199Z" fill="#0F4599"/>
<path d="M447.38 109.484V322.079H168.451V108.447L447.38 109.484Z" fill="#BAE2FF"/>
<path d="M432.072 109.484V322.079H153.124V108.447L432.072 109.484Z" fill="#1480CC"/>
<path d="M141.887 100.303H417.461C423.117 100.303 427.283 104.13 428.094 109.427V322.079H127.333V114.818C127.257 107.184 134.157 100.303 141.887 100.303Z" fill="white"/>
<path d="M242.96 179.243L404.021 179.694L404.363 57.2979L243.302 56.8468L242.96 179.243Z" fill="#EBF3FF"/>
<path d="M247.178 173.371L400 173.799L400.315 61.2807L247.493 60.8528L247.178 173.371Z" fill="#3397FF"/>
<path d="M387.127 164.734L288.922 164.451L342.615 112.952L387.127 164.734Z" fill="#E3EEFF"/>
<path d="M342.464 164.602L259.944 164.376L304.72 121.812L342.464 164.602Z" fill="#E3EEFF"/>
<path d="M323.311 101.524C323.328 95.2463 318.253 90.1429 311.974 90.1253C305.695 90.1078 300.591 95.1826 300.574 101.46C300.556 107.738 305.632 112.841 311.91 112.859C318.189 112.877 323.293 107.802 323.311 101.524Z" fill="#E3EEFF"/>
<path d="M221.506 164.579L370.821 165.058L371.237 35.2157L221.922 34.7373L221.506 164.579Z" fill="#EBF3FF"/>
<path d="M225.863 158.349L366.694 158.803L367.079 39.4414L226.248 38.9875L225.863 158.349Z" fill="#3397FF"/>
<path d="M353.248 55.9294H297.16V60.8494H353.248V55.9294Z" fill="#CCE5FF"/>
<path d="M239.125 74.1536L353.242 74.1536V69.2336L239.125 69.2336V74.1536Z" fill="#CCE5FF"/>
<path d="M239.125 87.714L353.242 87.714V82.794L239.125 82.794V87.714Z" fill="#CCE5FF"/>
<path d="M140.549 100.303H416.123C421.778 100.303 425.945 104.13 426.756 109.427V322.833H125.994V114.818C125.938 107.184 132.819 100.303 140.549 100.303Z" fill="#66B8FF"/>
<path d="M428.087 322.069H458.44V320.843H428.087V322.069Z" fill="white"/>
<path opacity="0.5" d="M458.448 190.239L447.381 197.459H432.789L428.094 201.059V197.647H127.333V190.239H458.448Z" fill="black"/>
<path d="M121.188 193.539L462.709 193.539V154.952L121.188 154.952V193.539Z" fill="#61B3F2"/>
<path d="M121.194 193.539L431.966 193.539V154.952L121.194 154.952V193.539Z" fill="#2E97E6"/>
<path d="M346.065 154.97V193.538H319.049L337.996 154.97H346.065Z" fill="#0E0E0E"/>
<path d="M336.732 174.215C336.732 179.55 337.656 184.376 339.24 187.863C340.767 191.426 342.897 193.537 345.254 193.537H352.418V154.969H345.254C340.522 154.969 336.732 163.621 336.732 174.215ZM343.519 180.568C342.181 180.153 341.125 177.514 341.125 174.215C341.125 170.992 342.162 168.372 343.519 167.938C344.858 168.353 345.914 170.992 345.914 174.215C345.895 177.514 344.858 180.135 343.519 180.568Z" fill="#2475B3"/>
<path d="M340.371 174.216C340.371 179.551 341.351 184.376 342.992 187.864C344.594 191.427 346.819 193.538 349.27 193.538H352.399V154.97H349.27C344.368 154.97 340.371 163.622 340.371 174.216ZM343.821 174.216C343.821 170.993 345.857 168.372 347.252 167.939C348.666 168.354 349.76 170.993 349.76 174.216C349.76 177.515 348.666 180.154 347.252 180.569C345.838 180.135 343.821 177.515 343.821 174.216Z" fill="#3F9EE6"/>
<path d="M340.163 174.215C340.163 179.55 341.087 184.376 342.671 187.863C344.198 191.426 346.328 193.537 348.685 193.537H355.849V154.969H348.685C343.971 154.969 340.163 163.621 340.163 174.215ZM346.95 180.568C345.612 180.153 344.556 177.514 344.556 174.215C344.556 170.992 345.593 168.372 346.95 167.938C348.289 168.353 349.344 170.992 349.344 174.215C349.344 177.514 348.289 180.135 346.95 180.568Z" fill="#2475B3"/>
<path d="M343.821 174.216C343.821 179.551 344.802 184.376 346.442 187.864C348.044 191.427 350.269 193.538 352.72 193.538H355.85V154.97H352.72C347.799 154.97 343.821 163.622 343.821 174.216ZM347.253 174.216C347.253 170.993 348.346 168.372 349.76 167.939C351.174 168.354 352.267 170.993 352.267 174.216C352.267 177.515 351.174 180.154 349.76 180.569C348.346 180.135 347.253 177.515 347.253 174.216Z" fill="#61B3F2"/>
<path d="M348.629 193.783C348.327 193.783 346.574 193.707 344.726 191.936C342.633 189.919 340.126 185.376 340.126 175.14C340.126 165.394 342.407 160.38 344.311 157.892C346.423 155.139 348.515 154.762 348.61 154.743C348.742 154.725 348.874 154.819 348.892 154.951C348.911 155.083 348.817 155.215 348.685 155.234C348.666 155.234 346.649 155.629 344.669 158.231C342.822 160.663 340.616 165.583 340.616 175.14C340.616 185.168 343.029 189.598 345.047 191.559C346.875 193.33 348.629 193.293 348.647 193.293C348.779 193.293 348.911 193.387 348.911 193.538C348.911 193.67 348.817 193.802 348.666 193.802C348.666 193.783 348.647 193.783 348.629 193.783Z" fill="#1A5380"/>
<path d="M349.741 180.06C350.08 180.154 350.326 180.229 350.665 180.305C350.59 180.38 350.59 180.38 350.665 180.38C364.314 184.452 374.401 196.987 374.401 211.992V244.208H385.241V211.992C385.241 191.144 370.574 173.688 351.004 169.277C350.59 169.108 350.156 169.032 349.741 168.938C346.612 168.278 346.348 179.551 349.741 180.06Z" fill="#E6E6E6"/>
<path d="M336.902 168.372V179.155C322.913 180.946 311.62 191.332 308.623 204.886C308.528 205.225 308.453 205.47 308.453 205.734C308.283 206.488 308.208 207.167 308.114 207.94C307.944 209.297 307.869 210.654 307.869 212.011V244.227H297.104V212.011C297.104 189.221 314.618 170.559 336.902 168.372Z" fill="#E6E6E6"/>
<path d="M349.495 176.874C374.928 181.341 378.208 209.033 378.208 209.033V244.227H374.4V212.011C374.4 196.705 363.899 183.886 349.759 180.078C348.685 179.72 348.006 176.572 348.006 176.572C348.006 176.572 348.666 176.704 349.495 176.874Z" fill="#999999"/>
<path d="M336.902 176.874V179.174C322.913 180.964 311.62 191.351 308.622 204.905C309.244 196.969 315.805 179.683 336.902 176.874Z" fill="#808080"/>
<path d="M349.741 180.06C350.08 180.154 350.326 180.229 350.665 180.305C350.42 179.626 349.025 178.08 348.855 174.876C348.685 171.577 349.817 169.334 351.004 169.296C350.589 169.126 350.156 169.051 349.741 168.957C346.612 168.278 346.348 179.551 349.741 180.06Z" fill="#666666"/>
<path d="M394.555 235.424H287.696V322.777H394.555V235.424Z" fill="#F7AF0C"/>
<path d="M342.728 257.007C342.389 256.913 342.049 256.913 341.71 256.913C334.414 256.913 328.494 262.813 328.494 270.165C328.494 275.556 331.718 280.175 336.299 282.305V304.812C336.299 307.809 338.75 310.279 341.729 310.279C341.974 310.279 342.313 310.279 342.577 310.184H342.822C345.273 309.676 347.14 307.451 347.14 304.793V282.305C351.721 280.25 354.945 275.537 354.945 270.165C354.945 263.153 349.591 257.516 342.728 257.007Z" fill="#CC840A"/>
<path d="M342.728 257.007C335.865 257.441 330.436 263.171 330.436 270.184C330.436 275.575 333.659 280.193 338.241 282.323V304.812C338.241 307.47 340.107 309.694 342.558 310.203H342.803C345.254 309.694 347.12 307.47 347.12 304.812V282.323C351.702 280.269 354.926 275.556 354.926 270.184C354.944 263.153 349.59 257.516 342.728 257.007Z" fill="#803D00"/>
<path d="M321.613 322.777H287.696V235.424H297.104C297.104 235.424 294.596 299.873 321.613 322.777Z" fill="#E6950B"/>
<path d="M371.61 322.777C379.717 305.453 378.209 258.855 378.209 235.424H388.974V322.777H371.61Z" fill="#F7E4AD"/>
<path d="M261.397 241.776C261.397 241.776 250.424 241.418 239.622 241.946C228.404 242.492 217.337 243.982 218.921 247.846C219.279 248.713 219.336 249.561 219.147 250.391C216.885 260.74 175.974 268.487 166.943 262.135C160.194 257.403 141.624 263.492 134.007 266.772C119.509 169.767 119.114 70.595 131.952 63.6957C144.791 56.8342 180.367 65.5431 180.367 65.5431C180.367 65.5431 198.39 70.3122 205.743 119.625C213.114 168.881 261.397 241.776 261.397 241.776Z" fill="#4582E6"/>
<path d="M218.921 247.846C219.279 248.713 219.336 249.561 219.147 250.391C208.043 216.573 181.931 119.927 191.415 146.28C200.502 171.69 229.045 223.152 239.621 241.946C228.404 242.493 217.337 243.982 218.921 247.846Z" fill="#3D73CC"/>
<path d="M130.595 89.3324C120.056 102.226 118.114 105.355 108.254 106.034C111.572 108.126 113.552 110.973 114.89 114.026H114.928C117.831 120.379 118.246 127.787 123.317 131.953L117.247 137.91L115.701 139.456C115.701 139.456 115.475 139.267 115.079 138.909C112.439 136.459 101.919 126.562 95.6602 117.457C91.9838 112.16 89.7592 107.165 91.3051 104.036C93.8126 94.9498 100.279 76.269 116.681 70.6892C127.446 58.9831 138.004 65.2792 141.737 70.1426C146.752 76.7025 141.737 90.633 130.595 89.3324Z" fill="#002E73"/>
<path d="M123.317 131.972L117.247 137.929L115.079 138.928C112.59 136.609 103.107 127.712 96.7913 119.06C96.3954 118.551 96.0184 118.004 95.6602 117.476C98.7897 117.438 108.857 117.193 114.89 114.026H114.928C115.192 114.573 115.418 115.12 115.607 115.666C117.926 121.623 118.661 128.164 123.317 131.972Z" fill="#231F20"/>
<path d="M115.606 115.685C108.932 119.757 101.278 119.625 96.8099 119.078C96.414 118.569 96.0369 118.023 95.6787 117.495C98.8083 117.457 108.876 117.212 114.909 114.045H114.946C115.192 114.592 115.418 115.139 115.606 115.685Z" fill="#66B8FF"/>
<path d="M118.774 126.468C118.774 126.468 125.674 127.109 127.767 128.918C129.52 130.445 128.445 132.33 128.445 132.33C132.16 134.423 128.445 142.528 121.96 144.527C115.475 146.525 111.214 134.31 111.214 134.31C111.214 134.31 112.194 126.901 118.774 126.468Z" fill="#231F20"/>
<path d="M205.931 323.191H182.497C182.007 322.908 181.648 322.607 181.441 322.249C180.234 304.831 178.5 296.424 178.5 296.424L194.827 295.764L198.522 308.733C203.97 312.484 210.494 320.496 205.931 323.191Z" fill="#231F20"/>
<path d="M180.705 323.512H208.495C209.192 323.512 208.966 319.647 208.25 319.647L180.63 319.798C179.914 319.798 179.989 323.512 180.705 323.512Z" fill="#231F20"/>
<path d="M171.034 137.59C174.823 147.788 190.962 194.537 186.361 228.185C192.696 250.56 190.717 269.524 196.429 302.192L179.801 303.059C173.032 263.19 165.604 270.787 163.455 231.314C149.749 200.362 142.641 171.011 139.003 140.832C135.421 118.06 163.38 106.109 171.034 137.59Z" fill="#002E73"/>
<path d="M179.955 304.778C179.955 304.778 178.711 292.921 170.887 270.244C168.455 263.27 167.135 258.67 166.457 255.824C165.778 252.958 165.684 251.865 165.684 251.865C169.812 247.096 175.054 239.895 179.691 231.261C184.782 239.235 190.833 247.19 190.833 247.19C190.833 247.19 190.984 249.056 191.267 252.129C192.492 264.966 195.792 298.878 197.79 306.079C200.241 314.958 184.782 320.028 179.955 304.778Z" fill="#231F20"/>
<path d="M191.263 252.106C188.605 249.146 183.817 243.567 179.82 237.459C178.01 244.038 170.393 252.012 166.434 255.801C165.755 252.935 165.661 251.842 165.661 251.842C169.79 247.073 175.031 239.872 179.669 231.239C184.759 239.212 190.811 247.167 190.811 247.167C190.811 247.167 190.999 249.052 191.263 252.106Z" fill="#66B8FF"/>
<path d="M151.351 141.925C150.182 186.356 142.264 224.094 142.264 224.094C145.62 254.406 137.984 260.061 134.553 303.417L119.527 303.21C119.49 285.603 118.472 263.812 117.397 228.505C107.933 191.615 112.495 164.451 116.021 142.396C119.772 117.382 153.764 109.088 151.351 141.925Z" fill="#002E73"/>
<path d="M134.553 303.436C135.892 310.618 136.853 316.217 136.288 322.72L99.8826 323.436C99.8826 323.436 96.2817 319.93 100.806 314.671C105.331 309.412 113.947 312.447 119.509 303.248L134.553 303.436Z" fill="#231F20"/>
<path d="M98.2239 323.512H136.91C137.608 323.512 137.438 319.647 136.722 319.647L98.2051 319.798C97.4698 319.798 97.5075 323.512 98.2239 323.512Z" fill="#231F20"/>
<path d="M141.774 254.406C141.774 254.406 141.51 255.688 141.077 257.893C139.248 267.469 134.327 294.199 134.912 306.226C128.087 314.388 119.188 305.321 119.188 305.321L115.606 239.25L115.361 234.801C124.995 245.508 135.006 251.22 141.774 254.406Z" fill="#231F20"/>
<path d="M141.774 254.406C141.774 254.406 141.51 255.688 141.077 257.893C127.804 254.029 119.622 244.924 115.606 239.25L115.361 234.801C124.995 245.508 135.006 251.22 141.774 254.406Z" fill="#66B8FF"/>
<path d="M117.134 139.814C117.134 147.505 171.713 145.281 171.713 137.59C171.525 124.922 173.278 114.479 175.673 105.864C192.037 89.8413 191.057 77.4 186.909 70.6515C179.764 59.0208 143.641 59.6805 130.633 64.6759C125.467 66.6552 118.529 74.7609 116.323 87.6546C115.192 94.29 120.075 102.019 120.848 107.372C122.62 119.776 117.492 138.042 117.134 139.814Z" fill="#002E73"/>
<path d="M151.145 69.9541C153.841 67.824 164.587 64.5252 167.434 62.1689L166.793 43.5258L156.235 42.489C153.162 42.7341 150.108 43.4692 147.469 44.5249L145.093 56.7965L144.565 59.4544C143.377 62.0935 145.753 65.2415 151.145 69.9541Z" fill="#F7A594"/>
<path d="M163.248 47.7482C161.589 50.293 154.651 56.8341 145.111 56.7964L147.166 46.1836L163.248 47.7482Z" fill="#E6836F"/>
<path d="M139.87 23.2049C139.04 26.8808 137.344 34.9488 137.608 38.6623C138.041 44.3175 143.32 50.5947 147.92 51.4053C153.256 51.9519 160.439 50.3685 164.341 47.0131C166.509 44.4683 170.713 38.4361 172.655 33.1391C176.69 22.1116 168.904 12.4413 159.025 10.217C149.127 7.97377 142.453 11.7439 139.87 23.2049Z" fill="#F7A594"/>
<path d="M169.337 40.4154C171.392 36.7961 168.658 35.3258 165.661 38.1345C166.17 35.4012 169.299 27.3709 166.528 24.713C163.399 21.6215 149.674 22.9787 142.283 15.2689C142.283 15.2689 147.788 3.20459 165.831 10.3301C186.248 21.1502 169.337 40.4154 169.337 40.4154Z" fill="#73382A"/>
<path d="M166.792 36.9657C165.227 38.8696 165.171 41.3767 166.641 42.5832C168.112 43.7896 170.582 43.2241 172.146 41.339C173.711 39.4352 173.768 36.928 172.297 35.7216C170.808 34.5152 168.338 35.0618 166.792 36.9657Z" fill="#F7A594"/>
<path d="M145.168 55.7409C146.978 58.9643 165.548 57.2866 167.207 54.5721L168.244 64.8833L150.975 74.6856L141.944 64.7514L145.168 55.7409Z" fill="#002E73"/>
<path d="M175.691 21.5083C175.182 12.4789 157.706 -0.263968 145.168 4.4675C136.722 7.65323 138.702 16.626 146.055 18.3226C152.54 19.8306 170.526 12.0454 175.691 21.5083Z" fill="#231F20"/>
<path d="M143.604 4.50526C143.604 4.50526 143.981 1.92275 145.357 0C135.553 6.42801 140.436 14.1002 140.549 14.4395C144.433 2.63907 153.728 3.16688 157.008 3.22343C148.543 -0.791719 143.698 4.1471 143.604 4.50526Z" fill="#231F20"/>
<path d="M116.455 142.434C130.689 148.579 163.588 147.222 173.41 142.509L175.918 150.841C154.538 155.874 134.083 156.025 114.646 150.691L116.455 142.434Z" fill="#66B8FF"/>
<path d="M211.718 122.905C202.311 132.99 182.44 144.508 182.44 144.508L176.35 135.742C182.666 132.255 186.154 123.225 192.187 117.043C194.242 114.912 196.598 113.14 199.445 111.972C189.83 109.483 185.004 107.108 176.991 92.4992C165.793 91.7264 163.379 77.0795 169.469 71.6318C174.05 67.5412 185.588 63.2433 194.034 76.7214C209.136 85.2041 215.583 103.715 216.375 113.122C217.129 115.817 215.093 119.267 211.718 122.905Z" fill="#002E73"/>
<path d="M181.799 131.143C181.799 131.143 174.899 130.502 172.504 131.916C170.506 133.084 171.203 135.158 171.203 135.158C167.169 136.534 169.337 145.186 175.351 148.334C181.365 151.482 187.775 140.248 187.775 140.248C187.775 140.248 188.171 132.783 181.799 131.143Z" fill="#231F20"/>
<path d="M211.718 122.905C211.134 123.508 210.53 124.168 209.87 124.771C199.935 134.385 182.421 144.508 182.421 144.508L176.331 135.742C181.78 132.745 185.098 125.657 189.773 119.776C190.508 118.814 191.319 117.91 192.168 117.042C194.524 118.419 201.556 122.132 211.718 122.905Z" fill="#231F20"/>
<path d="M211.718 122.905C211.134 123.508 210.531 124.168 209.871 124.771C201.349 124.357 193.356 121.284 189.773 119.776C190.509 118.814 191.319 117.91 192.168 117.042C194.524 118.419 201.557 122.132 211.718 122.905Z" fill="#66B8FF"/>
<path d="M148.486 78.9081C150.183 81.5849 153.105 83.9977 156.404 85.3172C156.366 85.5623 156.215 86.9761 155.443 93.423C154.424 102.038 146.582 105.148 145.356 105.619C144.319 104.884 137.4 99.5871 138.418 90.9724C139.172 84.5067 139.342 83.1117 139.38 82.8667C142.849 82.5085 146.223 81.0005 148.486 78.9081Z" fill="white"/>
<path d="M147.581 83.47C147.581 83.47 147.581 83.4888 147.581 83.47C145.922 84.7707 143.773 85.6755 141.454 86.0148L140.813 91.5191C140.511 94.0451 141.152 96.4391 142.717 98.6635C143.697 100.058 144.772 101.02 145.375 101.491C145.394 101.51 145.432 101.529 145.451 101.548C146.11 101.284 147.449 100.662 148.769 99.5306C150.786 97.8152 151.955 95.6662 152.256 93.1591L152.897 87.6548C150.748 86.6746 148.863 85.1854 147.581 83.47Z" fill="#F7AF0C"/>
<path d="M142.905 61.9991C143.829 64.3743 146.921 66.4667 150.409 68.5214C157.479 67.3715 162.908 65.166 168.225 62.0745C173.447 62.0557 177.199 64.0539 181.083 65.543L150.239 70.5573L132.103 63.7145C134.516 62.8474 137.966 62.2442 142.905 61.9991Z" fill="#66B8FF"/>
<path d="M203.047 101.83C213.737 113.065 230.705 122.226 248.841 126.053C248.86 127.259 248.935 133.933 249.275 164.659C249.727 205.659 210.645 225.961 204.593 229.071C198.673 226.413 158.837 206.658 158.385 165.658C158.045 134.913 157.97 128.259 157.951 127.052C175.993 122.83 192.603 113.31 203.047 101.83Z" fill="white"/>
<path d="M203.197 109.257C213.642 118.664 228.083 126.034 243.939 129.993L244.316 164.734C244.485 180.625 238.245 195.046 225.746 207.6C217.526 215.838 208.872 220.984 204.479 223.303C204.291 223.208 204.084 223.095 203.876 223.001L203.122 109.352C203.141 109.295 203.16 109.276 203.197 109.257Z" fill="#007880"/>
<path d="M203.103 109.334L203.858 222.983C199.257 220.646 190.887 215.782 182.836 208.072C170.054 195.801 163.493 181.512 163.305 165.621L162.928 130.88C178.651 126.582 192.885 118.929 203.103 109.334Z" fill="#008F99"/>
<path d="M185.061 159.531L185.23 186.45C185.249 189.447 222.012 189.202 221.993 186.205L221.824 159.286L185.061 159.531ZM198.955 169.598C198.936 167.109 200.954 165.073 203.461 165.055C205.968 165.036 208.023 167.034 208.042 169.541C208.061 171.37 206.949 172.953 205.384 173.669L205.441 181.323C205.441 182.34 204.63 183.189 203.593 183.189C202.575 183.189 201.727 182.359 201.727 181.341L201.67 173.707C200.067 173.01 198.974 171.445 198.955 169.598Z" fill="white"/>
<path d="M188.266 157.59L191.98 157.571L191.961 155.761C191.923 149.484 197.013 144.338 203.329 144.3C209.645 144.263 214.811 149.333 214.848 155.611L214.867 157.42L218.581 157.401L218.562 155.592C218.506 147.26 211.662 140.549 203.291 140.606C194.94 140.662 188.171 147.467 188.228 155.799L188.266 157.59Z" fill="white"/>
</g>
<defs>
<clipPath id="clip0">
<rect width="499" height="326" fill="white"/>
</clipPath>
</defs>
</svg>
