<svg width="24" height="24" viewBox="0 0 24 24" fill="none" xmlns="http://www.w3.org/2000/svg">
<path d="M10.0086 21.9579C9.60006 21.9579 9.19155 21.6515 9.19155 21.1408V20.4259H14.8086V21.243C14.8086 21.6515 14.5022 22.06 13.9916 22.06H10.0086V21.9579ZM8.9873 17.8728C8.57879 17.8728 8.17028 17.5664 8.17028 17.0557V14.6047L8.06815 14.5025C6.22985 13.277 5.10645 11.1323 5.10645 8.98765C5.10645 5.1068 8.17028 2.04297 12.0511 2.04297C15.8299 2.04297 18.9958 5.1068 18.9958 8.98765C18.9958 11.2345 17.8724 13.3791 16.0341 14.6047L15.932 14.7068V17.1579C15.932 17.5664 15.6256 17.9749 15.115 17.9749H8.9873V17.8728ZM9.70219 16.3408H14.2979V13.8898L15.0128 13.3791C16.4426 12.3579 17.3618 10.7238 17.3618 8.98765C17.3618 6.02595 14.9107 3.57488 11.949 3.57488C8.9873 3.57488 6.53623 6.02595 6.53623 8.98765C6.53623 10.7238 7.35325 12.3579 8.88517 13.3791L9.60006 13.8898V16.3408H9.70219Z" fill="#5F47E6"/>
</svg>
