<svg width="24" height="21" viewBox="0 0 24 21" fill="none" xmlns="http://www.w3.org/2000/svg">
<g clip-path="url(#clip0)">
<path d="M12.2789 15.0211H14.8853V19.9326C14.8853 20.4749 15.3222 20.9119 15.8646 20.9119H18.4258C18.9681 20.9119 19.405 20.4749 19.405 19.9326V15.0211H22.0114C22.2073 15.0211 22.373 14.9006 22.4484 14.7348C22.5237 14.554 22.4785 14.3582 22.3429 14.2226L17.4766 9.3563C17.3862 9.2659 17.2657 9.2207 17.1452 9.2207C17.0246 9.2207 16.9041 9.2659 16.8137 9.3563L11.9474 14.2377C11.8118 14.3732 11.7666 14.5691 11.842 14.7499C11.9323 14.9156 12.0981 15.0211 12.2789 15.0211Z" fill="#343434"/>
<path d="M21.2279 0H2.77213C1.25047 0 0 1.25047 0 2.77213V15.0659C0 16.6026 1.25047 17.838 2.77213 17.838H10.4105V16.3917H2.77213C2.0339 16.3917 1.44633 15.8041 1.44633 15.0659V12.7156H7.12618C8.51224 12.7156 9.64218 11.5857 9.64218 10.1996V7.63842C9.64218 6.25235 8.51224 5.12241 7.12618 5.12241H1.44633V2.77213C1.44633 2.0339 2.0339 1.44633 2.77213 1.44633H21.2128C21.951 1.44633 22.5386 2.0339 22.5386 2.77213V7.66855L22.5085 12.2787H23.9849V2.77213C24 1.25047 22.7495 0 21.2279 0ZM5.84557 6.56874C7.14124 6.56874 8.19586 7.62335 8.19586 8.91902C8.19586 10.2147 7.14124 11.2693 5.84557 11.2693C4.54991 11.2693 3.49529 10.2147 3.49529 8.91902C3.49529 7.62335 4.54991 6.56874 5.84557 6.56874Z" fill="#343434"/>
</g>
<defs>
<clipPath id="clip0">
<rect width="24" height="20.9266" fill="white"/>
</clipPath>
</defs>
</svg>
