<svg width="62" height="62" viewBox="0 0 62 62" fill="none" xmlns="http://www.w3.org/2000/svg">
<circle cx="31" cy="31" r="31" fill="#5F47E6"/>
<path d="M33.12 23L34.95 25H39V37H23V25H27.05L28.88 23H33.12ZM34 21H28L26.17 23H23C21.9 23 21 23.9 21 25V37C21 38.1 21.9 39 23 39H39C40.1 39 41 38.1 41 37V25C41 23.9 40.1 23 39 23H35.83L34 21ZM31 28C32.65 28 34 29.35 34 31C34 32.65 32.65 34 31 34C29.35 34 28 32.65 28 31C28 29.35 29.35 28 31 28ZM31 26C28.24 26 26 28.24 26 31C26 33.76 28.24 36 31 36C33.76 36 36 33.76 36 31C36 28.24 33.76 26 31 26Z" fill="white"/>
</svg>
