<svg width="24" height="24" viewBox="0 0 24 24" fill="none" xmlns="http://www.w3.org/2000/svg">
<g clip-path="url(#clip0)">
<path d="M9.24507 7.99437H1.75775C0.777464 7.99437 0 7.2169 0 6.25352V1.75775C0 0.777465 0.777464 0 1.75775 0H9.26197C10.2253 0 11.0197 0.777465 11.0197 1.75775V6.25352C11.0028 7.2169 10.2084 7.99437 9.24507 7.99437ZM1.75775 1.50423C1.62253 1.50423 1.50422 1.62254 1.50422 1.75775V6.25352C1.50422 6.38873 1.62253 6.50704 1.75775 6.50704H9.26197C9.39718 6.50704 9.51549 6.38873 9.51549 6.25352V1.75775C9.51549 1.62254 9.39718 1.50423 9.26197 1.50423H1.75775Z" fill="#5F47E6"/>
<path d="M9.24507 24H1.75775C0.777464 24 0 23.2225 0 22.2423V11.7465C0 10.7831 0.777464 9.98874 1.75775 9.98874H9.26197C10.2253 9.98874 11.0197 10.7662 11.0197 11.7465V22.2423C11.0028 23.2225 10.2084 24 9.24507 24ZM1.75775 11.493C1.62253 11.493 1.50422 11.6113 1.50422 11.7465V22.2423C1.50422 22.3775 1.62253 22.4958 1.75775 22.4958H9.26197C9.39718 22.4958 9.51549 22.3775 9.51549 22.2423V11.7465C9.51549 11.6113 9.39718 11.493 9.26197 11.493H1.75775Z" fill="#5F47E6"/>
<path d="M22.2423 24H14.7549C13.7916 24 12.9972 23.2225 12.9972 22.2423V17.7465C12.9972 16.7831 13.7747 15.9887 14.7549 15.9887H22.2592C23.2225 15.9887 24.0169 16.7662 24.0169 17.7465V22.2423C24 23.2225 23.2225 24 22.2423 24ZM14.7549 17.493C14.6197 17.493 14.5014 17.6113 14.5014 17.7465V22.2423C14.5014 22.3775 14.6197 22.4958 14.7549 22.4958H22.2592C22.3944 22.4958 22.5127 22.3775 22.5127 22.2423V17.7465C22.5127 17.6113 22.3944 17.493 22.2592 17.493H14.7549Z" fill="#5F47E6"/>
<path d="M22.2423 13.9944H14.7549C13.7916 13.9944 12.9972 13.2169 12.9972 12.2366V1.75775C12.9972 0.777465 13.7916 0 14.7549 0H22.2592C23.2225 0 24.0169 0.777465 24.0169 1.75775V12.2535C24 13.2169 23.2225 13.9944 22.2423 13.9944ZM14.7549 1.50423C14.6197 1.50423 14.5014 1.62254 14.5014 1.75775V12.2535C14.5014 12.3887 14.6197 12.507 14.7549 12.507H22.2592C22.3944 12.507 22.5127 12.3887 22.5127 12.2535V1.75775C22.5127 1.62254 22.3944 1.50423 22.2592 1.50423H14.7549Z" fill="#5F47E6"/>
</g>
<defs>
<clipPath id="clip0">
<rect width="24" height="24" fill="white"/>
</clipPath>
</defs>
</svg>
