<svg width="24" height="21" viewBox="0 0 24 21" fill="none" xmlns="http://www.w3.org/2000/svg">
<path fill-rule="evenodd" clip-rule="evenodd" d="M0 2.45962C0 1.1117 1.07263 0 2.41897 0H19.4941C20.8405 0 21.913 1.1117 21.913 2.45962V7.82609C21.913 8.11419 21.6794 8.34783 21.3913 8.34783C21.1032 8.34783 20.8696 8.11419 20.8696 7.82609V2.45962C20.8696 1.66703 20.2434 1.04348 19.4941 1.04348H2.41897C1.66968 1.04348 1.04348 1.66703 1.04348 2.45962V12.1491C1.04348 12.9416 1.66968 13.5652 2.41897 13.5652H9.91304C10.2011 13.5652 10.4348 13.7989 10.4348 14.087C10.4348 14.3751 10.2011 14.6087 9.91304 14.6087H2.41897C1.07263 14.6087 0 13.497 0 12.1491V2.45962Z" fill="#343434"/>
<path fill-rule="evenodd" clip-rule="evenodd" d="M0 3.65211C0 3.36397 0.233591 3.13037 0.521739 3.13037H21.3913C21.6794 3.13037 21.913 3.36397 21.913 3.65211C21.913 3.94026 21.6794 4.17386 21.3913 4.17386H0.521739C0.233591 4.17386 0 3.94026 0 3.65211Z" fill="#343434"/>
<path fill-rule="evenodd" clip-rule="evenodd" d="M2.08691 8.86963C2.08691 8.58153 2.32051 8.3479 2.60865 8.3479H4.69561C4.98376 8.3479 5.21735 8.58153 5.21735 8.86963C5.21735 9.15774 4.98376 9.39137 4.69561 9.39137H2.60865C2.32051 9.39137 2.08691 9.15774 2.08691 8.86963Z" fill="#343434"/>
<path fill-rule="evenodd" clip-rule="evenodd" d="M2.08691 11.4783C2.08691 11.1902 2.32051 10.9565 2.60865 10.9565H6.78257C7.07071 10.9565 7.30431 11.1902 7.30431 11.4783C7.30431 11.7664 7.07071 12 6.78257 12H2.60865C2.32051 12 2.08691 11.7664 2.08691 11.4783Z" fill="#343434"/>
<path fill-rule="evenodd" clip-rule="evenodd" d="M18.2611 10.4348C15.6677 10.4348 13.5654 12.5371 13.5654 15.1305C13.5654 17.7238 15.6677 19.8261 18.2611 19.8261C20.8544 19.8261 22.9567 17.7238 22.9567 15.1305C22.9567 12.5371 20.8544 10.4348 18.2611 10.4348ZM12.522 15.1305C12.522 11.9608 15.0914 9.39136 18.2611 9.39136C21.4308 9.39136 24.0002 11.9608 24.0002 15.1305C24.0002 18.3001 21.4308 20.8696 18.2611 20.8696C15.0914 20.8696 12.522 18.3001 12.522 15.1305Z" fill="#343434"/>
<path fill-rule="evenodd" clip-rule="evenodd" d="M19.9788 14.2397C20.1825 14.036 20.5129 14.036 20.7167 14.2397C20.9204 14.4435 20.9204 14.7738 20.7167 14.9776L18.6297 17.0646C18.426 17.2683 18.0956 17.2683 17.8918 17.0646L16.3266 15.4994C16.1229 15.2956 16.1229 14.9652 16.3266 14.7614C16.5304 14.5577 16.8607 14.5577 17.0645 14.7614L18.2608 15.9578L19.9788 14.2397Z" fill="#343434"/>
</svg>
