<svg width="24" height="21" viewBox="0 0 24 21" fill="none" xmlns="http://www.w3.org/2000/svg">
<g clip-path="url(#clip0)">
<path d="M12.2787 15.0207H14.8851V19.9322C14.8851 20.4746 15.3221 20.9115 15.8644 20.9115H18.4256C18.968 20.9115 19.4049 20.4746 19.4049 19.9322V15.0207H22.0113C22.2072 15.0207 22.3729 14.9002 22.4482 14.7345C22.5236 14.5537 22.4784 14.3578 22.3428 14.2222L17.4765 9.35593C17.3861 9.26553 17.2656 9.22034 17.145 9.22034C17.0245 9.22034 16.904 9.26553 16.8136 9.35593L11.9473 14.2373C11.8117 14.3729 11.7665 14.5687 11.8418 14.7495C11.9322 14.9153 12.098 15.0207 12.2787 15.0207Z" fill="#343434"/>
<path d="M21.2279 0H2.77213C1.25047 0 0 1.25047 0 2.77213V15.0659C0 16.6026 1.25047 17.838 2.77213 17.838H10.4105V16.3917H2.77213C2.0339 16.3917 1.44633 15.8041 1.44633 15.0659V12.7156H7.12618C8.51224 12.7156 9.64218 11.5857 9.64218 10.1996V7.63842C9.64218 6.25235 8.51224 5.12241 7.12618 5.12241H1.44633V2.77213C1.44633 2.0339 2.0339 1.44633 2.77213 1.44633H21.2128C21.951 1.44633 22.5386 2.0339 22.5386 2.77213V7.66855L22.5085 12.2787H23.9849V2.77213C24 1.25047 22.7495 0 21.2279 0ZM5.84557 6.56874C7.14124 6.56874 8.19586 7.62335 8.19586 8.91902C8.19586 10.2147 7.14124 11.2693 5.84557 11.2693C4.54991 11.2693 3.49529 10.2147 3.49529 8.91902C3.49529 7.62335 4.54991 6.56874 5.84557 6.56874Z" fill="#343434"/>
</g>
<defs>
<clipPath id="clip0">
<rect width="24" height="20.9266" fill="white"/>
</clipPath>
</defs>
</svg>
