<svg width="11" height="6" viewBox="0 0 11 6" fill="none" xmlns="http://www.w3.org/2000/svg">
<path d="M10.1311 0.733259C10.1981 0.800223 10.2316 0.877232 10.2316 0.964285C10.2316 1.05134 10.1981 1.12835 10.1311 1.19531L5.45034 5.87612C5.38337 5.94308 5.30636 5.97656 5.21931 5.97656C5.13225 5.97656 5.05525 5.94308 4.98828 5.87612L0.307478 1.19531C0.240513 1.12835 0.207031 1.05134 0.207031 0.964285C0.207031 0.877232 0.240513 0.800223 0.307478 0.733259L0.80971 0.231026C0.876674 0.164062 0.953683 0.13058 1.04074 0.13058C1.12779 0.13058 1.2048 0.164062 1.27176 0.231026L5.21931 4.17857L9.16685 0.231026C9.23382 0.164062 9.31083 0.13058 9.39788 0.13058C9.48493 0.13058 9.56194 0.164062 9.62891 0.231026L10.1311 0.733259Z" fill="black"/>
</svg>
