<svg width="24" height="33" viewBox="0 0 24 33" fill="none" xmlns="http://www.w3.org/2000/svg">
<path d="M16.2244 17.0342L11.9967 26.6638L7.76912 17.0342H16.2244Z" fill="#343434"/>
<path d="M18.2748 17.0342H23.6522L15.2879 24.0045L18.2748 17.0342Z" fill="#343434"/>
<path d="M11.9968 10.1202L15.7683 15.1484H8.22524L11.9968 10.1202Z" fill="#343434"/>
<path d="M5.71806 17.0342L8.70496 24.0045L0.340595 17.0342H5.71806Z" fill="#343434"/>
<path d="M23.7015 15.1485H18.1252L13.8827 9.49137H18.0444L23.7015 15.1485Z" fill="#343434"/>
<path d="M0.292046 15.1485L5.94916 9.49137H10.1108L5.86838 15.1485H0.292046Z" fill="#343434"/>
<path d="M12.9399 0H11.0542V3.83427H12.9399V0Z" fill="#343434"/>
<path d="M12.9399 28.3484H11.0542V32.1827H12.9399V28.3484Z" fill="#343434"/>
<path d="M24.0001 26.7559L21.334 24.0898L20.0009 25.4228L22.6671 28.0889L24.0001 26.7559Z" fill="#343434"/>
<path d="M3.99939 6.7598L1.33327 4.09368L0.000211649 5.42674L2.66633 8.09286L3.99939 6.7598Z" fill="#343434"/>
<path d="M4.00171 25.4254L2.66865 24.0923L0.00253014 26.7584L1.33559 28.0915L4.00171 25.4254Z" fill="#343434"/>
<path d="M23.9977 5.42456L22.6646 4.0915L19.9985 6.75762L21.3316 8.09068L23.9977 5.42456Z" fill="#343434"/>
</svg>
