<svg width="24" height="22" viewBox="0 0 24 22" fill="none" xmlns="http://www.w3.org/2000/svg">
<g clip-path="url(#clip0)">
<path d="M2.62173 21.0677C2.30128 21.0677 2.04395 20.8104 2.04395 20.4899V14.4499C2.04395 14.1294 2.30128 13.8721 2.62173 13.8721H7.23918C7.55963 13.8721 7.81697 14.1294 7.81697 14.4499V20.4899C7.81697 20.8104 7.55963 21.0677 7.23918 21.0677H2.62173ZM6.66139 19.9073V15.0325H3.19952V19.9073H6.66139Z" fill="#343434"/>
<path d="M7.23909 20.8244H2.62164C2.43714 20.8244 2.28662 20.6738 2.28662 20.4893V14.4493C2.28662 14.2648 2.43714 14.1143 2.62164 14.1143H7.23909C7.42359 14.1143 7.57411 14.2648 7.57411 14.4493V20.4893C7.57411 20.6738 7.42359 20.8244 7.23909 20.8244ZM2.95666 20.1495H6.89921V14.7892H2.95666V20.1495Z" fill="#343434"/>
<path d="M7.23892 21.0677C6.91847 21.0677 6.66113 20.8103 6.66113 20.4899V11.8522C6.66113 11.5317 6.91847 11.2744 7.23892 11.2744H11.8564C12.1768 11.2744 12.4342 11.5317 12.4342 11.8522V20.4899C12.4342 20.8103 12.1768 21.0677 11.8564 21.0677H7.23892ZM11.2786 19.9072V12.43H7.81671V19.9072H11.2786Z" fill="#343434"/>
<path d="M11.8567 20.8243H7.23932C7.05481 20.8243 6.9043 20.6738 6.9043 20.4893V11.8516C6.9043 11.6671 7.05481 11.5166 7.23932 11.5166H11.8567C12.0412 11.5166 12.1918 11.6671 12.1918 11.8516V20.4893C12.1918 20.6738 12.0412 20.8243 11.8567 20.8243ZM7.57433 20.1494H11.5169V12.1866H7.57433V20.1494Z" fill="#343434"/>
<path d="M11.8571 21.0669C11.5366 21.0669 11.2793 20.8096 11.2793 20.4891V9.12759C11.2793 8.80714 11.5366 8.5498 11.8571 8.5498H16.4745C16.795 8.5498 17.0523 8.80714 17.0523 9.12759V20.4891C17.0523 20.8096 16.795 21.0669 16.4745 21.0669H11.8571ZM15.8919 19.9065V9.70538H12.4349V19.9065H15.8919Z" fill="#343434"/>
<path d="M16.4744 20.8245H11.857C11.6725 20.8245 11.522 20.674 11.522 20.4895V9.12799C11.522 8.94348 11.6725 8.79297 11.857 8.79297H16.4744C16.6589 8.79297 16.8095 8.94348 16.8095 9.12799V20.4895C16.8095 20.674 16.6589 20.8245 16.4744 20.8245ZM12.192 20.1496H16.1346V9.46301H12.192V20.1496Z" fill="#343434"/>
<path d="M21.0871 15.9596C20.7666 15.9596 20.5093 15.7022 20.5093 15.3818V14.3961C20.5093 14.0757 20.7666 13.8184 21.0871 13.8184C21.4075 13.8184 21.6649 14.0757 21.6649 14.3961V15.3818C21.6649 15.6974 21.4075 15.9596 21.0871 15.9596Z" fill="#343434"/>
<path d="M21.087 15.7162C20.9025 15.7162 20.752 15.5657 20.752 15.3812V14.3956C20.752 14.2111 20.9025 14.0605 21.087 14.0605C21.2715 14.0605 21.422 14.2111 21.422 14.3956V15.3812C21.422 15.5657 21.2715 15.7162 21.087 15.7162Z" fill="#343434"/>
<path d="M16.4743 21.0674C16.1538 21.0674 15.8965 20.81 15.8965 20.4896V5.79729H14.1437C13.9883 5.79729 13.8427 5.73903 13.7359 5.62735C13.6242 5.51568 13.5659 5.37487 13.5659 5.2195C13.5659 5.06413 13.6242 4.91847 13.7359 4.81165L18.3776 0.169937C18.4892 0.0582642 18.63 0 18.7854 0C18.9408 0 19.0865 0.0582642 19.1933 0.169937L23.8301 4.8068C23.9418 4.91847 24.0001 5.05928 24.0001 5.21465C24.0001 5.37002 23.9418 5.51568 23.8301 5.6225C23.7185 5.73417 23.5777 5.79243 23.4223 5.79243H21.6646V8.70079C21.6646 9.02124 21.4073 9.27858 21.0869 9.27858C20.7664 9.27858 20.5091 9.02124 20.5091 8.70079V5.21465C20.5091 4.89419 20.7664 4.63686 21.0869 4.63686H22.0239L18.7806 1.39349L15.5372 4.63686H16.4694C16.7899 4.63686 17.0472 4.89419 17.0472 5.21465V19.9069H20.5042V17.7366C20.5042 17.4161 20.7615 17.1588 21.082 17.1588C21.4025 17.1588 21.6598 17.4161 21.6598 17.7366V20.4896C21.6598 20.81 21.4025 21.0674 21.082 21.0674H16.4743Z" fill="#343434"/>
<path d="M21.0867 20.8243H16.4693C16.2848 20.8243 16.1343 20.6737 16.1343 20.4892V5.55418H14.1387C13.9542 5.55418 13.8037 5.40366 13.8037 5.21916C13.8037 5.13176 13.8377 5.04437 13.9008 4.98125L18.5425 0.339532C18.6736 0.208437 18.8873 0.208437 19.0184 0.339532L23.6601 4.98125C23.7912 5.11234 23.7912 5.32598 23.6601 5.45707C23.597 5.52019 23.5096 5.55418 23.4222 5.55418H21.4218V8.7053C21.4218 8.8898 21.2712 9.04032 21.0867 9.04032C20.9022 9.04032 20.7517 8.8898 20.7517 8.7053V5.21916C20.7517 5.03466 20.9022 4.88414 21.0867 4.88414H22.6113L18.7804 1.05327L14.9496 4.88414H16.4693C16.6538 4.88414 16.8043 5.03466 16.8043 5.21916V20.1494H20.7469V17.7363C20.7469 17.5518 20.8974 17.4012 21.0819 17.4012C21.2664 17.4012 21.4169 17.5518 21.4169 17.7363V20.4892C21.4218 20.6737 21.2712 20.8243 21.0867 20.8243Z" fill="#343434"/>
<path d="M21.0871 12.6236C20.7666 12.6236 20.5093 12.3663 20.5093 12.0458V11.0553C20.5093 10.7349 20.7666 10.4775 21.0871 10.4775C21.4075 10.4775 21.6649 10.7349 21.6649 11.0553V12.0458C21.6649 12.3614 21.4075 12.6236 21.0871 12.6236Z" fill="#343434"/>
<path d="M21.087 12.3812C20.9025 12.3812 20.752 12.2307 20.752 12.0462V11.0557C20.752 10.8712 20.9025 10.7207 21.087 10.7207C21.2715 10.7207 21.422 10.8712 21.422 11.0557V12.0462C21.422 12.2307 21.2715 12.3812 21.087 12.3812Z" fill="#343434"/>
<path d="M0.577787 21.0677C0.257334 21.0677 0 20.8055 0 20.4899C0 20.1743 0.257334 19.9072 0.577787 19.9072H23.3348C23.6553 19.9072 23.9126 20.1646 23.9126 20.485C23.9126 20.8055 23.6553 21.0628 23.3348 21.0628H0.577787V21.0677Z" fill="#343434"/>
<path d="M23.3347 20.8243H0.577695C0.393192 20.8243 0.242676 20.6738 0.242676 20.4893C0.242676 20.3048 0.393192 20.1543 0.577695 20.1543H23.3347C23.5192 20.1543 23.6697 20.3048 23.6697 20.4893C23.6697 20.6738 23.5192 20.8243 23.3347 20.8243Z" fill="#343434"/>
</g>
<defs>
<clipPath id="clip0">
<rect width="24" height="21.0674" fill="white"/>
</clipPath>
</defs>
</svg>
