<svg width="24" height="24" viewBox="0 0 24 24" fill="none" xmlns="http://www.w3.org/2000/svg">
<path d="M22.5884 10.0127V18.2231C23.4081 17.9309 24.0001 17.1547 24.0001 16.2355V12.0003C24.0001 11.0813 23.4081 10.3051 22.5884 10.0127Z" fill="#343434"/>
<path d="M11.9998 0C6.94 0 2.82324 4.11676 2.82324 9.17651V17.647C2.82324 18.8148 3.77319 19.7648 4.94086 19.7648C6.1087 19.7648 7.05865 18.8148 7.05865 17.647V10.5883C7.05865 9.42059 6.1087 8.47064 4.94086 8.47064C4.70319 8.47064 4.47833 8.5188 4.26465 8.59131C4.56586 4.58295 7.91632 1.41174 11.9998 1.41174C16.081 1.41174 19.4305 4.58002 19.7345 8.58563C19.5221 8.51294 19.296 8.47064 19.0587 8.47064C17.8908 8.47064 16.9409 9.42059 16.9409 10.5883V17.647C16.9409 18.8148 17.8908 19.7648 19.0587 19.7648C19.3073 19.7648 19.5426 19.7139 19.7645 19.6348V20.4706C19.7645 20.8601 19.4474 21.1765 19.0587 21.1765H13.9874C13.6949 20.3566 12.9188 19.7648 11.9998 19.7648C10.8321 19.7648 9.88214 20.7147 9.88214 21.8824C9.88214 23.05 10.8321 24 11.9998 24C12.9188 24 13.6949 23.408 13.9874 22.5883H19.0587C20.2263 22.5883 21.1763 21.6383 21.1763 20.4706C21.1763 16.2248 21.1763 13.4269 21.1763 9.17651C21.1763 4.11676 17.0595 0 11.9998 0V0Z" fill="#343434"/>
<path d="M0 12.0003V16.2355C0 17.1547 0.59198 17.9309 1.41174 18.2231V10.0127C0.59198 10.3051 0 11.0813 0 12.0003Z" fill="#343434"/>
</svg>
