<svg width="56" height="56" viewBox="0 0 56 56" fill="none" xmlns="http://www.w3.org/2000/svg">
<rect width="56" height="56" rx="4" fill="white"/>
<path d="M18 32C17.4477 32 17 32.4477 17 33C17 33.5523 17.4477 34 18 34V32ZM21 25H20H21ZM35 25H36H35ZM29.73 37L30.595 37.5018C30.7744 37.1924 30.775 36.8108 30.5965 36.5009C30.418 36.191 30.0876 36 29.73 36V37ZM26.27 37V36C25.9124 36 25.582 36.191 25.4035 36.5009C25.225 36.8108 25.2256 37.1924 25.405 37.5018L26.27 37ZM38 32H18V34H38V32ZM18 34C20.2091 34 22 32.2091 22 30H20C20 31.1046 19.1046 32 18 32V34ZM22 30V25H20V30H22ZM22 25C22 21.6863 24.6863 19 28 19V17C23.5817 17 20 20.5817 20 25H22ZM28 19C31.3137 19 34 21.6863 34 25H36C36 20.5817 32.4183 17 28 17V19ZM34 25V30H36V25H34ZM34 30C34 32.2091 35.7909 34 38 34V32C36.8954 32 36 31.1046 36 30H34ZM28.865 36.4982C28.6861 36.8066 28.3565 36.9965 28 36.9965V38.9965C29.0696 38.9965 30.0583 38.427 30.595 37.5018L28.865 36.4982ZM28 36.9965C27.6435 36.9965 27.3139 36.8066 27.135 36.4982L25.405 37.5018C25.9417 38.427 26.9304 38.9965 28 38.9965V36.9965ZM26.27 38H29.73V36H26.27V38Z" fill="#333333"/>
<circle cx="40" cy="12" r="4" fill="#007AFF"/>
</svg>
