<svg width="24" height="24" viewBox="0 0 24 24" fill="none" xmlns="http://www.w3.org/2000/svg">
<path d="M20.4923 15.5077C19.1832 14.1986 17.6224 13.2252 15.9273 12.6545C17.7399 11.3958 18.9315 9.31468 18.9315 6.93147C18.9315 3.1049 15.8266 0 12 0C8.17343 0 5.06853 3.1049 5.06853 6.93147C5.06853 9.2979 6.26014 11.3958 8.07273 12.6545C6.37762 13.242 4.81678 14.2154 3.50769 15.5077C1.24196 17.7734 0 20.7944 0 24H1.87972C1.87972 18.4112 6.42797 13.8797 12 13.8797C17.572 13.8797 22.1203 18.428 22.1203 24H24C24 20.7944 22.758 17.7734 20.4923 15.5077ZM12 12C9.21399 12 6.93147 9.73427 6.93147 6.93147C6.93147 4.12867 9.1972 1.86294 12 1.86294C14.8028 1.86294 17.0685 4.12867 17.0685 6.93147C17.0685 9.73427 14.786 12 12 12Z" fill="#343434"/>
</svg>
