<svg width="166" height="166" viewBox="0 0 166 166" fill="none" xmlns="http://www.w3.org/2000/svg">
<g opacity="0.77" clip-path="url(#clip0)">
<path d="M122.37 77.4666H43.6302C39.3975 77.4666 35.9663 80.8978 35.9663 85.1304V150.036C35.9663 154.269 39.3975 157.7 43.6302 157.7H122.369C126.602 157.7 130.033 154.269 130.033 150.036V85.1304C130.033 80.8978 126.602 77.4666 122.37 77.4666ZM124.5 135.567V149.4C124.5 150.928 123.261 152.167 121.733 152.167H86.929L84.9645 154.131C84.4425 154.649 83.7357 154.938 83.0001 154.933H82.7232C81.8971 154.843 81.1556 154.385 80.7033 153.688L79.6797 152.167H50.6852C45.6274 152.182 41.515 148.094 41.4998 143.037C41.4998 143.018 41.4998 143 41.4998 142.981V85.7666C41.4998 84.2385 42.7386 82.9997 44.2666 82.9997H73.0676C79.1746 79.3084 86.8252 79.3084 92.9322 82.9997H115.066C120.276 82.9997 124.5 87.2236 124.5 92.4341V135.567Z" fill="#FF7D00"/>
<path d="M166 124.501H160.466V138.334H166V124.501Z" fill="#42210B"/>
<path d="M166 80.2334H160.466V94.0668H166V80.2334Z" fill="#42210B"/>
<path d="M160.466 110.667V107.9H157.7V110.667H160.466ZM163.233 116.2H154.933C153.405 116.2 152.166 114.961 152.166 113.433V105.133C152.166 103.605 153.405 102.367 154.933 102.367H163.233C164.761 102.367 165.999 103.605 165.999 105.133V113.433C166 114.961 164.761 116.2 163.233 116.2Z" fill="#42210B"/>
<path d="M160.466 154.933V152.166H157.7V154.933H160.466ZM163.233 160.466H154.933C153.405 160.466 152.166 159.227 152.166 157.699V149.399C152.166 147.871 153.405 146.633 154.933 146.633H163.233C164.761 146.633 165.999 147.871 165.999 149.399V157.699C166 159.228 164.761 160.466 163.233 160.466Z" fill="#42210B"/>
<path d="M154.934 33.2012H149.4V47.0346H154.934V33.2012Z" fill="#42210B"/>
<path d="M149.4 55.3331H157.7C159.228 55.3331 160.467 56.572 160.467 58.1V66.4C160.467 67.9281 159.228 69.1669 157.7 69.1669H149.4C147.872 69.1669 146.633 67.9281 146.633 66.4V58.1C146.633 56.572 147.872 55.3331 149.4 55.3331ZM154.933 63.6335V60.8666H152.166V63.6335H154.933Z" fill="#42210B"/>
<path d="M146.633 146.632H141.1V160.466H146.633V146.632Z" fill="#42210B"/>
<path d="M146.633 102.365H141.1V116.199H146.633V102.365Z" fill="#42210B"/>
<path d="M149.4 88.533V85.7662H146.633V88.533H149.4ZM152.166 94.0665H143.866C142.338 94.0665 141.1 92.8276 141.1 91.2999V82.9999C141.1 81.4719 142.338 80.233 143.866 80.233H152.166C153.695 80.233 154.933 81.4719 154.933 82.9999V91.2999C154.933 92.828 153.695 94.0665 152.166 94.0665Z" fill="#42210B"/>
<path d="M149.4 132.8V130.033H146.633V132.8H149.4ZM152.166 138.333H143.866C142.338 138.333 141.1 137.095 141.1 135.567V127.267C141.1 125.739 142.338 124.5 143.866 124.5H152.166C153.695 124.5 154.933 125.739 154.933 127.267V135.567C154.933 137.095 153.695 138.333 152.166 138.333Z" fill="#42210B"/>
<path d="M141.1 55.3331H135.566V69.1666H141.1V55.3331Z" fill="#42210B"/>
<path d="M138.333 41.5V38.7331H135.567V41.5H138.333ZM143.866 35.9668V44.2668C143.866 45.7949 142.628 47.0337 141.1 47.0337H132.8C131.272 47.0337 130.033 45.7949 130.033 44.2668V35.9668C130.033 34.4388 131.272 33.2 132.8 33.2H141.1C142.628 33.2 143.866 34.4385 143.866 35.9668Z" fill="#42210B"/>
<path d="M124.5 92.4341V135.567H118.966V146.633H107.9V152.167H86.9287L96.0311 143.064C97.116 141.988 97.1231 140.236 96.047 139.151C96.0415 139.146 96.0363 139.141 96.0311 139.136L92.4346 135.567L96.0311 131.998C97.116 130.921 97.1231 129.17 96.047 128.085C96.0415 128.079 96.0363 128.074 96.0311 128.069L91.2998 123.366V117.085C98.0546 113.882 102.362 107.076 102.366 99.6003C102.409 98.9464 102.409 98.2902 102.366 97.6359C102.366 97.027 102.228 96.4463 102.117 95.8653V95.4503L101.592 94.0669C101.229 92.9039 100.766 91.7747 100.208 90.6914C100.101 90.4405 99.9714 90.1999 99.8209 89.972L99.5995 89.6676C99.2643 89.0473 98.8655 88.4628 98.4099 87.9246C98.1778 87.6068 97.9285 87.3021 97.6629 87.0116C97.4049 86.7162 97.128 86.4121 96.8329 86.0986C96.5586 85.8006 96.2626 85.5231 95.9478 85.2686C95.6645 84.9865 95.359 84.7274 95.0348 84.494C94.3796 83.947 93.6864 83.4477 92.9598 83H115.093C120.293 83.0152 124.5 87.2346 124.5 92.4341Z" fill="#FF9900"/>
<path d="M121.733 152.166H107.9V146.633H118.966V135.566H124.5V149.4C124.5 150.928 123.261 152.166 121.733 152.166Z" fill="#42210B"/>
<path d="M100.208 90.7465C100.208 90.4975 99.9592 90.2764 99.8208 90.0271C99.9712 90.255 100.101 90.4956 100.208 90.7465Z" fill="#FF9900"/>
<path d="M98.4102 87.9247C98.8657 88.4629 99.2645 89.0471 99.5997 89.6677C99.2548 89.0533 98.8566 88.47 98.4102 87.9247Z" fill="#FF9900"/>
<path d="M97.6079 86.9288C97.8731 87.2193 98.1228 87.5241 98.3549 87.8418C98.1228 87.5238 97.8731 87.219 97.6079 86.9288Z" fill="#FF9900"/>
<path d="M95.8926 85.1859C96.2074 85.4407 96.5034 85.718 96.7777 86.0159L95.8926 85.1859Z" fill="#FF9900"/>
<path d="M95.8925 85.1859L94.9795 84.4114C95.3037 84.6448 95.6091 84.9035 95.8925 85.1859Z" fill="#FF9900"/>
<path d="M94.0681 33.2013H88.5347V47.0347H94.0681V33.2013Z" fill="#42210B"/>
<path d="M94.869 84.3001C94.2601 83.8575 93.624 83.415 92.96 82.9996C93.6236 83.3916 94.261 83.8261 94.869 84.3001Z" fill="#FF9900"/>
<path d="M91.3003 63.6335V60.8666H88.5335V63.6335H91.3003ZM94.0669 55.3331C95.5949 55.3331 96.8338 56.572 96.8338 58.1V66.4C96.8338 67.9281 95.5949 69.1669 94.0669 69.1669H85.7669C84.2388 69.1669 83 67.9281 83 66.4V58.1C83 56.572 84.2388 55.3331 85.7669 55.3331H94.0669Z" fill="#42210B"/>
<path d="M82.9998 16.6C67.72 16.6 55.3332 28.9868 55.3332 44.2666V71.9331H47.0332V44.2666C47.0332 24.4027 63.1362 8.29968 83.0001 8.29968C102.864 8.29968 118.967 24.4027 118.967 44.2666V71.9331H110.667V44.2666C110.667 28.9868 98.2799 16.6 82.9998 16.6Z" fill="#FFF8EF"/>
<path d="M113.433 71.9331V44.2665C113.433 27.4584 99.8078 13.8331 82.9996 13.8331C66.1915 13.8331 52.5662 27.4584 52.5662 44.2665V71.9331H49.7993V44.2665C49.7993 25.9307 64.6634 11.0665 82.9993 11.0665C101.335 11.0665 116.199 25.9307 116.199 44.2665V71.9331H113.433Z" fill="#E0CBB5"/>
<path d="M85.7666 96.8335C85.7666 95.3055 84.5277 94.0666 82.9997 94.0666C81.4717 94.0666 80.2328 95.3055 80.2328 96.8335C80.2328 98.3616 81.4717 99.6004 82.9997 99.6004C84.5281 99.6001 85.7666 98.3616 85.7666 96.8335ZM82.9997 88.5332C87.5838 88.5332 91.2997 92.2494 91.2997 96.8332C91.2997 101.417 87.5835 105.133 82.9997 105.133C78.4156 105.133 74.6997 101.417 74.6997 96.8332C74.7 92.2494 78.4162 88.5332 82.9997 88.5332Z" fill="#42210B"/>
<path d="M77.4656 55.3331H71.9321V69.1666H77.4656V55.3331Z" fill="#42210B"/>
<path d="M82.9996 139.539C87.5837 139.539 91.2996 135.823 91.2996 131.239C91.2996 126.655 87.5834 122.939 82.9996 122.939C78.4155 122.939 74.6996 126.655 74.6996 131.239C74.6999 135.823 78.4161 139.539 82.9996 139.539ZM69.1665 134.005C69.162 126.365 75.352 120.168 82.9918 120.164C90.6317 120.16 96.8288 126.35 96.8331 133.989C96.8363 139.851 93.1451 145.079 87.6201 147.036C86.5138 147.423 85.771 148.465 85.7665 149.637V158.905C85.7623 159.64 86.0508 160.347 86.5686 160.869L90.1652 164.438L86.5686 168.007C85.4838 169.083 85.4767 170.835 86.5527 171.92C86.5583 171.926 86.5634 171.931 86.5686 171.936L90.1652 175.505L83.4422 182.228L80.2327 177.442V149.637C80.2279 148.464 79.4854 147.423 78.3792 147.036C72.86 145.081 69.1701 139.862 69.1665 134.005Z" fill="#FFF8EF"/>
<path d="M77.4665 38.7331H74.6996V41.5H77.4665V38.7331ZM80.2334 47.0335H71.9334C70.4053 47.0335 69.1665 45.7946 69.1665 44.2666V35.9666C69.1665 34.4385 70.4053 33.1997 71.9334 33.1997H80.2334C81.7614 33.1997 83.0003 34.4385 83.0003 35.9666V44.2666C82.9996 45.7946 81.7611 47.0335 80.2334 47.0335Z" fill="#42210B"/>
<path d="M71.1587 84.3001C71.7497 83.817 72.3791 83.3822 73.0398 82.9996C72.3872 83.3949 71.7591 83.8293 71.1587 84.3001Z" fill="#FF9900"/>
<path d="M71.0204 84.4106L70.1074 85.1852C70.3908 84.9034 70.6959 84.6447 71.0204 84.4106Z" fill="#FF9900"/>
<path d="M70.1073 85.1859L69.2222 86.0159C69.4965 85.7176 69.7925 85.4404 70.1073 85.1859Z" fill="#FF9900"/>
<path d="M68.392 86.9288C68.1268 87.2193 67.8772 87.5241 67.645 87.8418C67.8606 87.5118 68.1113 87.2054 68.392 86.9288Z" fill="#FF9900"/>
<path d="M67.5895 87.9246C67.143 88.4699 66.7452 89.0528 66.3999 89.6676C66.7351 89.0473 67.1339 88.4631 67.5895 87.9246Z" fill="#FF9900"/>
<path d="M66.1785 90.0271C66.0403 90.2761 65.9016 90.4972 65.791 90.7465C65.8987 90.4956 66.0283 90.255 66.1785 90.0271Z" fill="#FF9900"/>
<path d="M58.1 88.5331V82.9996H73.04C72.3792 83.3819 71.7499 83.8167 71.1589 84.3001C70.8343 84.5335 70.5293 84.7929 70.2459 85.0746C69.9311 85.3295 69.6351 85.6067 69.3608 85.9046C69.0654 86.1997 68.7892 86.5041 68.5308 86.8176C68.25 87.0945 67.9997 87.4006 67.7838 87.7306C67.3282 88.2688 66.9295 88.8531 66.5942 89.4736L66.3728 89.8332C66.2223 90.0611 66.093 90.3017 65.9853 90.5526C65.4277 91.6359 64.965 92.7651 64.6019 93.9281L64.2699 95.2561V95.6711C64.2699 96.2521 64.076 96.8331 64.0209 97.4416C63.8403 98.151 63.7109 98.8721 63.6334 99.5996C63.6383 107.075 67.9456 113.881 74.7 117.085V143.866C74.6987 144.418 74.8624 144.958 75.1701 145.415L79.68 152.166H50.6854C45.6276 152.181 41.5152 148.094 41.5 143.036C41.5 143.017 41.5 142.999 41.5 142.98V99.6H47.0334V88.5334H58.1V88.5331Z" fill="#FF9900"/>
<path d="M58.1 82.9997V88.5332H47.0334V99.5997H41.5V85.7663C41.5 84.2382 42.7388 82.9994 44.2669 82.9994H58.1V82.9997Z" fill="#42210B"/>
<path d="M82.9997 22.1335C70.7756 22.1335 60.8662 32.0429 60.8662 44.2669V71.9335H105.133V44.2669C105.133 32.0426 95.2237 22.1335 82.9997 22.1335ZM41.5 44.2666C41.5 21.3469 60.0803 2.7666 83 2.7666C105.92 2.7666 124.5 21.3469 124.5 44.2666V72.1546C130.87 73.185 135.554 78.6782 135.567 85.1305V150.036C135.551 157.318 129.652 163.218 122.37 163.234H43.6301C36.3482 163.218 30.4483 157.319 30.4331 150.036V85.1305C30.4454 78.6782 35.1301 73.185 41.4997 72.1546V44.2666H41.5ZM82.9997 8.30004C63.1358 8.30004 47.0328 24.403 47.0328 44.2669V71.9335H55.3328V44.2669C55.3328 28.9871 67.7196 16.6004 82.9993 16.6004C98.2791 16.6004 110.666 28.9871 110.666 44.2669V71.9335H118.966V44.2669C118.967 24.4027 102.864 8.30004 82.9997 8.30004ZM82.9997 77.4666H43.6301C39.3974 77.4666 35.9662 80.8978 35.9662 85.1305V150.036C35.9662 154.269 39.3974 157.7 43.6301 157.7H122.369C126.602 157.7 130.033 154.269 130.033 150.036V85.1305C130.033 80.8978 126.602 77.4666 122.369 77.4666H82.9997Z" fill="#42210B"/>
<path d="M30.4333 55.3331H24.8999V69.1666H30.4333V55.3331Z" fill="#42210B"/>
<path d="M30.4331 41.5001V38.7332H27.6663V41.5001H30.4331ZM35.9666 35.967V44.267C35.9666 45.795 34.7277 47.0338 33.1997 47.0338H24.8997C23.3717 47.0338 22.1328 45.795 22.1328 44.267V35.967C22.1328 34.4389 23.3717 33.2001 24.8997 33.2001H33.1997C34.7277 33.2001 35.9666 34.4386 35.9666 35.967Z" fill="#42210B"/>
<path d="M24.9006 146.633H19.3672V160.466H24.9006V146.633Z" fill="#42210B"/>
<path d="M24.9006 102.365H19.3672V116.199H24.9006V102.365Z" fill="#42210B"/>
<path d="M16.5998 33.2014H11.0664V47.0349H16.5998V33.2014Z" fill="#42210B"/>
<path d="M19.3667 88.5332V85.7663H16.5998V88.5332H19.3667ZM22.1333 94.0666H13.8333C12.3052 94.0666 11.0664 92.8278 11.0664 91.3V83C11.0664 81.472 12.3052 80.2332 13.8333 80.2332H22.1333C23.6613 80.2332 24.9002 81.472 24.9002 83V91.3C24.8998 92.8281 23.6613 94.0666 22.1333 94.0666Z" fill="#42210B"/>
<path d="M19.3667 132.8V130.033H16.5998V132.8H19.3667ZM13.8333 124.5H22.1333C23.6613 124.5 24.9002 125.739 24.9002 127.267V135.567C24.9002 137.095 23.6613 138.333 22.1333 138.333H13.8333C12.3052 138.333 11.0664 137.095 11.0664 135.567V127.267C11.0664 125.739 12.3052 124.5 13.8333 124.5Z" fill="#42210B"/>
<path d="M13.8335 63.6335V60.8666H11.0666V63.6335H13.8335ZM8.30009 55.3331H16.6001C18.1281 55.3331 19.367 56.572 19.367 58.1V66.4C19.367 67.9281 18.1281 69.1669 16.6001 69.1669H8.30009C6.77204 69.1669 5.5332 67.9281 5.5332 66.4V58.1C5.53353 56.572 6.77204 55.3331 8.30009 55.3331Z" fill="#42210B"/>
<path d="M5.53344 124.501H0V138.334H5.53344V124.501Z" fill="#42210B"/>
<path d="M5.53344 80.2334H0V94.0668H5.53344V80.2334Z" fill="#42210B"/>
<path d="M8.3 110.667V107.9H5.53312V110.667H8.3ZM13.8334 105.134V113.434C13.8334 114.962 12.5946 116.2 11.0666 116.2H2.76688C1.23884 116.2 0 114.962 0 113.434V105.134C0 103.606 1.23884 102.367 2.76688 102.367H11.0669C12.5949 102.367 13.8334 103.606 13.8334 105.134Z" fill="#42210B"/>
<path d="M8.3 154.934V152.167H5.53312V154.934H8.3ZM13.8334 149.4V157.7C13.8334 159.228 12.5946 160.467 11.0666 160.467H2.76688C1.23884 160.467 0 159.228 0 157.7V149.4C0 147.872 1.23884 146.633 2.76688 146.633H11.0669C12.5949 146.633 13.8334 147.872 13.8334 149.4Z" fill="#42210B"/>
<path d="M68.954 99.2418C68.9572 105.195 72.7088 110.502 78.3207 112.49C79.4454 112.883 80.2005 113.942 80.2054 115.134V143.402L83.4683 148.268L90.3032 141.433L86.6466 137.804C85.5436 136.71 85.5362 134.929 86.6304 133.826C86.6359 133.821 86.6414 133.815 86.6466 133.81L90.3032 130.181L86.6466 126.553C86.1201 126.022 85.8267 125.303 85.8309 124.556V115.133C85.8357 113.942 86.5905 112.882 87.7156 112.489C95.0368 109.895 98.8687 101.857 96.2746 94.5357C93.6805 87.2145 85.6422 83.3826 78.3213 85.9767C72.7036 87.968 68.9508 93.2823 68.954 99.2418ZM74.5795 117.018C67.7126 113.761 63.3333 106.842 63.3285 99.2418C63.2857 98.5768 63.2857 97.9099 63.3285 97.2449C63.3285 96.6263 63.5814 95.0227 63.5814 95.0227C63.5814 95.0227 63.8249 94.0076 63.9189 93.6727C64.2535 92.4802 65.5786 89.7629 65.719 89.5097L65.944 89.144C66.2948 88.5192 66.6994 87.9265 67.1533 87.3721C67.3893 87.0489 67.6429 86.7392 67.9126 86.4439C68.1564 86.144 68.4375 85.8343 68.7562 85.5156L69.6566 84.672L70.5848 83.8845C71.3163 83.3233 72.0866 82.8155 72.8913 82.3655C79.1001 78.6127 86.8781 78.6127 93.0872 82.3655C93.7626 82.7873 94.4094 83.2377 95.028 83.6877L95.9562 84.4752L96.8563 85.3188C97.175 85.6187 97.4561 85.9284 97.6999 86.2471C97.9696 86.5428 98.2232 86.8524 98.4592 87.1753C98.9131 87.7297 99.3181 88.3227 99.6686 88.9472L99.8936 89.3129C100.034 89.5658 100.175 89.7908 100.287 90.0443C100.855 91.1454 101.325 92.2938 101.694 93.4759C101.694 93.4759 102.706 96.5819 102.706 99.2421C102.701 106.842 98.3221 113.762 91.4551 117.019V123.404L96.2649 128.185C97.3679 129.279 97.3754 131.06 96.2811 132.163C96.2756 132.169 96.2701 132.174 96.2649 132.179L92.6084 135.808L96.2649 139.437C97.3679 140.531 97.3754 142.312 96.2811 143.415C96.2756 143.42 96.2701 143.426 96.2649 143.431L87.011 152.685L85.0142 154.682C84.4834 155.208 83.765 155.501 83.0173 155.497H82.7362C81.8965 155.405 81.1424 154.941 80.6829 154.232L79.6422 152.684L75.0574 145.793C74.7501 145.336 74.5834 144.797 74.5795 144.246V117.017V117.018Z" fill="#42210B"/>
</g>
<defs>
<clipPath id="clip0">
<rect width="166" height="166" fill="white"/>
</clipPath>
</defs>
</svg>
