<svg width="67" height="86" viewBox="0 0 67 86" fill="none" xmlns="http://www.w3.org/2000/svg">
<path d="M46.0874 45.4971L34.1755 72.6297L22.2637 45.4971H46.0874Z" fill="#FEB447"/>
<path d="M51.871 45.4971H67.0227L43.455 65.1367L51.871 45.4971Z" fill="#FEB447"/>
<path d="M34.1755 26.0156L44.8022 40.1832H23.5487L34.1755 26.0156Z" fill="#FEB447"/>
<path d="M16.4849 45.4971L24.9009 65.1367L1.33322 45.4971H16.4849Z" fill="#FEB447"/>
<path d="M67.1589 40.1838H51.4469L39.4932 24.2441H51.2193L67.1589 40.1838Z" fill="#FEB447"/>
<path d="M1.19634 40.1838L17.136 24.2441H28.8621L16.9084 40.1838H1.19634Z" fill="#FEB447"/>
<path d="M36.8333 -2.49905H31.52V8.30449H36.8333V-2.49905Z" fill="#FEB447"/>
<path d="M36.8333 77.3765H31.52V88.18H36.8333V77.3765Z" fill="#FEB447"/>
<path d="M68 72.8886L60.4879 65.3765L56.7318 69.1325L64.2439 76.6447L68 72.8886Z" fill="#FEB447"/>
<path d="M11.6409 16.5479L4.12874 9.03578L0.372669 12.7918L7.8848 20.304L11.6409 16.5479Z" fill="#FEB447"/>
<path d="M11.6548 69.1406L7.89872 65.3846L0.386583 72.8967L4.14265 76.6528L11.6548 69.1406Z" fill="#FEB447"/>
<path d="M67.9963 12.7851L64.2403 9.02903L56.7281 16.5412L60.4842 20.2972L67.9963 12.7851Z" fill="#FEB447"/>
</svg>
