<svg width="97" height="86" viewBox="0 0 97 86" fill="none" xmlns="http://www.w3.org/2000/svg">
<path d="M49.98 61.2698H60.5187V81.2305C60.5187 83.4348 62.2853 85.2104 64.4783 85.2104H74.8342C77.0272 85.2104 78.7938 83.4348 78.7938 81.2305V61.2698H89.3325C90.1244 61.2698 90.7945 60.78 91.0991 60.1065C91.4037 59.3717 91.2209 58.5758 90.6727 58.0247L70.9964 38.2477C70.6309 37.8803 70.1436 37.6966 69.6562 37.6966C69.1689 37.6966 68.6816 37.8803 68.3161 38.2477L48.6398 58.0859C48.0915 58.637 47.9088 59.433 48.2134 60.1677C48.5789 60.8412 49.249 61.2698 49.98 61.2698Z" fill="#FEB447"/>
<path d="M86.1644 0.224335H11.5408C5.38816 0.224335 0.332031 5.30635 0.332031 11.4905V61.4535C0.332031 67.6988 5.38816 72.7196 11.5408 72.7196H42.4258V66.8416H11.5408C8.55585 66.8416 6.18008 64.4537 6.18008 61.4535V51.9017H29.1459C34.7503 51.9017 39.319 47.3095 39.319 41.6765V31.2675C39.319 25.6344 34.7503 21.0422 29.1459 21.0422H6.18008V11.4905C6.18008 8.49027 8.55585 6.10233 11.5408 6.10233H86.1035C89.0884 6.10233 91.4642 8.49027 91.4642 11.4905V31.39L91.3423 50.1261H97.3122V11.4905C97.3732 5.30635 92.317 0.224335 86.1644 0.224335ZM23.9679 26.9202C29.2068 26.9202 33.471 31.2063 33.471 36.472C33.471 41.7377 29.2068 46.0237 23.9679 46.0237C18.729 46.0237 14.4648 41.7377 14.4648 36.472C14.4648 31.2063 18.729 26.9202 23.9679 26.9202Z" fill="#FEB447"/>
</svg>
