<svg width="104" height="86" viewBox="0 0 104 86" fill="none" xmlns="http://www.w3.org/2000/svg">
<g clip-path="url(#clip0)">
<path d="M92.114 0.30188H12.4255C6.11535 0.30188 0.947021 5.47442 0.947021 11.7897V29.5327C0.947021 35.8481 6.11535 41.0206 12.4255 41.0206H23.0627V82.7017C23.0627 84.1451 24.2646 85.3481 25.7069 85.3481H78.8326C80.2749 85.3481 81.4769 84.1451 81.4769 82.7017V41.0206H92.114C98.4242 41.0206 103.593 35.8481 103.593 29.5327V11.7897C103.593 5.47442 98.4242 0.30188 92.114 0.30188ZM76.1883 80.0552H28.3512V23.2776H76.2484V80.0552H76.1883ZM98.3641 29.5327C98.3641 32.9611 95.5395 35.7879 92.114 35.7879H81.4769V23.2776H87.7269C89.1693 23.2776 90.3712 22.0747 90.3712 20.6312C90.3712 19.1877 89.1693 17.9848 87.7269 17.9848H16.8727C15.4304 17.9848 14.2284 19.1877 14.2284 20.6312C14.2284 22.0747 15.4304 23.2776 16.8727 23.2776H23.1228V35.7278H12.4255C9 35.7278 6.17545 32.9009 6.17545 29.4726V11.7897C6.17545 8.36142 9 5.53457 12.4255 5.53457H92.114C95.5395 5.53457 98.3641 8.36142 98.3641 11.7897V29.5327Z" fill="#FEB447"/>
<path d="M45.7792 56.9592C45.4187 56.6584 44.9379 56.5381 44.5172 56.5381C43.3153 56.5983 42.4138 57.5606 42.4138 58.7635C42.4138 59.1846 42.5941 59.6056 42.8345 59.9664C44.998 62.0114 47.8826 63.2143 50.8875 63.2745V65.4999V65.56C50.9476 66.402 51.6687 67.0637 52.5101 67.0035C53.3514 67.0035 54.0125 66.3419 54.0726 65.4999V63.2745C59.8419 62.7332 62.2458 59.3048 62.4261 55.5157C62.4261 50.3431 58.039 48.7793 54.0726 47.6967V41.0807C55.5149 41.4416 56.8972 42.043 58.1592 42.8249C58.3996 42.885 58.7001 42.885 58.9404 42.8249C60.1424 42.8249 61.164 41.8626 61.2241 40.6597C61.2241 40.2386 61.0438 39.8176 60.8034 39.5169C58.9404 37.8328 56.5967 36.8705 54.1327 36.7502V34.4045C54.1327 33.5625 53.4115 32.9008 52.5702 32.9008H52.5101C51.6687 32.9008 50.9476 33.5625 50.9476 34.4045V36.69C46.6206 36.5697 43.0148 39.8778 42.7744 44.2083C42.7744 49.3206 46.9812 50.704 50.9476 51.7265V59.1846C48.9644 58.8838 47.2216 58.1621 45.7792 56.9592ZM47.3418 43.8474C47.3418 42.1032 48.724 40.9002 50.8274 40.7198V46.6742C48.8442 46.1329 47.3418 45.5916 47.3418 43.8474ZM54.0125 59.1244V52.5685V52.5084C56.1159 53.1098 57.6183 54.2526 57.6183 55.7562C57.6784 57.2599 56.6568 58.7635 54.0125 59.1244Z" fill="#FEB447"/>
</g>
<defs>
<clipPath id="clip0">
<rect width="102.645" height="84.9861" fill="white" transform="translate(0.947021 0.30188)"/>
</clipPath>
</defs>
</svg>
