<svg width="24" height="24" viewBox="0 0 24 24" fill="none" xmlns="http://www.w3.org/2000/svg">
<g clip-path="url(#clip0)">
<path d="M22.9047 15.5739C20.8871 14.4139 18.5918 13.7539 16.2144 13.5771C16.7013 13.7951 17.1912 14.008 17.6524 14.2731C18.1887 14.5817 18.6186 15.0271 18.9348 15.5438C20.0648 15.8577 21.1515 16.2961 22.1583 16.8746C22.3692 16.9962 22.5003 17.2401 22.5003 17.5119V20.9996H19.5003V22.4997H23.2503C23.6649 22.4997 24.0003 22.1642 24.0003 21.7497V17.5119C24.0004 16.704 23.58 15.9614 22.9047 15.5739Z" fill="black"/>
<path d="M16.9043 15.5748C12.1831 12.8605 5.81693 12.8605 1.09568 15.5748C0.41966 15.9637 0 16.7057 0 17.5128V21.7506C0 22.1652 0.33544 22.5006 0.750005 22.5006H17.25C17.6645 22.5006 18 22.1652 18 21.7506V17.5121C18 16.7057 17.5803 15.9637 16.9043 15.5748ZM16.5 21.0006H1.50005V17.5128C1.50005 17.2411 1.63117 16.9972 1.84281 16.8756C6.11135 14.422 11.8887 14.422 16.1572 16.8756C16.3689 16.9972 16.5 17.2411 16.5 17.5121V21.0006Z" fill="black"/>
<path d="M14.6263 3.03528C14.7507 3.02226 14.8739 3.00005 14.9998 3.00005C17.0674 3.00005 18.7498 4.68244 18.7498 6.75004C18.7498 8.81764 17.0674 10.5 14.9998 10.5C14.874 10.5 14.7508 10.4777 14.6263 10.4647C14.3081 10.9452 13.9185 11.3675 13.4913 11.7514C13.9797 11.9018 14.4837 12 14.9998 12C17.8943 12 20.2498 9.64455 20.2498 6.74999C20.2498 3.85544 17.8944 1.5 14.9998 1.5C14.4836 1.5 13.9796 1.59815 13.4912 1.74856C13.9184 2.1326 14.308 2.55475 14.6263 3.03528Z" fill="black"/>
<path d="M8.99999 12C11.8945 12 14.25 9.64455 14.25 6.74999C14.25 3.85544 11.8945 1.5 8.99999 1.5C6.10544 1.5 3.75 3.85544 3.75 6.74999C3.75 9.64455 6.10549 12 8.99999 12ZM8.99999 3.00001C11.0676 3.00001 12.75 4.6824 12.75 6.74999C12.75 8.81759 11.0676 10.5 8.99999 10.5C6.9324 10.5 5.25001 8.81759 5.25001 6.74999C5.25001 4.6824 6.9324 3.00001 8.99999 3.00001Z" fill="black"/>
</g>
<defs>
<clipPath id="clip0">
<rect width="24" height="24" fill="white"/>
</clipPath>
</defs>
</svg>
