<svg width="24" height="20" viewBox="0 0 24 20" fill="none" xmlns="http://www.w3.org/2000/svg">
<g clip-path="url(#clip0)">
<path d="M21.3162 0H2.68384C1.20843 0 0 1.20843 0 2.68384V6.82904C0 8.30445 1.20843 9.51288 2.68384 9.51288H5.17096V19.2506C5.17096 19.5878 5.45199 19.8689 5.78923 19.8689H18.2108C18.548 19.8689 18.829 19.5878 18.829 19.2506V9.51288H21.3162C22.7916 9.51288 24 8.30445 24 6.82904V2.68384C24 1.20843 22.7916 0 21.3162 0ZM17.5925 18.6323H6.40749V5.36768H17.6066V18.6323H17.5925ZM22.7775 6.82904C22.7775 7.62998 22.1171 8.2904 21.3162 8.2904H18.829V5.36768H20.2904C20.6276 5.36768 20.9087 5.08665 20.9087 4.74941C20.9087 4.41218 20.6276 4.13115 20.2904 4.13115H3.72365C3.38642 4.13115 3.10539 4.41218 3.10539 4.74941C3.10539 5.08665 3.38642 5.36768 3.72365 5.36768H5.18501V8.27635H2.68384C1.8829 8.27635 1.22248 7.61592 1.22248 6.81499V2.68384C1.22248 1.8829 1.8829 1.22248 2.68384 1.22248H21.3162C22.1171 1.22248 22.7775 1.8829 22.7775 2.68384V6.82904Z" fill="#343434"/>
<path d="M10.4824 13.2365C10.3981 13.1663 10.2857 13.1382 10.1874 13.1382C9.90633 13.1522 9.69556 13.377 9.69556 13.6581C9.69556 13.7564 9.73771 13.8548 9.79392 13.9391C10.2998 14.4168 10.9742 14.6979 11.6768 14.7119V15.2318V15.2459C11.6909 15.4426 11.8595 15.5972 12.0562 15.5831C12.2529 15.5831 12.4075 15.4286 12.4216 15.2318V14.7119C13.7705 14.5855 14.3326 13.7845 14.3747 12.8993C14.3747 11.6909 13.349 11.3255 12.4216 11.0726V9.52692C12.7588 9.61123 13.082 9.75174 13.3771 9.93441C13.4333 9.94846 13.5035 9.94846 13.5597 9.93441C13.8408 9.93441 14.0796 9.70959 14.0937 9.42856C14.0937 9.3302 14.0515 9.23184 13.9953 9.16158C13.5597 8.76814 13.0117 8.54331 12.4356 8.51521V7.9672C12.4356 7.77048 12.267 7.61591 12.0703 7.61591H12.0562C11.8595 7.61591 11.6909 7.77048 11.6909 7.9672V8.50116C10.6792 8.47306 9.83607 9.24589 9.77987 10.2576C9.77987 11.452 10.7635 11.7752 11.6909 12.014V13.7564C11.2272 13.6862 10.8197 13.5175 10.4824 13.2365ZM10.8478 10.1733C10.8478 9.7658 11.171 9.48476 11.6628 9.44261V10.8337C11.1991 10.7072 10.8478 10.5808 10.8478 10.1733ZM12.4075 13.7424V12.2108V12.1967C12.8993 12.3372 13.2506 12.6042 13.2506 12.9555C13.2646 13.3068 13.0258 13.6581 12.4075 13.7424Z" fill="#343434"/>
</g>
<defs>
<clipPath id="clip0">
<rect width="24" height="19.8548" fill="white"/>
</clipPath>
</defs>
</svg>
