<svg width="750" height="417" viewBox="0 0 750 417" fill="none" xmlns="http://www.w3.org/2000/svg">
<path d="M683.999 416.778H133.423L133.233 416.588C117.325 400.135 104.51 384.249 94.0619 368.016C81.8149 348.973 72.6613 329.361 66.0959 307.98C55.08 272.262 49.5562 230.259 50.5347 189.677C51.6395 143.505 61.1403 102.575 77.9641 71.3728C96.1136 37.8019 122.186 15.8844 155.518 6.25213C173.131 1.16754 191.659 0.883306 212.207 5.39944C228.4 8.96813 246.044 15.6634 266.119 25.8641C288.309 37.1387 309.962 50.4976 330.921 63.4143C349.07 74.6257 367.851 86.2161 386.916 96.3853C409.895 108.67 430.853 117.482 450.96 123.293C474.57 130.114 497.265 132.735 518.381 131.093C536.657 129.672 556.006 125.314 574.723 121.145C603.51 114.702 633.275 108.039 659.979 111.702C674.404 113.692 686.777 118.429 697.856 126.198C710.261 134.914 720.677 147.2 729.704 163.748C740.026 182.634 746.496 204.109 748.927 227.511C751.2 249.46 749.905 272.514 745.044 296.074C740.373 318.749 732.671 340.825 722.129 361.668C711.586 382.512 698.834 400.987 684.188 416.557L683.999 416.778ZM133.959 415.515H683.462C697.951 400.071 710.576 381.754 720.992 361.132C731.472 340.383 739.142 318.402 743.782 295.853C748.611 272.42 749.905 249.492 747.633 227.669C745.234 204.425 738.795 183.108 728.568 164.38C719.635 148.021 709.314 135.862 697.098 127.24C686.209 119.566 673.993 114.892 659.789 112.965C633.307 109.334 603.668 115.966 574.976 122.408C556.227 126.609 536.815 130.967 518.444 132.388C497.17 134.062 474.349 131.409 450.581 124.556C430.38 118.713 409.358 109.87 386.284 97.5538C367.188 87.353 348.407 75.7626 330.226 64.5513C309.299 51.6345 287.677 38.3072 265.519 27.0326C245.602 16.8319 228.052 10.1998 211.955 6.63111C191.627 2.14656 173.257 2.43079 155.865 7.45222C122.88 17.0214 97.0289 38.7177 79.0688 71.9729C42.1702 140.346 47.0942 242.038 67.2954 307.57C73.8292 328.824 82.9513 348.341 95.1035 367.29C105.488 383.428 118.209 399.187 133.959 415.515Z" fill="#D3DFFF" fill-opacity="0.09"/>
<path d="M694.257 321.529C734.565 200.257 731.945 12.032 567.4 0.473274C513.583 -3.31649 458.819 16.3587 408.884 34.2969C367.535 49.1401 314.539 70.9628 301.629 117.798C296.578 136.178 295.095 169.718 268.676 167.791C198.477 162.675 116.883 116.724 70.1359 196.025C29.9861 264.177 57.6365 361.637 112.906 416.147H631.129C658.242 390.155 681.221 360.753 694.257 321.529Z" fill="#EAF0FF"/>
<path d="M443.447 301.096H308.352V416.052H443.447V301.096Z" fill="#3A6BEA"/>
<path opacity="0.6" d="M443.447 376.765L308.352 364.669V301.096H443.447V376.765Z" fill="#1F3C88"/>
<path d="M583.119 342.088H168.68C162.746 342.088 157.948 337.288 157.948 331.351V44.9711C157.948 39.0338 162.746 34.2334 168.68 34.2334H583.119C589.053 34.2334 593.851 39.0338 593.851 44.9711V331.319C593.851 337.288 589.053 342.088 583.119 342.088Z" fill="#3A6BEA"/>
<path d="M573.24 48.7295H178.591V320.55H573.24V48.7295Z" fill="white"/>
<path opacity="0.3" d="M350.932 123.924V320.55H178.591V116.345H343.357C347.555 116.345 350.932 119.724 350.932 123.924Z" fill="#86A7FF"/>
<path opacity="0.3" d="M573.239 116.345V320.55H392.25V123.924C392.25 119.724 395.627 116.345 399.825 116.345H573.239Z" fill="#86A7FF"/>
<path d="M117.83 289.853C117.83 295.443 122.343 299.959 127.93 299.959H323.976C329.563 299.959 334.077 295.443 334.077 289.853V89.375H117.83V289.853Z" fill="white"/>
<path d="M324.008 300.591H127.93C122.028 300.591 117.198 295.759 117.198 289.853V88.7432H334.708V289.822C334.74 295.759 329.91 300.591 324.008 300.591ZM118.461 90.0064V289.822C118.461 295.032 122.722 299.296 127.93 299.296H323.976C329.184 299.296 333.445 295.032 333.445 289.822V90.0064H118.461Z" fill="#3A6BEA"/>
<path d="M324.008 67.2363H127.93C122.343 67.2363 117.83 71.7525 117.83 77.3424V89.3749H334.077V77.3424C334.108 71.784 329.563 67.2363 324.008 67.2363Z" fill="#3A6BEA"/>
<path d="M334.74 90.0063H117.198V77.3421C117.198 71.4364 122.028 66.6045 127.93 66.6045H323.976C329.879 66.6045 334.708 71.4364 334.708 77.3421V90.0063H334.74ZM118.461 88.743H333.445V77.3421C333.445 72.1312 329.184 67.8677 323.976 67.8677H127.93C122.722 67.8677 118.461 72.1312 118.461 77.3421V88.743Z" fill="#3A6BEA"/>
<path d="M134.054 82.6475C136.494 82.6475 138.473 80.6679 138.473 78.2261C138.473 75.7842 136.494 73.8047 134.054 73.8047C131.613 73.8047 129.635 75.7842 129.635 78.2261C129.635 80.6679 131.613 82.6475 134.054 82.6475Z" fill="white"/>
<path d="M314.98 167.065H136.958V107.061H314.98V167.065ZM138.22 165.802H313.718V108.324H138.22V165.802Z" fill="#DADADA"/>
<path d="M314.349 151.116H137.589V152.379H314.349V151.116Z" fill="#DADADA"/>
<path d="M314.349 136.432H137.589V137.695H314.349V136.432Z" fill="#DADADA"/>
<path d="M314.349 121.746H137.589V123.009H314.349V121.746Z" fill="#DADADA"/>
<path d="M297.305 107.692H296.042V166.434H297.305V107.692Z" fill="#DADADA"/>
<path d="M279.628 107.692H278.366V166.434H279.628V107.692Z" fill="#DADADA"/>
<path d="M261.953 107.692H260.69V166.434H261.953V107.692Z" fill="#DADADA"/>
<path d="M244.276 107.692H243.014V166.434H244.276V107.692Z" fill="#DADADA"/>
<path d="M226.601 107.692H225.338V166.434H226.601V107.692Z" fill="#DADADA"/>
<path d="M208.924 107.692H207.662V166.434H208.924V107.692Z" fill="#DADADA"/>
<path d="M191.248 107.692H189.985V166.434H191.248V107.692Z" fill="#DADADA"/>
<path d="M173.572 107.692H172.31V166.434H173.572V107.692Z" fill="#DADADA"/>
<path d="M155.896 107.692H154.634V166.434H155.896V107.692Z" fill="#DADADA"/>
<path d="M313.56 167.065C312.329 164.601 310.972 161.791 308.794 159.896C306.237 157.653 303.08 157.243 300.713 158.854C300.208 159.201 299.703 159.675 299.135 160.212C297.651 161.664 295.758 163.464 293.39 162.517C291.654 161.822 290.644 160.496 289.697 159.201C289.097 158.38 288.498 157.622 287.74 156.99C285.941 155.538 283.732 155.632 280.733 157.338L280.544 157.464C278.744 158.506 276.503 159.769 274.42 157.338C273.442 156.169 273.189 154.748 272.937 153.358C272.716 152.19 272.526 151.085 271.926 150.2C270.096 147.642 267.602 146.726 265.014 147.737C263.72 148.242 262.205 150.011 260.595 151.874C258.259 154.59 255.702 157.559 252.925 157.559C252.262 157.559 251.567 157.369 250.873 156.99C248.664 155.727 248.821 153.011 248.979 150.611C249.105 148.369 249.232 146.284 247.78 145.337C245.886 144.168 243.455 146.284 242.256 147.99C240.488 150.548 237.521 153.011 234.933 152.727C233.828 152.6 232.313 151.906 231.303 149.379C230.483 147.358 230.609 145.147 230.735 143.031C230.83 141.579 230.893 140.189 230.703 138.894C230.388 136.936 228.81 134.283 226.284 134.599C224.485 134.82 223.602 136.431 222.686 138.168C222.181 139.115 221.613 140.126 220.919 140.852C219.814 141.989 218.772 142.431 217.762 142.179C216.594 141.863 215.71 140.631 215.205 138.578C215.174 138.484 215.142 138.357 215.111 138.199C214.479 135.357 213.974 134.946 213.817 134.915C213.785 134.915 213.659 134.946 213.406 135.231C212.775 135.957 212.775 137.031 212.775 138.199C212.775 139.178 212.775 140.189 212.396 141.105C211.86 142.337 210.723 143.158 209.271 143.41C207.441 143.726 205.389 143.063 204.189 141.736C202.485 139.842 201.822 136.968 202.232 133.178C202.58 130.115 202.517 121.903 200.307 120.64C199.77 120.324 199.013 120.514 198.098 121.209C196.74 122.219 195.92 124.904 195.73 127.146C195.288 131.883 193.773 136.557 191.437 140.663C190.711 141.926 189.638 143.442 187.934 143.726C187.018 143.884 186.135 143.631 185.346 143.031C184.241 142.21 183.452 140.757 183.294 139.305C183.168 138.105 183.294 136.905 183.452 135.736C183.578 134.82 183.673 133.967 183.641 133.083C183.578 131.251 182.568 129.262 180.927 129.104C180.074 129.009 178.465 130.494 177.139 131.662C175.213 133.367 173.572 134.852 172.183 134.346C171.426 134.062 170.952 133.241 170.763 131.852C170.731 131.599 170.7 131.346 170.7 131.062C170.637 129.83 170.51 128.914 169.784 128.757C169.122 128.63 168.806 128.82 168.616 128.946C167.449 129.925 167.512 133.462 167.543 135.578C167.575 136.62 167.575 137.473 167.48 137.978C167.196 139.399 166.186 140.789 164.923 141.421C164.04 141.863 163.061 141.926 162.24 141.515C160.41 140.663 160.063 138.42 159.968 136.557L159.4 123.956C159.337 122.472 159.084 120.419 157.727 119.819C157.253 119.63 156.748 119.63 156.212 119.851C155.296 120.198 154.444 121.114 154.002 122.188C153.687 122.914 153.497 123.672 153.308 124.461C153.024 125.598 152.708 126.767 152.108 127.809C151.382 129.009 149.994 129.925 148.668 130.083C147.689 130.178 146.837 129.893 146.206 129.23C145.133 128.093 145.29 126.514 145.448 125.156C145.511 124.461 145.606 123.767 145.543 123.135C145.385 121.745 144.501 120.988 143.775 120.577C142.229 119.724 139.925 119.661 138.283 120.419L137.747 119.282C139.735 118.335 142.481 118.398 144.375 119.472C145.764 120.261 146.616 121.461 146.774 122.977C146.869 123.735 146.774 124.525 146.679 125.283C146.521 126.546 146.395 127.651 147.09 128.346C147.437 128.725 147.91 128.883 148.478 128.788C149.425 128.693 150.467 127.999 150.972 127.114C151.509 126.23 151.761 125.188 152.045 124.083C152.266 123.261 152.456 122.409 152.803 121.619C153.371 120.261 154.476 119.093 155.707 118.619C156.559 118.272 157.411 118.272 158.2 118.619C160.22 119.472 160.568 122.03 160.631 123.861L161.199 136.462C161.262 137.978 161.515 139.778 162.714 140.347C163.219 140.568 163.724 140.536 164.292 140.252C165.176 139.81 165.965 138.736 166.186 137.694C166.249 137.315 166.249 136.462 166.218 135.578C166.154 132.925 166.091 129.325 167.733 127.967C168.332 127.462 169.09 127.304 169.974 127.493C171.678 127.872 171.804 129.736 171.868 130.967C171.868 131.22 171.899 131.473 171.931 131.662C172.025 132.483 172.278 133.052 172.53 133.146C173.193 133.399 174.929 131.852 176.192 130.715C177.928 129.167 179.538 127.714 180.927 127.841C183.325 128.062 184.714 130.683 184.777 133.052C184.809 133.999 184.683 134.978 184.588 135.894C184.462 137.031 184.304 138.105 184.43 139.147C184.556 140.284 185.188 141.421 186.008 142.021C186.513 142.4 187.082 142.558 187.65 142.463C188.818 142.273 189.67 141.042 190.238 140.031C192.511 136.052 193.931 131.567 194.373 127.02C194.594 124.714 195.478 121.524 197.245 120.198C198.603 119.187 199.834 118.966 200.844 119.535C204.474 121.619 203.4 133.21 203.4 133.304C203.022 136.715 203.558 139.273 205.01 140.884C205.925 141.894 207.504 142.4 208.924 142.147C209.524 142.052 210.629 141.705 211.102 140.6C211.386 139.936 211.386 139.084 211.386 138.199C211.386 136.936 211.386 135.483 212.333 134.41C212.996 133.652 213.627 133.588 214.006 133.683C215.237 133.999 215.805 136.02 216.247 137.915C216.279 138.041 216.31 138.168 216.342 138.263C216.72 139.778 217.352 140.757 218.015 140.947C218.677 141.105 219.403 140.505 219.94 139.968C220.54 139.336 221.013 138.484 221.518 137.536C222.528 135.704 223.665 133.62 226.095 133.336C229.125 132.988 231.429 135.768 231.903 138.673C232.124 140.094 232.061 141.61 231.966 143.094C231.84 145.084 231.745 147.137 232.44 148.905C233.071 150.485 233.955 151.369 235.059 151.495C237.111 151.716 239.668 149.474 241.183 147.295C242.919 144.768 245.949 142.747 248.411 144.295C250.526 145.621 250.368 148.337 250.21 150.706C250.084 152.948 249.958 155.064 251.473 155.916C254.124 157.432 256.902 154.18 259.616 151.053C261.321 149.063 262.931 147.2 264.509 146.568C267.602 145.337 270.759 146.442 272.905 149.474C273.694 150.579 273.915 151.874 274.136 153.137C274.357 154.401 274.578 155.632 275.335 156.517C276.661 158.064 277.861 157.496 279.849 156.359L280.038 156.232C283.479 154.274 286.225 154.18 288.466 155.98C289.35 156.674 289.981 157.559 290.613 158.411C291.528 159.612 292.38 160.748 293.769 161.317C295.284 161.917 296.483 160.906 298.156 159.296C298.756 158.727 299.293 158.19 299.892 157.78C302.733 155.853 306.521 156.327 309.52 158.917C311.887 161.001 313.339 163.907 314.601 166.465L313.56 167.065Z" fill="#3A6BEA"/>
<path d="M181.4 131.189C182.969 131.189 184.241 129.916 184.241 128.346C184.241 126.776 182.969 125.504 181.4 125.504C179.831 125.504 178.559 126.776 178.559 128.346C178.559 129.916 179.831 131.189 181.4 131.189Z" fill="#102048"/>
<path d="M261.132 153.706C262.701 153.706 263.973 152.434 263.973 150.864C263.973 149.294 262.701 148.021 261.132 148.021C259.563 148.021 258.291 149.294 258.291 150.864C258.291 152.434 259.563 153.706 261.132 153.706Z" fill="#102048"/>
<path d="M150.783 186.14H137.747V281.736H150.783V186.14Z" fill="#86A7FF"/>
<path d="M178.023 199.277H164.987V281.799H178.023V199.277Z" fill="#D3DFFF"/>
<path d="M205.263 215.89H192.227V281.926H205.263V215.89Z" fill="#86A7FF"/>
<path d="M232.471 226.09H219.435V281.989H232.471V226.09Z" fill="#D3DFFF"/>
<path d="M259.711 210.173H246.675V281.863H259.711V210.173Z" fill="#86A7FF"/>
<path d="M286.951 236.322H273.915V281.957H286.951V236.322Z" fill="#D3DFFF"/>
<path d="M314.16 262.219H301.124V282.368H314.16V262.219Z" fill="#86A7FF"/>
<path d="M408.664 89.375V289.822C408.664 295.412 413.177 299.928 418.764 299.928H614.81C620.397 299.928 624.911 295.412 624.911 289.822V89.375H408.664Z" fill="white"/>
<path d="M614.81 300.591H418.764C412.862 300.591 408.032 295.759 408.032 289.853V88.7432H625.542V289.822C625.542 295.759 620.713 300.591 614.81 300.591ZM409.295 90.0064V289.822C409.295 295.032 413.556 299.296 418.764 299.296H614.81C620.018 299.296 624.279 295.032 624.279 289.822V90.0064H409.295Z" fill="#3A6BEA"/>
<path d="M624.911 77.3424C624.911 71.7525 620.397 67.2363 614.81 67.2363H418.764C413.177 67.2363 408.664 71.7525 408.664 77.3424V89.3749H624.911V77.3424Z" fill="#3A6BEA"/>
<path d="M625.542 90.0063H408.032V77.3421C408.032 71.4364 412.862 66.6045 418.764 66.6045H614.81C620.713 66.6045 625.542 71.4364 625.542 77.3421V90.0063ZM409.295 88.743H624.279V77.3421C624.279 72.1312 620.018 67.8677 614.81 67.8677H418.764C413.556 67.8677 409.295 72.1312 409.295 77.3421V88.743Z" fill="#3A6BEA"/>
<path d="M425.898 82.6475C428.338 82.6475 430.316 80.6679 430.316 78.2261C430.316 75.7842 428.338 73.8047 425.898 73.8047C423.457 73.8047 421.479 75.7842 421.479 78.2261C421.479 80.6679 423.457 82.6475 425.898 82.6475Z" fill="white"/>
<path d="M604.994 186.14H591.958V281.736H604.994V186.14Z" fill="#86A7FF"/>
<path d="M577.753 189.897H564.717V281.768H577.753V189.897Z" fill="#D3DFFF"/>
<path d="M550.513 205.404H537.477V281.863H550.513V205.404Z" fill="#86A7FF"/>
<path d="M523.305 216.174H510.269V281.863H523.305V216.174Z" fill="#D3DFFF"/>
<path d="M496.065 236.07H483.029V282.116H496.065V236.07Z" fill="#86A7FF"/>
<path d="M468.825 252.523H455.789V282.21H468.825V252.523Z" fill="#D3DFFF"/>
<path d="M441.585 262.219H428.549V282.368H441.585V262.219Z" fill="#86A7FF"/>
<path d="M464.09 200.951H439.723C437.64 200.951 435.935 202.657 435.935 204.741V219.616C435.935 221.7 437.64 223.406 439.723 223.406H455.031L459.64 230.638L464.248 223.374C466.268 223.279 467.878 221.637 467.878 219.616V204.741C467.878 202.657 466.174 200.951 464.09 200.951Z" fill="#86A7FF"/>
<path d="M451.907 206.004L453.832 209.888L458.156 210.52L455.032 213.552L455.758 217.847L451.907 215.826L448.056 217.847L448.782 213.552L445.688 210.52L449.981 209.888L451.907 206.004Z" fill="white"/>
<path d="M605.783 167.065H427.76V107.061H605.783V167.065ZM429.022 165.802H604.52V108.324H429.022V165.802Z" fill="#DADADA"/>
<path d="M605.151 151.116H428.391V152.379H605.151V151.116Z" fill="#DADADA"/>
<path d="M605.151 136.432H428.391V137.695H605.151V136.432Z" fill="#DADADA"/>
<path d="M605.151 121.746H428.391V123.009H605.151V121.746Z" fill="#DADADA"/>
<path d="M588.107 107.692H586.844V166.434H588.107V107.692Z" fill="#DADADA"/>
<path d="M570.431 107.692H569.168V166.434H570.431V107.692Z" fill="#DADADA"/>
<path d="M552.755 107.692H551.492V166.434H552.755V107.692Z" fill="#DADADA"/>
<path d="M535.078 107.692H533.816V166.434H535.078V107.692Z" fill="#DADADA"/>
<path d="M517.402 107.692H516.14V166.434H517.402V107.692Z" fill="#DADADA"/>
<path d="M499.726 107.692H498.464V166.434H499.726V107.692Z" fill="#DADADA"/>
<path d="M482.05 107.692H480.788V166.434H482.05V107.692Z" fill="#DADADA"/>
<path d="M464.374 107.692H463.112V166.434H464.374V107.692Z" fill="#DADADA"/>
<path d="M446.698 107.692H445.436V166.434H446.698V107.692Z" fill="#DADADA"/>
<path d="M442.879 157.275C442.563 157.275 442.216 157.243 441.837 157.18C439.028 156.611 438.523 154.085 438.113 152.064C437.703 149.948 437.355 148.653 435.714 148.527C433.852 148.369 430.664 150.737 429.117 152.38L428.202 151.527C429.401 150.264 433.094 147.042 435.84 147.263C438.492 147.484 438.934 149.79 439.344 151.811C439.817 154.148 440.228 155.569 442.09 155.948C445.183 156.58 446.446 153.422 447.551 149.885L451.465 137.505C452.064 135.578 452.759 133.431 454.274 131.788C455.757 130.209 458.503 129.199 460.618 130.494C462.196 131.441 462.986 133.273 462.986 135.957C462.986 136.431 462.986 136.936 462.954 137.473C462.891 139.431 462.828 141.673 463.554 143.221C463.901 143.947 464.532 144.516 465.195 144.737C465.732 144.895 466.237 144.8 466.679 144.516C468.162 143.568 468.32 141.768 468.509 139.873C468.636 138.673 468.762 137.473 469.204 136.431C470.056 134.504 472.108 133.652 474.159 134.41C478.389 135.957 478.168 141.042 478.042 144.421V144.8C477.947 147.2 478.231 150.579 479.999 153.011C480.693 153.99 481.672 154.527 482.555 154.495C483.345 154.464 484.039 153.959 484.576 153.074C485.491 151.558 485.586 149.442 485.712 147.39C485.743 146.758 485.775 146.19 485.838 145.621L486.69 136.684C487.038 132.989 488.332 130.778 490.415 130.273C491.33 130.052 492.151 130.178 492.845 130.683C493.919 131.441 494.55 132.989 494.834 135.42C494.897 136.084 494.866 136.81 494.834 137.599C494.708 140.158 494.771 141.863 496.602 142.337C497.738 142.621 499.064 141.8 499.695 140.852C500.516 139.589 500.705 138.01 500.926 136.463C500.989 136.02 501.052 135.578 501.115 135.168C501.62 132.167 502.22 128.63 503.072 125.188V125.156C503.546 123.23 504.209 120.577 506.229 119.409C507.744 118.524 508.975 118.777 509.701 119.124C511.5 120.009 512.636 122.504 512.952 124.62C513.141 126.009 513.11 127.462 513.078 128.915C513.047 130.809 512.983 132.799 513.52 134.473C514.025 136.115 515.698 138.199 517.781 137.631C519.991 137.031 520.464 135.105 521.001 132.894C521.095 132.452 521.222 132.01 521.348 131.567C522.326 128.093 523.684 123.325 526.682 120.261C528.545 118.366 531.449 117.956 533.784 119.219C537.288 121.146 537.256 125.377 537.225 129.104C537.225 131.031 537.193 132.862 537.635 134.252C538.203 136.084 539.213 137.189 540.602 137.631C541.739 137.978 542.78 137.884 543.696 137.315C545.4 136.305 546.41 133.968 546.789 132.136L546.947 131.346C547.736 127.525 548.841 122.282 551.303 119.377C552.975 117.419 555.185 116.661 557.426 117.261C559.825 117.924 561.687 120.072 562.129 122.725C562.192 123.04 562.224 123.356 562.287 123.704C562.445 124.746 562.603 125.693 562.95 126.609C563.455 127.872 564.339 128.63 565.412 128.788C566.58 128.946 567.842 128.346 568.758 127.146C569.452 126.23 569.925 125.188 570.431 124.083C570.746 123.419 571.03 122.725 571.409 122.093C574.723 116.156 581.699 113.819 587.128 113.629C593.441 113.408 599.533 115.398 604.93 117.135L604.552 118.335C599.249 116.629 593.252 114.671 587.191 114.892C582.109 115.082 575.576 117.229 572.514 122.725C572.167 123.325 571.883 123.988 571.598 124.62C571.093 125.756 570.557 126.893 569.768 127.904C568.568 129.451 566.864 130.241 565.254 130.02C563.739 129.799 562.476 128.725 561.782 127.083C561.372 126.041 561.182 124.967 561.024 123.893C560.961 123.577 560.93 123.262 560.867 122.946C560.488 120.767 559.004 118.998 557.079 118.493C555.343 118.019 553.575 118.651 552.249 120.198C549.977 122.851 548.935 127.904 548.178 131.599L548.02 132.389C547.452 135.105 546.063 137.347 544.327 138.389C543.096 139.115 541.707 139.273 540.223 138.831C538.456 138.294 537.13 136.841 536.436 134.631C535.931 133.052 535.931 131.125 535.962 129.072C535.994 125.535 536.025 121.872 533.185 120.293C531.354 119.282 529.05 119.598 527.598 121.114C524.82 123.956 523.526 128.536 522.579 131.883C522.453 132.294 522.358 132.736 522.263 133.146C521.727 135.42 521.095 138.01 518.16 138.831C515.54 139.526 513.141 137.347 512.352 134.82C511.784 132.957 511.816 130.873 511.847 128.883C511.879 127.43 511.91 126.072 511.721 124.809C511.468 123.04 510.521 120.924 509.196 120.261C508.501 119.914 507.744 120.009 506.892 120.482C505.345 121.398 504.777 123.641 504.335 125.441V125.472C503.483 128.883 502.883 132.389 502.409 135.357C502.346 135.768 502.283 136.21 502.22 136.62C501.999 138.294 501.778 140.031 500.8 141.516C499.916 142.874 498.117 144.01 496.349 143.537C493.35 142.747 493.508 139.715 493.635 137.505C493.666 136.778 493.698 136.084 493.635 135.515C493.35 132.989 492.688 132.041 492.183 131.662C491.804 131.378 491.33 131.315 490.762 131.473C488.774 131.946 488.174 134.978 488.016 136.778L487.164 145.716C487.101 146.253 487.069 146.821 487.038 147.421C486.943 149.506 486.817 151.874 485.743 153.674C484.986 154.938 483.913 155.664 482.713 155.696C481.388 155.759 480.062 155.032 479.083 153.706C477.095 150.99 476.779 147.295 476.874 144.674V144.295C477 141.105 477.158 136.747 473.812 135.515C472.392 134.978 471.034 135.515 470.435 136.841C470.056 137.694 469.961 138.768 469.835 139.905C469.646 141.926 469.425 144.2 467.436 145.463C466.647 145.969 465.795 146.095 464.911 145.842C463.869 145.526 462.954 144.737 462.449 143.663C461.597 141.831 461.691 139.431 461.755 137.347C461.755 136.81 461.786 136.336 461.786 135.862C461.786 133.683 461.186 132.199 460.019 131.504C458.472 130.588 456.42 131.378 455.252 132.61C453.927 134.031 453.264 136.052 452.727 137.821L448.845 150.169C447.898 152.916 446.541 157.275 442.879 157.275Z" fill="#3A6BEA"/>
<path d="M482.303 157.274C483.872 157.274 485.144 156.002 485.144 154.432C485.144 152.862 483.872 151.59 482.303 151.59C480.734 151.59 479.462 152.862 479.462 154.432C479.462 156.002 480.734 157.274 482.303 157.274Z" fill="#102048"/>
<path d="M587.412 116.851C588.981 116.851 590.253 115.578 590.253 114.008C590.253 112.439 588.981 111.166 587.412 111.166C585.843 111.166 584.571 112.439 584.571 114.008C584.571 115.578 585.843 116.851 587.412 116.851Z" fill="#102048"/>
<path d="M695.457 339.94C694.92 341.14 694.289 342.056 693.626 342.783C689.459 347.204 683.399 342.309 679.233 329.424L671.026 312.591L674.182 298.158C674.182 298.158 676.739 292.979 681 291.052C682.957 290.168 685.261 289.979 687.85 291.305C696.088 295.505 699.686 330.877 695.457 339.94Z" fill="#102048"/>
<path d="M695.457 339.94C694.92 341.14 694.289 342.056 693.626 342.783C693.752 303.811 686.556 292.853 681 291.052C682.957 290.168 685.262 289.979 687.85 291.305C696.088 295.505 699.687 330.877 695.457 339.94Z" fill="#86A7FF"/>
<path d="M644.985 372.596C644.196 373.638 643.376 374.396 642.586 374.965C637.568 378.344 632.738 372.28 631.476 358.764L627.151 340.541L633.401 327.151C633.401 327.151 637.031 322.666 641.608 321.719C643.723 321.276 645.995 321.624 648.236 323.456C655.37 329.424 651.077 364.701 644.985 372.596Z" fill="#102048"/>
<path d="M644.985 372.597C644.196 373.639 643.376 374.397 642.587 374.965C651.267 336.973 646.658 324.688 641.64 321.751C643.754 321.309 646.027 321.656 648.268 323.488C655.37 329.425 651.077 364.701 644.985 372.597Z" fill="#86A7FF"/>
<path d="M638.862 342.973C638.862 342.973 634.316 347.994 627.877 352.637C624.279 355.226 620.113 357.721 615.82 359.143C608.055 361.732 599.848 360.816 594.009 350.868C583.151 332.362 585.487 290.137 587.507 268.883C588.264 261.114 588.959 256.124 588.959 256.124L625.258 246.334L625.699 249.397L626.899 257.893L633.591 305.517L638.862 342.973Z" fill="#1F3C88"/>
<path opacity="0.6" d="M638.862 342.972C638.862 342.972 627.846 355.163 615.851 359.142C602.784 332.614 612.979 282.021 612.979 282.021L633.591 305.517L638.862 342.972Z" fill="#102048"/>
<path d="M679.264 329.392C679.264 329.392 658.274 366.027 634.032 356.963C631.76 356.11 629.74 354.626 627.909 352.636C612.758 336.151 610.864 284.389 610.738 263.608C610.706 258.176 610.801 254.86 610.801 254.86C610.801 254.86 618.092 252.176 625.763 249.397C633.843 246.491 642.302 243.428 643.123 243.27C644.859 242.923 646.342 244.723 647.605 247.944C653.602 263.04 654.896 309.149 654.896 309.149L674.245 298.095C683.683 308.865 679.264 329.392 679.264 329.392Z" fill="#1F3C88"/>
<path d="M612.979 308.865C611.527 298.569 610.738 284.894 610.612 282.684L601.237 276.083L601.963 275.041L611.843 282.02L611.874 282.336C611.874 282.494 612.695 297.59 614.242 308.707L612.979 308.865Z" fill="#3A6BEA"/>
<path d="M647.037 339.404C645.08 339.404 643.092 338.962 641.261 338.046C637.284 336.056 634.632 332.203 634.19 327.782L625.605 242.291L626.868 242.165L635.453 327.656C635.863 331.667 638.231 335.109 641.829 336.909C645.68 338.835 650.257 338.488 653.76 336.025L680.59 317.108L681.316 318.15L654.486 337.067C652.277 338.614 649.657 339.404 647.037 339.404Z" fill="#3A6BEA"/>
<path opacity="0.6" d="M647.574 247.976C643.47 250.313 636.337 254.103 626.931 257.893C622.101 259.851 616.641 261.841 610.738 263.609C603.668 265.725 595.871 267.588 587.57 268.852C588.327 261.083 589.022 256.093 589.022 256.093L625.321 246.303L625.763 249.366C633.843 246.461 642.302 243.397 643.123 243.239C644.796 242.955 646.28 244.755 647.574 247.976Z" fill="#102048"/>
<path d="M567.842 136.747L560.803 148.653L551.744 147.169C551.334 145.147 550.892 143 550.482 140.852C548.619 131.22 547.073 121.43 548.809 120.324C550.04 119.535 550.703 121.177 551.018 122.693C550.703 120.103 550.513 115.966 552.155 115.177C553.891 114.356 554.806 118.682 555.185 121.272C554.932 118.745 554.743 114.387 556.447 113.282C558.373 112.019 559.099 118.398 559.32 121.114C559.225 118.935 559.225 114.513 560.866 114.103C562.823 113.629 563.234 123.514 563.265 125.599C563.265 124.462 563.423 121.303 565.064 121.461C567.116 121.714 567.842 136.747 567.842 136.747Z" fill="#F9B384"/>
<path d="M567.842 136.746L560.803 148.652L551.744 147.168C551.334 145.147 550.892 142.999 550.481 140.852L567.842 136.746Z" fill="#E28B6D"/>
<path d="M623.08 192.013L598.712 220.058L595.934 223.279C587.885 221.1 581.067 215.099 575.386 207.362C558.751 184.718 551.744 147.168 551.744 147.168L567.842 136.746C586.149 208.12 623.08 192.013 623.08 192.013Z" fill="#EB5D60"/>
<path d="M599.311 216.774L598.743 220.09L595.934 223.279C587.885 221.1 581.067 215.1 575.386 207.362C580.026 210.868 591.831 218.921 599.311 216.774Z" fill="#AB4446"/>
<path d="M648.647 247.881C636.084 256.25 620.492 258.682 605.783 259.503C601.49 259.756 597.229 259.819 592.936 259.629C590.853 259.535 588.454 259.629 586.434 258.966C582.646 257.703 585.171 254.545 588.328 251.702C591.484 248.86 592.747 205.594 592.747 205.594L623.048 192.014L646.406 198.962L646.879 216.647L647.132 226.09L647.448 237.649C647.511 239.638 648.394 241.47 649.91 242.765C652.245 244.754 650.604 246.586 648.647 247.881Z" fill="#EB5D60"/>
<path d="M647.195 226.122C642.555 224.764 639.493 221.1 639.493 221.1L646.911 216.679L647.195 226.122Z" fill="#AB4446"/>
<path d="M694.857 149.727L698.203 163.149L707.293 164.317C708.272 162.485 709.313 160.559 710.324 158.633C714.869 149.948 719.13 141.01 717.804 139.431C716.857 138.326 715.753 139.715 714.995 141.042C716.037 138.673 717.394 134.725 716.068 133.525C714.648 132.231 712.533 136.115 711.397 138.484C712.344 136.147 713.764 132.009 712.47 130.462C710.986 128.725 708.461 134.599 707.483 137.157C708.209 135.104 709.471 130.873 708.019 129.988C706.252 128.978 703.064 138.326 702.401 140.315C702.717 139.242 703.506 136.147 701.864 135.831C699.876 135.483 694.857 149.727 694.857 149.727Z" fill="#F9B384"/>
<path d="M694.857 149.727L698.203 163.149L707.293 164.317C708.272 162.485 709.313 160.559 710.323 158.633L694.857 149.727Z" fill="#E28B6D"/>
<path d="M625.289 191.067C625.289 191.067 667.585 199.594 694.857 149.695L707.293 164.286C707.293 164.286 672.162 221.953 639.493 221.038L625.289 191.067Z" fill="#EB5D60"/>
<path d="M620.333 208.689C614.652 208.689 610.99 204.804 610.927 204.773L611.843 203.92C612.127 204.236 619.166 211.594 628.982 204.173L629.74 205.183C626.299 207.804 623.08 208.689 620.333 208.689Z" fill="#AB4446"/>
<path d="M592.353 207.654L590.457 238.198L591.717 238.277L593.614 207.732L592.353 207.654Z" fill="#AB4446"/>
<path d="M700.065 174.044C694.794 168.77 689.649 158.538 689.428 158.096L690.564 157.527C690.627 157.622 695.835 168.012 700.98 173.16L700.065 174.044Z" fill="#AB4446"/>
<path d="M570.327 146.762L553.917 156.655L554.568 157.737L570.978 147.844L570.327 146.762Z" fill="#AB4446"/>
<path d="M618.44 217.185C619.608 217.185 620.554 216.238 620.554 215.069C620.554 213.9 619.608 212.953 618.44 212.953C617.272 212.953 616.325 213.9 616.325 215.069C616.325 216.238 617.272 217.185 618.44 217.185Z" fill="#652B14"/>
<path d="M631.633 177.392L629.329 195.204C628.792 199.278 625.068 202.152 620.996 201.646C616.924 201.11 614.052 197.383 614.588 193.309L616.893 175.497L631.633 177.392Z" fill="#F9B384"/>
<path d="M623.3 183.297C623.3 183.297 621.28 190.94 614.557 193.245L616.135 180.96L623.3 183.297Z" fill="#102048"/>
<path d="M612.537 162.927C612.537 162.927 610.106 173.475 609.664 180.992C609.412 185.318 615.156 192.045 625.415 182.697L631.728 176.697L632.233 166.338L622.763 162.138L612.537 162.927Z" fill="#F9B384"/>
<path d="M629.55 176.097C629.55 176.097 630.497 170.349 627.909 168.328C627.909 168.328 612.853 172.875 605.94 159.517C605.94 159.517 610.422 161.159 615.441 157.748C620.018 154.653 627.909 152.758 632.233 160.464C632.233 160.464 643.06 159.959 635.011 176.065L629.55 176.097Z" fill="#652B14"/>
<path d="M635.568 179.605C637.287 177.146 637.001 173.978 634.929 172.529C632.858 171.08 629.785 171.898 628.067 174.356C626.349 176.815 626.635 179.983 628.706 181.432C630.778 182.881 633.85 182.063 635.568 179.605Z" fill="#F9B384"/>
<path d="M612.663 173.823C613.134 173.823 613.515 173.441 613.515 172.97C613.515 172.499 613.134 172.117 612.663 172.117C612.193 172.117 611.811 172.499 611.811 172.97C611.811 173.441 612.193 173.823 612.663 173.823Z" fill="#102048"/>
<path d="M619.039 174.296C619.51 174.296 619.891 173.914 619.891 173.444C619.891 172.973 619.51 172.591 619.039 172.591C618.569 172.591 618.187 172.973 618.187 173.444C618.187 173.914 618.569 174.296 619.039 174.296Z" fill="#102048"/>
<path d="M613.673 179.665C613.61 179.665 613.515 179.634 613.452 179.57C612.695 178.876 612.41 178.149 612.537 177.455C612.726 176.507 613.705 175.939 614.083 175.749L614.588 173.728C614.62 173.57 614.809 173.444 614.967 173.507C615.125 173.538 615.251 173.728 615.188 173.886L614.62 176.191L614.462 176.254C614.462 176.254 613.294 176.76 613.136 177.581C613.042 178.055 613.294 178.56 613.862 179.097C613.989 179.223 613.989 179.413 613.862 179.539C613.831 179.634 613.736 179.665 613.673 179.665Z" fill="#102048"/>
<path d="M614.81 170.601C614.715 170.601 614.652 170.57 614.589 170.506C613.294 169.085 611.4 170.033 611.4 170.033C611.243 170.127 611.053 170.064 610.959 169.906C610.864 169.748 610.927 169.559 611.085 169.464C611.116 169.464 613.421 168.264 615.031 170.064C615.157 170.191 615.125 170.38 614.999 170.506C614.967 170.57 614.904 170.601 614.81 170.601Z" fill="#102048"/>
<path d="M621.722 171.864C621.627 171.864 621.564 171.833 621.501 171.769C619.891 169.969 617.808 171.043 617.713 171.106C617.556 171.201 617.366 171.138 617.272 170.98C617.177 170.822 617.24 170.633 617.398 170.538C617.429 170.538 620.018 169.18 621.943 171.327C622.069 171.454 622.038 171.643 621.912 171.769C621.848 171.833 621.785 171.864 621.722 171.864Z" fill="#102048"/>
<path d="M614.462 181.718C613.989 181.718 613.705 181.655 613.642 181.655C613.484 181.623 613.358 181.465 613.389 181.276C613.421 181.118 613.579 180.992 613.768 181.023C613.799 181.023 616.419 181.434 618.061 179.602C618.187 179.476 618.376 179.476 618.502 179.57C618.629 179.697 618.629 179.886 618.534 180.013C617.24 181.465 615.472 181.718 614.462 181.718Z" fill="#102048"/>
<path opacity="0.4" d="M623.995 180.297C625.686 180.297 627.056 178.925 627.056 177.233C627.056 175.541 625.686 174.17 623.995 174.17C622.304 174.17 620.933 175.541 620.933 177.233C620.933 178.925 622.304 180.297 623.995 180.297Z" fill="#EB5D60"/>
<path d="M630.276 177.96C630.245 177.96 630.213 177.96 630.213 177.96C630.055 177.929 629.929 177.739 629.992 177.581C629.992 177.518 630.371 176.16 631.602 175.497C632.423 175.055 633.433 175.055 634.569 175.465C634.727 175.528 634.822 175.718 634.758 175.876C634.695 176.034 634.506 176.128 634.348 176.065C633.37 175.718 632.549 175.718 631.886 176.065C630.908 176.602 630.592 177.739 630.592 177.739C630.56 177.865 630.434 177.96 630.276 177.96Z" fill="#102048"/>
<path d="M141.03 258.021L136.137 271.443L152.235 275.39L156.181 258.652L141.03 258.021Z" fill="#E28B6D"/>
<path d="M165.555 251.388C164.166 259.694 157.254 265.094 147.5 262.978C139.799 261.305 134.464 255.525 137.589 245.482C140.241 236.924 147.343 231.492 155.202 232.06C164.987 232.787 167.102 242.166 165.555 251.388Z" fill="#102048"/>
<path d="M50.5031 392.557L24.8413 416.116H59.6252L66.2853 394.009L50.5031 392.557Z" fill="#1F3C88"/>
<path d="M88.3801 391.073L66.2851 394.01L59.625 416.117H91.7575C91.7575 416.117 88.9167 390.536 88.3801 391.073Z" fill="#E28B6D"/>
<path d="M154.034 383.524L131.024 415.958L130.898 416.148H70.9253V416.116L72.4404 402.347L73.482 393.062L74.0817 387.725L107.95 382.861L105.425 365.618C102.711 359.775 102.016 353.933 102.269 348.848C102.711 339.816 106.056 333.184 106.056 333.184L137.4 332.142L138.852 336.658L142.766 348.753L154.034 383.524Z" fill="#7D69ED"/>
<path d="M83.1091 392.557L57.4473 416.116H92.2312L98.8912 394.009L83.1091 392.557Z" fill="#1F3C88"/>
<path d="M120.986 391.073L98.891 394.01L92.231 416.117H124.363C124.363 416.117 121.523 390.536 120.986 391.073Z" fill="#E28B6D"/>
<path d="M179.696 402.884C177.581 406.926 174.646 409.674 171.11 411.6C160.663 417.285 145.101 415.358 131.024 415.958C128.814 416.053 126.699 416.116 124.679 416.148C119.503 416.243 115.021 416.211 111.769 416.148C111.296 416.148 110.854 416.148 110.412 416.116C107.887 416.053 106.435 415.99 106.435 415.99L107.193 392.904L107.382 386.461L144.944 383.303L131.844 350.111L126.636 336.879L138.82 336.658L160.031 336.31L163.566 336.247C163.566 336.247 164.229 337.763 165.271 340.321C165.397 340.668 165.555 341.016 165.713 341.395C170.132 352.196 179.286 377.145 180.674 392.557C181.148 396.978 180.895 400.61 179.696 402.884Z" fill="#7D69ED"/>
<path d="M165.744 341.395C165.744 341.395 155.833 346.48 142.765 348.785C139.483 349.354 135.821 349.859 131.876 350.111C123.448 350.743 113.537 350.554 102.237 348.848C102.679 339.816 106.025 333.184 106.025 333.184L137.368 332.142L138.82 336.658L160.031 336.31L165.271 340.321L165.744 341.395Z" fill="#5B4DAD"/>
<path opacity="0.4" d="M179.696 402.884C177.581 406.926 174.645 409.674 171.11 411.6C170.416 409.926 170.005 408.095 170.005 406.168C170.005 399.568 174.551 394.041 180.706 392.557C181.148 396.978 180.895 400.61 179.696 402.884Z" fill="#5B4DAD"/>
<path d="M107.098 416.021L105.835 415.99L106.814 385.893L107.351 385.83C107.729 385.798 145.133 381.819 158.895 382.672L158.832 383.935C146.048 383.177 112.716 386.556 108.045 387.03L107.098 416.021Z" fill="#5B4DAD"/>
<path d="M137.463 383.935L129.319 362.46C128.467 361.923 124.9 359.649 122.438 356.996L123.353 356.144C126.005 358.986 130.108 361.481 130.171 361.512L130.361 361.639L138.631 383.525L137.463 383.935Z" fill="#5B4DAD"/>
<path d="M85.9268 407.129L81.1919 416.447L82.3174 417.02L87.0523 407.702L85.9268 407.129Z" fill="white"/>
<path d="M50.5733 406.496L45.8384 415.814L46.9638 416.387L51.6988 407.069L50.5733 406.496Z" fill="white"/>
<path d="M116.567 278.864C107.729 295.002 102.237 312.435 98.9228 330.658C98.3862 333.595 100.028 336.532 102.868 337.542C123.259 344.869 144.47 345.659 166.313 341.048C169.185 340.448 171.237 337.858 171.174 334.921C170.953 324.626 170.732 300.782 173.004 285.591L116.567 278.864Z" fill="#FBC343"/>
<path d="M130.992 234.966C130.992 234.966 141.188 225.807 140.493 224.702C139.673 223.439 138.094 223.786 137.305 224.039C137.021 224.165 136.863 224.228 136.863 224.228C136.863 224.228 137.053 224.133 137.305 224.039C138.599 223.502 142.261 221.891 141.282 220.596C140.462 219.491 137.874 219.87 137.874 219.87C137.874 219.87 142.356 216.364 139.925 216.143C137.495 215.922 134.622 217.249 134.622 217.249C134.622 217.249 137.495 214.564 136.137 214.249C135.411 214.091 126.921 217.438 116.694 223.565C119.566 227.986 124.111 234.65 126.952 238.819L130.992 234.966Z" fill="#E28B6D"/>
<path d="M200.844 263.452L192.416 238.787L176.129 246.525C178.37 255.999 180.959 265.789 180.959 265.789C147.343 277.79 111.517 254.894 111.517 254.894L126.952 238.85C124.111 234.713 119.566 228.018 116.694 223.597C109.434 227.955 101.322 233.703 94.5354 240.587C91.0318 244.156 88.7276 248.735 87.9385 253.662C86.9916 259.757 88.4751 266.01 92.0419 271.032L111.927 296.139L170.858 300.813L192.574 287.012C194.91 285.528 196.899 283.601 198.445 281.327C202.012 276.053 202.896 269.453 200.844 263.452Z" fill="#FBC343"/>
<path d="M91.7893 243.966C92.9572 245.924 93.6832 248.198 93.8726 250.535C94.2514 255.367 92.4206 260.641 88.917 264.936C89.0432 265.283 89.1695 265.599 89.2958 265.915C93.1466 261.367 95.2298 255.683 94.7879 250.44C94.567 247.819 93.6832 245.292 92.3259 243.113C92.1681 243.398 91.9787 243.682 91.7893 243.966Z" fill="white"/>
<path d="M201.538 266.01C198.603 267.62 196.046 269.926 194.31 272.831C191.754 277.126 191.122 282.369 192.259 287.201L192.574 287.011C192.764 286.885 192.921 286.759 193.079 286.664C192.101 282.179 192.732 277.347 195.099 273.368C196.678 270.715 198.982 268.568 201.665 267.02C201.633 266.673 201.602 266.357 201.538 266.01Z" fill="white"/>
<path d="M171.048 328.067C162.746 330.562 154.161 332.109 145.417 331.604C139.041 331.257 132.697 329.772 126.542 328.383C123.101 327.593 119.566 326.772 116.031 326.172C110.065 325.13 104.731 324.846 99.9648 325.288C99.9016 325.604 99.8385 325.919 99.7754 326.267C104.51 325.762 109.876 326.046 115.873 327.12C119.377 327.72 122.912 328.541 126.353 329.33C132.539 330.751 138.947 332.204 145.386 332.583C146.522 332.646 147.627 332.678 148.763 332.678C156.37 332.678 163.819 331.257 171.079 329.109C171.048 328.73 171.048 328.383 171.048 328.067Z" fill="white"/>
<path d="M126.258 266.515C126.668 265.252 127.078 263.925 127.268 262.567C126.952 262.441 126.668 262.314 126.352 262.22C126.194 263.578 125.784 264.873 125.342 266.231C124.963 267.431 124.585 268.631 124.364 269.894C123.227 276.779 128.246 284.421 135.537 286.916C137.558 287.611 139.735 287.927 141.977 287.927C146.743 287.927 151.825 286.379 156.433 283.442C162.651 279.463 167.291 273.621 171.016 268.347C170.574 268.41 170.132 268.473 169.722 268.536C166.123 273.526 161.704 278.926 155.928 282.653C149.426 286.822 141.945 288.085 135.853 286C128.972 283.663 124.237 276.494 125.311 270.052C125.5 268.852 125.879 267.652 126.258 266.515Z" fill="white"/>
<path d="M192.227 238.25C190.238 232.471 187.619 226.944 184.304 221.828C182.915 219.712 181.621 217.975 180.958 217.754C179.538 217.28 180.422 221.954 180.927 224.386C181.148 225.207 181.274 225.807 181.274 225.807C181.274 225.807 181.116 225.239 180.927 224.386C180.453 222.555 179.412 219.617 177.802 219.175C175.782 218.638 177.55 225.144 178.118 227.134C178.244 227.481 178.276 227.702 178.276 227.702C178.276 227.702 178.212 227.481 178.118 227.134C177.834 226.25 177.139 224.639 175.75 224.07C173.857 223.281 176.539 232.597 176.539 232.597C176.539 232.597 175.056 228.397 173.162 228.871C172.247 229.092 174.014 237.682 176.098 246.525L192.385 238.819L192.227 238.25Z" fill="#E28B6D"/>
<path d="M735.67 415.483H0V416.747H735.67V415.483Z" fill="#102048"/>
</svg>
