<svg width="93" height="93" viewBox="0 0 93 93" fill="none" xmlns="http://www.w3.org/2000/svg">
<path d="M45.951 0.0224609C44.3017 0.0224609 42.6537 0.111121 41.0138 0.287866C39.5108 0.44139 38.0263 0.693169 36.5616 0.998682C36.2782 1.05798 35.9946 1.12054 35.7111 1.18598C27.0817 3.15071 19.2021 7.5628 13.0172 13.8932C12.442 14.4827 11.879 15.0897 11.3284 15.714C-5.37884 34.8945 -3.37382 63.9873 15.8069 80.6946C34.1699 96.6897 61.811 95.6254 78.8898 78.2658C79.466 77.6763 80.0289 77.0693 80.5785 76.445C87.9517 68.0484 92.0149 57.2539 92.0084 46.0795C92.0084 20.6427 71.3878 0.022269 45.951 0.0224609ZM15.0637 16.196C15.3062 15.9443 15.558 15.7032 15.8052 15.4591C16.0907 15.1782 16.3748 14.8957 16.6664 14.6239C16.9228 14.3844 17.1869 14.1542 17.4494 13.9208C17.7457 13.6583 18.0405 13.3958 18.3445 13.1424C18.6116 12.9168 18.8864 12.7003 19.1597 12.4823C19.4667 12.2366 19.7738 11.991 20.09 11.7546C20.3694 11.5443 20.6535 11.3401 20.939 11.1405C21.2568 10.9133 21.5761 10.6799 21.9001 10.468C22.1902 10.2715 22.4835 10.0812 22.7782 9.89233C23.1068 9.682 23.4369 9.47475 23.77 9.27824C24.07 9.09919 24.3718 8.92302 24.6758 8.75011C25.0157 8.55667 25.3569 8.36784 25.6998 8.18361C26.0069 8.01991 26.3139 7.85967 26.6209 7.70308C26.971 7.52653 27.3241 7.35611 27.6787 7.18877C27.9858 7.04293 28.3051 6.89708 28.6214 6.75891C28.9822 6.60538 29.3475 6.45186 29.7129 6.29833C30.0307 6.16784 30.347 6.04041 30.6678 5.91759C31.0394 5.77635 31.4155 5.64432 31.7916 5.51229C32.1125 5.40022 32.4334 5.28815 32.7588 5.18221C33.1411 5.05939 33.5265 4.94579 33.9133 4.83371C34.2373 4.74006 34.5581 4.64334 34.8836 4.55584C35.008 4.5236 35.1323 4.4975 35.2567 4.46526C30.7124 8.87773 27.34 14.3539 25.445 20.398C21.8011 19.4369 18.2735 18.0794 14.9255 16.3496C14.9761 16.2958 15.0191 16.2421 15.0637 16.196ZM12.856 18.6678C16.5438 20.6659 20.4545 22.2222 24.5069 23.3042C22.5203 30.212 21.4775 37.3568 21.4073 44.5443H2.99974C3.33423 35.0662 6.80022 25.9665 12.856 18.6678ZM12.856 73.4912C6.80061 66.1923 3.33461 57.0925 2.99974 47.6147H21.4073C21.4775 54.8022 22.5201 61.947 24.5069 68.8548C20.4547 69.9371 16.544 71.4933 12.856 73.4912ZM34.8744 87.6093C34.5643 87.531 34.2434 87.4297 33.9241 87.336C33.5357 87.2224 33.1457 87.1088 32.7619 86.9844C32.438 86.8801 32.1186 86.768 31.7993 86.6559C31.4216 86.5254 31.044 86.3918 30.6709 86.2491C30.3516 86.1278 30.0369 86.0004 29.7206 85.8714C29.3537 85.7179 28.9868 85.5643 28.6229 85.4108C28.3097 85.2727 27.9981 85.1304 27.6879 84.984C27.3302 84.8151 26.9741 84.6432 26.6133 84.4651C26.3062 84.3116 25.9992 84.1581 25.6921 83.9907C25.3452 83.805 25.0013 83.6146 24.6574 83.4181C24.3503 83.2477 24.0586 83.0727 23.7623 82.8946C23.4246 82.6919 23.093 82.4831 22.7614 82.2697C22.4697 82.084 22.178 81.8951 21.8909 81.7017C21.5639 81.4806 21.2399 81.2503 20.9191 81.02C20.6381 80.8189 20.3572 80.6178 20.0808 80.4059C19.763 80.1664 19.4514 79.9193 19.1413 79.6706C18.8695 79.4541 18.5993 79.2392 18.3337 79.0165C18.0267 78.7617 17.7304 78.4961 17.4325 78.232C17.1715 78.0002 16.909 77.7715 16.6542 77.535C16.3609 77.2618 16.0769 76.9777 15.7914 76.6968C15.5442 76.4527 15.2924 76.2117 15.0498 75.9614C15.0053 75.9138 14.9623 75.8647 14.9178 75.8186C18.2656 74.088 21.7932 72.7299 25.4373 71.7687C27.3327 77.8125 30.7049 83.2885 35.249 87.7014C35.1246 87.6692 34.9988 87.6431 34.8744 87.6093ZM44.4159 88.945C37.8466 88.0115 32.0879 81.1551 28.4648 71.0302C33.703 69.8573 39.0485 69.228 44.4159 69.1526V88.945ZM44.4159 66.0821C38.7221 66.157 33.0523 66.8333 27.5006 68.0994C25.573 61.439 24.5561 54.5481 24.4778 47.6147H44.4159V66.0821ZM44.4159 44.5443H24.4778C24.5559 37.6109 25.5728 30.72 27.5006 24.0595C33.0523 25.3255 38.7223 26.0018 44.4159 26.0768V44.5443ZM44.4159 23.0064C39.0483 22.9315 33.703 22.3023 28.4648 21.1288C32.0879 11.0038 37.8466 4.14746 44.4159 3.21403V23.0064ZM79.0464 18.6678C85.1017 25.9667 88.5677 35.0664 88.9026 44.5443H70.4951C70.4248 37.3568 69.3822 30.212 67.3954 23.3042C71.4477 22.2217 75.3583 20.6655 79.0464 18.6678ZM57.0156 4.54816C57.3381 4.62799 57.6589 4.72932 57.9782 4.82297C58.3667 4.93657 58.7566 5.05018 59.1404 5.17454C59.4644 5.27893 59.7837 5.39101 60.103 5.50308C60.4807 5.63357 60.8584 5.76714 61.2314 5.90992C61.5508 6.0312 61.8655 6.15863 62.1817 6.28759C62.5487 6.44111 62.9156 6.59464 63.2794 6.74816C63.5926 6.88633 63.9043 7.02853 64.2144 7.17496C64.5721 7.34383 64.9283 7.51578 65.2891 7.69387C65.5961 7.84739 65.9032 8.00092 66.2102 8.16826C66.5572 8.35402 66.9011 8.54439 67.245 8.7409C67.552 8.91131 67.8437 9.08633 68.14 9.26442C68.4778 9.46707 68.8094 9.67586 69.141 9.88926C69.4327 10.075 69.7244 10.2639 70.0115 10.4573C70.3385 10.6784 70.6609 10.9071 70.9817 11.1374C71.2642 11.3385 71.5452 11.5412 71.823 11.7515C72.1393 11.9895 72.4494 12.2366 72.7611 12.4854C73.0313 12.7003 73.303 12.9152 73.5686 13.1394C73.8757 13.3942 74.172 13.6598 74.4698 13.9239C74.7308 14.1557 74.9933 14.3844 75.2482 14.6209C75.5414 14.8941 75.8254 15.1782 76.111 15.4591C76.3581 15.7032 76.6099 15.9443 76.8525 16.1945C76.897 16.2421 76.94 16.2912 76.9845 16.3373C73.6367 18.0679 70.1091 19.426 66.4651 20.3872C64.566 14.3426 61.1894 8.86698 56.6411 4.45604C56.7654 4.48828 56.8913 4.51438 57.0156 4.54816ZM47.4864 3.21403C54.0557 4.14746 59.8144 11.0038 63.4376 21.1288C58.1993 22.3017 52.8538 22.9309 47.4864 23.0064V3.21403ZM47.4864 26.0768C53.1802 26.002 58.8501 25.3257 64.4017 24.0595C66.3294 30.72 67.3463 37.6109 67.4246 44.5443H47.4864V26.0768ZM47.4864 47.6147H67.4246C67.3465 54.5481 66.3296 61.439 64.4017 68.0994C58.8501 66.8335 53.1802 66.1572 47.4864 66.0821V47.6147ZM47.4864 88.945V69.1526C52.854 69.2275 58.1993 69.8567 63.4376 71.0302C59.8144 81.1551 54.0557 88.0115 47.4864 88.945ZM76.8387 75.963C76.5961 76.2132 76.3459 76.4542 76.0987 76.6983C75.8131 76.9793 75.5276 77.2633 75.2344 77.5366C74.9795 77.7745 74.717 77.9971 74.456 78.2351C74.1581 78.4992 73.8618 78.7632 73.5579 79.0181C73.2892 79.2422 73.0159 79.4587 72.7427 79.6767C72.4356 79.9223 72.1286 80.168 71.8123 80.4044C71.5329 80.6147 71.2489 80.8189 70.9633 81.0185C70.6455 81.2457 70.3262 81.4791 70.0023 81.6909C69.7121 81.8874 69.4189 82.0778 69.1241 82.2651C68.7956 82.477 68.4645 82.6817 68.1308 82.8792C67.8237 83.0588 67.5305 83.2338 67.2281 83.4073C66.8882 83.6008 66.5464 83.7896 66.2025 83.9738C65.8955 84.1375 65.5884 84.2978 65.2814 84.4544C64.9314 84.6309 64.5782 84.8013 64.2236 84.9687C63.9166 85.1145 63.5972 85.2604 63.281 85.3985C62.9202 85.5521 62.5548 85.7056 62.1894 85.8591C61.8716 85.9881 61.5554 86.117 61.236 86.2383C60.8614 86.3811 60.4853 86.5147 60.1076 86.6452C59.7883 86.7572 59.469 86.8693 59.145 86.9737C58.7612 87.0981 58.3774 87.2117 57.9859 87.3237C57.6651 87.4189 57.3427 87.5141 57.0187 87.6016C56.8944 87.6339 56.77 87.66 56.6457 87.6922C61.19 83.2797 64.5623 77.8035 66.4574 71.7595C70.1013 72.7205 73.6289 74.0781 76.9768 75.8079C76.9262 75.8632 76.8832 75.9169 76.8387 75.963ZM79.0464 73.4912C75.3585 71.4931 71.4479 69.9367 67.3954 68.8548C69.382 61.947 70.4248 54.8022 70.4951 47.6147H88.9026C88.5683 57.0925 85.1021 66.1925 79.0464 73.4912Z" fill="white"/>
</svg>
