<svg width="92" height="92" viewBox="0 0 92 92" fill="none" xmlns="http://www.w3.org/2000/svg">
<g clip-path="url(#clip0)">
<path d="M45.9999 73.5994C30.7816 73.5994 18.3999 61.2177 18.3999 45.9994C18.3999 30.7811 30.7816 18.3994 45.9999 18.3994C61.2182 18.3994 73.5999 30.7811 73.5999 45.9994C73.5999 61.2177 61.2182 73.5994 45.9999 73.5994ZM45.9999 21.4661C32.4728 21.4661 21.4666 32.4723 21.4666 45.9994C21.4666 59.5265 32.4728 70.5327 45.9999 70.5327C59.527 70.5327 70.5332 59.5265 70.5332 45.9994C70.5332 32.4723 59.527 21.4661 45.9999 21.4661Z" fill="white"/>
<path d="M85.8684 32.2002C85.3517 32.2002 84.8457 31.9395 84.5574 31.4657C77.337 19.6238 62.5633 12.2669 46.0002 12.2669C29.4372 12.2669 14.6635 19.6238 7.44303 31.4657C7.00143 32.1879 6.05842 32.4179 5.33469 31.9763C4.61096 31.5347 4.38249 30.5917 4.82409 29.868C12.5981 17.1199 28.3746 9.2002 46.0002 9.2002C63.6259 9.2002 79.4024 17.1199 87.1764 29.868C87.6164 30.5917 87.388 31.5347 86.6658 31.9763C86.4158 32.1281 86.1398 32.2002 85.8684 32.2002Z" fill="white"/>
<path d="M45.9997 59.8002C38.3913 59.8002 32.1997 53.6086 32.1997 46.0002C32.1997 43.8152 32.7072 41.7115 33.707 39.7473C33.9032 39.3639 34.2513 39.0787 34.6668 38.9653C35.0824 38.8518 35.527 38.9177 35.892 39.1477C36.6372 39.6185 37.4805 39.8669 38.333 39.8669C40.8692 39.8669 42.933 37.803 42.933 35.2669C42.933 34.9479 42.8886 34.6029 42.7981 34.2165C42.6984 33.7979 42.7812 33.3548 43.025 32.9991C43.2688 32.6433 43.6522 32.4072 44.08 32.3474C44.8006 32.2462 45.4109 32.2002 45.9997 32.2002C53.6081 32.2002 59.7997 38.3918 59.7997 46.0002C59.7997 53.6086 53.6081 59.8002 45.9997 59.8002ZM35.8536 42.5119C35.4626 43.6343 35.2664 44.8011 35.2664 46.0002C35.2664 51.9189 40.081 56.7335 45.9997 56.7335C51.9184 56.7335 56.733 51.9189 56.733 46.0002C56.733 40.0815 51.9184 35.2669 45.9997 35.2669C45.9997 39.4943 42.5604 42.9335 38.333 42.9335C37.4882 42.9335 36.651 42.7894 35.8536 42.5119Z" fill="white"/>
<path d="M1.53511 81.2667C1.05978 81.2667 0.592115 81.0459 0.291581 80.6319C-0.205219 79.9465 -0.0518855 78.9882 0.635048 78.4914L89.5684 14.0914C90.2553 13.5946 91.2121 13.7479 91.7089 14.4349C92.2057 15.1203 92.0524 16.0786 91.3655 16.5754L2.43212 80.9754C2.16071 81.1717 1.84638 81.2667 1.53511 81.2667Z" fill="white"/>
<path d="M46.0002 82.7996C28.3745 82.7996 12.598 74.88 4.82403 62.1318C4.38396 61.4081 4.61243 60.4651 5.33463 60.0235C6.05836 59.5804 7.00136 59.8104 7.44296 60.5341C14.6634 72.376 29.4371 79.733 46.0002 79.733C62.5632 79.733 77.3369 72.376 84.5574 60.5341C84.999 59.8104 85.9404 59.5804 86.6657 60.0235C87.3894 60.4651 87.6179 61.4081 87.1763 62.1318C79.4023 74.88 63.6258 82.7996 46.0002 82.7996Z" fill="white"/>
</g>
<defs>
<clipPath id="clip0">
<rect width="92" height="92" fill="white"/>
</clipPath>
</defs>
</svg>
