<svg width="92" height="92" viewBox="0 0 92 92" fill="none" xmlns="http://www.w3.org/2000/svg">
<path d="M80.8381 18.6275L46.2605 0.202722C45.7475 -0.0710553 45.1327 -0.0672131 44.6236 0.212328L11.0028 18.6371C10.4514 18.9397 10.1094 19.518 10.1094 20.1472V44.2146C10.1295 63.9986 21.8511 81.897 39.978 89.8231L44.6447 91.8567C45.0809 92.0469 45.5775 92.0479 46.0146 91.8586L51.273 89.5877C69.7362 81.8336 81.7478 63.7623 81.7498 43.7372V20.1472C81.7498 19.5112 81.3991 18.9262 80.8381 18.6275ZM78.3069 43.7372C78.303 62.3819 67.1166 79.2053 49.9253 86.4205L49.9137 86.4263L45.3345 88.4033L41.3556 86.6674C24.4822 79.2898 13.5705 62.6307 13.5513 44.2146V21.1664L45.4622 3.6773L78.3069 21.1789V43.7372Z" fill="#343434"/>
<path d="M32.7618 43.0986C32.1441 42.3752 31.0576 42.2897 30.3343 42.9074C29.6109 43.5241 29.5254 44.6115 30.1431 45.3339L39.2364 55.9824C39.8435 56.6933 40.9069 56.7903 41.6312 56.2005L62.8091 38.9708C63.5468 38.3713 63.6583 37.2868 63.0579 36.549C62.4585 35.8122 61.3739 35.6998 60.6362 36.3002L40.7628 52.4675L32.7618 43.0986Z" fill="#343434"/>
</svg>
