<svg width="92" height="92" viewBox="0 0 92 92" fill="none" xmlns="http://www.w3.org/2000/svg">
<path d="M68.255 65.2899V50.302C71.6366 49.6121 74.1903 46.6163 74.1903 43.0329C74.1903 39.4495 71.6366 36.4537 68.255 35.7637V20.7758C68.255 19.9567 67.5918 19.292 66.7712 19.292H60.836C60.425 19.292 60.054 19.4582 59.7855 19.7282L59.6505 19.8633C52.3635 27.1487 42.6757 31.1624 32.3707 31.1624H22.2571C19.8029 31.1624 17.8057 33.1596 17.8057 35.6138V50.4519C17.8057 52.9061 19.8029 54.9033 22.2571 54.9033H23.7409V68.2576C23.7409 70.7118 25.7381 72.709 28.1923 72.709H31.1599C33.6141 72.709 35.6113 70.7118 35.6113 68.2576V66.7738H37.0951C39.5493 66.7738 41.5465 64.7766 41.5465 62.3223C41.5465 59.8681 39.5493 57.8709 37.0951 57.8709H35.6113V55.0472C44.6937 55.798 53.1336 59.6856 59.6505 66.204L59.7855 66.339C60.054 66.6061 60.425 66.7738 60.836 66.7738H66.7712C67.5918 66.7738 68.255 66.1105 68.255 65.2899ZM20.7733 50.4519V48.9681H29.6761V46.0005H20.7733V40.0653H29.6761V37.0977H20.7733V35.6138C20.7733 34.7963 21.438 34.13 22.2571 34.13H32.3707C32.4612 34.13 32.5517 34.1241 32.6437 34.1241V51.9431C32.5532 51.9431 32.4627 51.9372 32.3707 51.9372H22.2571C21.438 51.9357 20.7733 51.271 20.7733 50.4519ZM37.0951 60.8385C37.9142 60.8385 38.5789 61.5033 38.5789 62.3223C38.5789 63.1414 37.9142 63.8061 37.0951 63.8061H35.6113V60.8385H37.0951ZM32.6437 68.2576C32.6437 69.0766 31.979 69.7414 31.1599 69.7414H28.1923C27.3732 69.7414 26.7085 69.0766 26.7085 68.2576V54.9033H32.3707C32.4612 54.9033 32.5517 54.9093 32.6437 54.9093V68.2576ZM35.6113 33.9935C44.4088 33.3184 52.6528 29.9057 59.3522 24.1633V61.9009C52.6528 56.1586 44.4088 52.7459 35.6113 52.0707V33.9935ZM65.2874 63.8061H62.3198V22.2596H65.2874V63.8061ZM71.2226 43.0329C71.2226 44.9648 69.9777 46.597 68.255 47.2113V38.856C69.9777 39.4688 71.2226 41.101 71.2226 43.0329Z" fill="#343434"/>
<path d="M68.2548 11.8734C68.2548 18.4184 73.5802 23.7438 80.1253 23.7438C80.9889 23.7438 81.8287 23.6459 82.6403 23.4693C82.9564 23.9827 83.2799 24.4902 83.5751 25.0169L86.1629 23.5658C85.9507 23.1859 85.7118 22.8224 85.4878 22.4485C89.3427 20.4869 91.9957 16.488 91.9957 11.8734C91.9957 5.32831 86.6703 0.00292969 80.1253 0.00292969C75.5121 0.00292969 71.5148 2.65449 69.5517 6.50793C68.93 6.1355 68.3083 5.76009 67.6702 5.41882L66.271 8.03625C67.0381 8.44578 67.7949 8.89092 68.5338 9.34497C68.3543 10.1596 68.2548 11.0053 68.2548 11.8734ZM80.1253 2.97054C85.0352 2.97054 89.0281 6.96346 89.0281 11.8734C89.0281 16.7833 85.0352 20.7762 80.1253 20.7762C75.2154 20.7762 71.2225 16.7833 71.2225 11.8734C71.2225 6.96346 75.2154 2.97054 80.1253 2.97054Z" fill="#343434"/>
<path d="M6.505 22.4475C6.13405 23.0677 5.76013 23.6879 5.41737 24.3274L8.0348 25.7282C8.4473 24.9581 8.88799 24.2058 9.345 23.4654C10.1581 23.6434 11.0024 23.7428 11.8704 23.7428C18.4155 23.7428 23.7409 18.4175 23.7409 11.8724C23.7409 11.0088 23.6429 10.1705 23.4679 9.35883C23.9827 9.04129 24.4932 8.71486 25.0125 8.42551L23.5658 5.83479C23.1904 6.04401 22.8209 6.28735 22.447 6.51141C20.4839 2.655 16.4851 0.00195312 11.8704 0.00195312C5.32538 0.00195312 0 5.32733 0 11.8724C0 16.4855 2.65156 20.4829 6.505 22.4475ZM11.8704 2.96956C16.7803 2.96956 20.7733 6.96248 20.7733 11.8724C20.7733 16.7823 16.7803 20.7752 11.8704 20.7752C6.96053 20.7752 2.96761 16.7823 2.96761 11.8724C2.96761 6.96248 6.96053 2.96956 11.8704 2.96956Z" fill="#343434"/>
<path d="M85.4909 69.5541C85.8619 68.9339 86.2358 68.3137 86.5786 67.6756L83.9611 66.2734C83.5486 67.0435 83.1079 67.7958 82.6524 68.5362C81.8378 68.3582 80.9935 68.2588 80.1255 68.2588C73.5804 68.2588 68.2551 73.5841 68.2551 80.1292C68.2551 80.9928 68.353 81.8311 68.5281 82.6428C68.0147 82.9588 67.5072 83.2838 66.9805 83.5791L68.4331 86.1668C68.8145 85.9531 69.175 85.7157 69.5489 85.4917C71.512 89.3466 75.5109 91.9996 80.1255 91.9996C86.6706 91.9996 91.9959 86.6743 91.9959 80.1292C91.9959 75.5161 89.3444 71.5187 85.4909 69.5541ZM80.1255 89.032C75.2156 89.032 71.2227 85.0391 71.2227 80.1292C71.2227 75.2193 75.2156 71.2264 80.1255 71.2264C85.0354 71.2264 89.0283 75.2193 89.0283 80.1292C89.0283 85.0391 85.0354 89.032 80.1255 89.032Z" fill="#343434"/>
<path d="M23.7409 80.1303C23.7409 73.5853 18.4155 68.2599 11.8704 68.2599C11.0069 68.2599 10.167 68.3578 9.35539 68.5344C9.03934 68.021 8.71439 67.5121 8.42059 66.9883L5.83135 68.4365C6.04354 68.8148 6.28391 69.1799 6.50797 69.5553C2.65156 71.5183 0 75.5157 0 80.1303C0 86.6754 5.32538 92.0008 11.8704 92.0008C16.4836 92.0008 20.481 89.3492 22.444 85.4973C23.0657 85.8682 23.6845 86.2436 24.324 86.5864L25.7262 83.9689C24.9561 83.5564 24.2038 83.1158 23.4619 82.6587C23.6415 81.8426 23.7409 80.9984 23.7409 80.1303ZM11.8704 89.0332C6.96053 89.0332 2.96761 85.0402 2.96761 80.1303C2.96761 75.2204 6.96053 71.2275 11.8704 71.2275C16.7803 71.2275 20.7733 75.2204 20.7733 80.1303C20.7733 85.0402 16.7803 89.0332 11.8704 89.0332Z" fill="#343434"/>
<path d="M4.99695 59.1089C4.70613 58.1964 4.44349 57.269 4.22092 56.3535L1.33789 57.0613C1.57827 58.0421 1.86019 59.0362 2.17179 60.0141L4.99695 59.1089Z" fill="#343434"/>
<path d="M0.706182 54.0599L3.62779 53.5436C3.46161 52.5939 3.3251 51.6398 3.22568 50.708L0.275879 51.0241C0.381229 52.0227 0.525158 53.0435 0.706182 54.0599Z" fill="#343434"/>
<path d="M0.185547 41.847L3.14129 42.1111C3.22735 41.1526 3.34457 40.2015 3.49146 39.2637L0.557982 38.8037C0.402182 39.8171 0.276059 40.841 0.185547 41.847Z" fill="#343434"/>
<path d="M7.10651 64.4394C6.69846 63.5773 6.31712 62.7004 5.9625 61.8086L3.2041 62.9007C3.5795 63.8503 3.99052 64.7955 4.42527 65.7125L7.10651 64.4394Z" fill="#343434"/>
<path d="M1.13818 35.7889L4.03309 36.4462C4.24676 35.5084 4.48862 34.584 4.75867 33.6715L1.9157 32.8242C1.62636 33.7931 1.36521 34.7903 1.13818 35.7889Z" fill="#343434"/>
<path d="M6.76629 28.3032L4.06279 27.0791C3.64881 27.9931 3.25412 28.9472 2.89355 29.9147L5.67272 30.9548C6.01103 30.0512 6.37753 29.1579 6.76629 28.3032Z" fill="#343434"/>
<path d="M3.00471 47.8472C2.98096 47.2358 2.96761 46.6201 2.96761 46.0013C2.96761 45.6586 2.97206 45.3173 2.98096 44.976L0.0133542 44.9033C0.00445133 45.2683 0 45.6333 0 46.0013C0 46.6601 0.0133542 47.316 0.0400627 47.9688L3.00471 47.8472Z" fill="#343434"/>
<path d="M56.3457 87.779L57.0564 90.6591C58.0432 90.4157 59.0358 90.1353 60.0077 89.8252L59.1041 87C58.196 87.2893 57.2671 87.552 56.3457 87.779Z" fill="#343434"/>
<path d="M44.9741 89.0194L44.9014 91.987C45.2649 91.9959 45.6314 92.0003 46.0009 92.0003C46.6582 91.9988 47.314 91.9855 47.9654 91.9588L47.8437 88.9941C46.8867 89.0327 45.9237 89.0446 44.9741 89.0194Z" fill="#343434"/>
<path d="M38.7979 91.4398C39.8113 91.5971 40.8351 91.7232 41.8411 91.8137L42.1053 88.858C41.1467 88.7719 40.1971 88.6547 39.2563 88.5078L38.7979 91.4398Z" fill="#343434"/>
<path d="M50.7075 88.7786L51.0236 91.7284C52.0222 91.6216 53.043 91.4762 54.0594 91.2966L53.5431 88.375C52.5934 88.5427 51.6394 88.6792 50.7075 88.7786Z" fill="#343434"/>
<path d="M27.0752 87.9418C28.01 88.3632 28.9626 88.7564 29.9122 89.1095L30.9464 86.3274C30.0606 85.998 29.1688 85.63 28.2949 85.2383L27.0752 87.9418Z" fill="#343434"/>
<path d="M61.8066 86.0336L62.8928 88.795C63.838 88.4226 64.7832 88.013 65.7061 87.5738L64.4345 84.8926C63.5724 85.3036 62.688 85.6879 61.8066 86.0336Z" fill="#343434"/>
<path d="M32.8203 90.0842C33.7848 90.372 34.7819 90.6332 35.785 90.8617L36.4423 87.9668C35.5045 87.7546 34.5786 87.5113 33.669 87.2412L32.8203 90.0842Z" fill="#343434"/>
<path d="M89.1042 62.089L86.325 61.0488C85.9882 61.9465 85.6202 62.8398 85.2314 63.7019L87.9349 64.9245C88.3519 64.0031 88.7451 63.0475 89.1042 62.089Z" fill="#343434"/>
<path d="M90.8578 56.2149L87.9629 55.5576C87.7507 56.4954 87.5074 57.4213 87.2373 58.3308L90.0803 59.1796C90.3681 58.2136 90.6293 57.218 90.8578 56.2149Z" fill="#343434"/>
<path d="M91.2898 37.9434L88.3682 38.4597C88.5358 39.4123 88.6709 40.3664 88.7703 41.2968L91.7201 40.9807C91.6162 39.9836 91.4708 38.9612 91.2898 37.9434Z" fill="#343434"/>
<path d="M91.8108 50.1586L88.8551 49.8945C88.769 50.8531 88.6518 51.8027 88.5049 52.7434L91.4384 53.2019C91.5942 52.1885 91.7203 51.1647 91.8108 50.1586Z" fill="#343434"/>
<path d="M88.9907 44.1539C89.0145 44.7667 89.0278 45.3825 89.0278 46.0012C89.0278 46.344 89.0234 46.6853 89.0145 47.0265L91.9821 47.0993C91.991 46.7342 91.9954 46.3692 91.9954 46.0012C91.9954 45.3424 91.9821 44.6851 91.9554 44.0322L88.9907 44.1539Z" fill="#343434"/>
<path d="M84.8901 27.5656C85.2982 28.4277 85.6795 29.3046 86.0342 30.1964L88.7925 29.1043C88.4171 28.1546 88.0061 27.2095 87.5714 26.2939L84.8901 27.5656Z" fill="#343434"/>
<path d="M90.6591 34.9455C90.4187 33.9632 90.1368 32.969 89.8252 31.9912L87 32.8948C87.2908 33.8074 87.5535 34.7348 87.776 35.6503L90.6591 34.9455Z" fill="#343434"/>
<path d="M53.199 0.563879C52.1915 0.405112 51.1692 0.278989 50.1558 0.188477L49.8887 3.14422C50.8472 3.23028 51.7968 3.3475 52.7376 3.49588L53.199 0.563879Z" fill="#343434"/>
<path d="M41.2929 3.22519L40.9709 0.275391C39.9545 0.386676 38.9351 0.532089 37.938 0.708662L38.4544 3.63176C39.3906 3.46557 40.3388 3.33054 41.2929 3.22519Z" fill="#343434"/>
<path d="M64.9196 4.06326C63.9818 3.64038 63.0292 3.24865 62.0841 2.89551L61.0469 5.67616C61.9461 6.0115 62.8304 6.37651 63.6999 6.76824L64.9196 4.06326Z" fill="#343434"/>
<path d="M30.1905 5.96789L29.1014 3.20801C28.1607 3.57896 27.2155 3.98997 26.2881 4.43066L27.5597 7.1119C28.4263 6.6994 29.3121 6.3151 30.1905 5.96789Z" fill="#343434"/>
<path d="M35.6484 4.22284L34.9376 1.34277C33.9509 1.58612 32.9582 1.86656 31.9863 2.17667L32.89 5.00332C33.7981 4.7125 34.7269 4.44986 35.6484 4.22284Z" fill="#343434"/>
<path d="M59.1771 1.92205C58.2053 1.63122 57.2066 1.36859 56.2095 1.14453L55.5552 4.03795C56.487 4.25013 57.4188 4.49348 58.3254 4.76502L59.1771 1.92205Z" fill="#343434"/>
<path d="M45.9518 2.9717C46.3198 2.97615 46.6685 2.97615 47.0261 2.98357L47.0929 0.0174468C46.7279 0.00854401 46.3643 0.00409268 45.9993 0.00409268C45.3123 -0.0107454 44.6787 0.0174469 44.0273 0.0456392L44.152 3.01028C44.7485 2.98506 45.3479 2.9717 45.9518 2.9717Z" fill="#343434"/>
</svg>
