<svg width="92" height="81" viewBox="0 0 92 81" fill="none" xmlns="http://www.w3.org/2000/svg">
<path d="M57.8665 64.846H35.6614C35.3128 64.846 34.9785 64.7075 34.7321 64.461C34.4856 64.2145 34.3471 63.8803 34.3471 63.5317C34.3471 63.1831 34.4856 62.8488 34.7321 62.6023C34.9785 62.3558 35.3128 62.2174 35.6614 62.2174H57.8665C58.3195 62.2198 58.7684 62.1326 59.1875 61.9607C59.6067 61.7888 59.9876 61.5357 60.3084 61.2159C60.3676 61.1567 60.4175 61.1002 60.4662 61.0463C60.4924 61.0062 60.5209 60.9676 60.5516 60.9307C61.0628 60.3152 61.3419 59.5399 61.3402 58.7397C61.3391 57.8177 60.9724 56.9338 60.3204 56.2818C59.6685 55.6299 58.7845 55.2632 57.8625 55.2621H45.4556C45.2723 55.262 45.0912 55.2236 44.9237 55.1494C44.7562 55.0751 44.6061 54.9667 44.483 54.831C42.8274 53.0134 40.811 51.5612 38.5624 50.567C36.3139 49.5729 33.8826 49.0587 31.4241 49.0573H15.4764C15.1278 49.0573 14.7935 48.9188 14.5471 48.6724C14.3006 48.4259 14.1621 48.0916 14.1621 47.743C14.1621 47.3944 14.3006 47.0601 14.5471 46.8137C14.7935 46.5672 15.1278 46.4287 15.4764 46.4287H31.428C34.1536 46.4303 36.851 46.9804 39.3596 48.0461C41.8682 49.1119 44.1366 50.6715 46.0299 52.6322H57.8665C59.4847 52.6339 61.0363 53.2773 62.1809 54.4212C63.3256 55.5651 63.9699 57.1162 63.9727 58.7345C63.9734 60.0975 63.5135 61.4207 62.6676 62.4894C62.6344 62.5435 62.5971 62.595 62.5559 62.6432C62.4245 62.7904 62.3114 62.9245 62.1761 63.0598C61.6111 63.6272 60.9395 64.0771 60.1998 64.3837C59.4602 64.6903 58.6671 64.8474 57.8665 64.846Z" fill="#343434"/>
<path d="M46.7146 80.3838C43.4759 80.3858 40.2617 79.8232 37.2162 78.7212L15.0282 70.6645C14.7005 70.5455 14.4336 70.3012 14.2861 69.9853C14.1386 69.6694 14.1226 69.3079 14.2416 68.9803C14.3606 68.6526 14.605 68.3857 14.9208 68.2381C15.2367 68.0906 15.5982 68.0746 15.9259 68.1937L38.1165 76.2516C41.3791 77.4264 44.8474 77.9217 48.3084 77.707C51.7694 77.4923 55.15 76.5721 58.2423 75.003L88.3503 59.6257C86.7231 58.3258 84.7901 57.4644 82.7355 57.1237C80.6809 56.7829 78.5733 56.9742 76.6136 57.6793L62.1747 62.9365C61.9867 63.0384 61.7761 63.0917 61.5623 63.0915C61.2965 63.0942 61.0362 63.0163 60.8157 62.868C60.5951 62.7197 60.4247 62.508 60.3269 62.2609C60.2291 62.0138 60.2086 61.7429 60.2679 61.4838C60.3272 61.2248 60.4637 60.9898 60.6593 60.8099C60.7886 60.6852 60.9427 60.5889 61.1115 60.5273L75.7173 55.2097C78.1658 54.3292 80.8029 54.1085 83.3637 54.5699C85.9245 55.0313 88.3188 56.1585 90.306 57.8383L91.5467 58.9134C91.7092 59.0543 91.8347 59.2331 91.9121 59.4338C91.9895 59.6346 92.0163 59.8513 91.9904 60.0649C91.9644 60.2785 91.8864 60.4825 91.7632 60.6589C91.64 60.8353 91.4754 60.9788 91.2838 61.0767L59.4318 77.3438C55.4911 79.344 51.1339 80.3856 46.7146 80.3838Z" fill="#343434"/>
<path d="M15.4693 74.3936H1.3143C0.965725 74.3936 0.631428 74.2551 0.384949 74.0086C0.13847 73.7622 0 73.4279 0 73.0793V44.4618C0 44.1132 0.13847 43.7789 0.384949 43.5324C0.631428 43.2859 0.965725 43.1475 1.3143 43.1475H15.4693C15.8179 43.1475 16.1522 43.2859 16.3986 43.5324C16.6451 43.7789 16.7836 44.1132 16.7836 44.4618V73.0793C16.7836 73.4279 16.6451 73.7622 16.3986 74.0086C16.1522 74.2551 15.8179 74.3936 15.4693 74.3936ZM2.6286 71.765H14.155V45.7761H2.6286V71.765Z" fill="#343434"/>
<path d="M58.4838 46.8758C53.8482 46.8758 49.3167 45.5012 45.4624 42.9258C41.6081 40.3504 38.604 36.6899 36.83 32.4072C35.0561 28.1245 34.5919 23.4119 35.4963 18.8654C36.4006 14.3189 38.6329 10.1427 41.9107 6.86481C45.1885 3.58696 49.3648 1.35472 53.9113 0.450363C58.4578 -0.453993 63.1704 0.0101551 67.4531 1.78411C71.7358 3.55807 75.3963 6.56216 77.9717 10.4165C80.5471 14.2708 81.9217 18.8023 81.9217 23.4379C81.9144 29.6518 79.4427 35.609 75.0488 40.0029C70.6549 44.3968 64.6977 46.8685 58.4838 46.8758ZM58.4838 2.62729C54.3682 2.62729 50.345 3.8477 46.9229 6.1342C43.5009 8.42069 40.8337 11.6706 39.2586 15.4729C37.6836 19.2752 37.2714 23.4592 38.0743 27.4958C38.8771 31.5324 40.8588 35.2402 43.7689 38.1505C46.679 41.0608 50.3868 43.0428 54.4233 43.8459C58.4598 44.6489 62.6438 44.237 66.4463 42.6622C70.2487 41.0874 73.4987 38.4205 75.7854 34.9986C78.0722 31.5767 79.2928 27.5535 79.2931 23.4379C79.2868 17.9208 77.0924 12.6316 73.1913 8.73042C69.2901 4.82928 64.0008 2.63487 58.4838 2.62861V2.62729Z" fill="#343434"/>
<path d="M58.4884 24.7574C57.0732 24.713 55.7024 24.2527 54.5471 23.434C53.3919 22.6154 52.5033 21.4746 51.9924 20.154C51.4815 18.8335 51.3709 17.3918 51.6743 16.0087C51.9777 14.6257 52.6818 13.3627 53.6986 12.3773C54.7154 11.392 55.9999 10.7279 57.3918 10.4681C58.7837 10.2083 60.2213 10.3642 61.5251 10.9163C62.8289 11.4685 63.9412 12.3924 64.7232 13.5728C65.5052 14.7532 65.9221 16.1378 65.9221 17.5537C65.9221 17.9023 65.7836 18.2366 65.5371 18.4831C65.2906 18.7295 64.9563 18.868 64.6078 18.868C64.2592 18.868 63.9249 18.7295 63.6784 18.4831C63.4319 18.2366 63.2935 17.9023 63.2935 17.5537C63.3408 16.5931 63.0991 15.6404 62.5996 14.8185C62.1002 13.9965 61.3659 13.3432 60.4915 12.9426C59.6171 12.5421 58.6428 12.4128 57.6942 12.5714C56.7456 12.73 55.8663 13.1692 55.1697 13.8324C54.4732 14.4956 53.9914 15.3523 53.7865 16.292C53.5816 17.2317 53.663 18.2112 54.0202 19.1042C54.3774 19.9972 54.994 20.7626 55.7904 21.3017C56.5869 21.8409 57.5266 22.1289 58.4884 22.1288C58.837 22.1288 59.1713 22.2673 59.4177 22.5137C59.6642 22.7602 59.8027 23.0945 59.8027 23.4431C59.8027 23.7917 59.6642 24.126 59.4177 24.3724C59.1713 24.6189 58.837 24.7574 58.4884 24.7574Z" fill="#343434"/>
<path d="M58.4854 36.534C56.5452 36.5618 54.6731 35.819 53.2796 34.4687C51.8861 33.1183 51.085 31.2705 51.0518 29.3303C51.0518 28.9817 51.1902 28.6475 51.4367 28.401C51.6832 28.1545 52.0175 28.016 52.3661 28.016C52.7146 28.016 53.0489 28.1545 53.2954 28.401C53.5419 28.6475 53.6804 28.9817 53.6804 29.3303C53.6328 30.291 53.8742 31.2438 54.3735 32.0659C54.8728 32.888 55.607 33.5416 56.4813 33.9423C57.3557 34.3431 58.3301 34.4726 59.2788 34.3141C60.2274 34.1557 61.1069 33.7165 61.8035 33.0534C62.5002 32.3903 62.9822 31.5336 63.1872 30.5939C63.3922 29.6541 63.3109 28.6746 62.9537 27.7815C62.5966 26.8885 61.98 26.1229 61.1835 25.5837C60.387 25.0445 59.4472 24.7564 58.4854 24.7566C58.1369 24.7566 57.8026 24.6181 57.5561 24.3716C57.3096 24.1251 57.1711 23.7908 57.1711 23.4423C57.1711 23.0937 57.3096 22.7594 57.5561 22.5129C57.8026 22.2664 58.1369 22.128 58.4854 22.128C59.4515 22.096 60.4141 22.2587 61.316 22.6063C62.2179 22.9539 63.0407 23.4794 63.7354 24.1515C64.4301 24.8236 64.9825 25.6285 65.3597 26.5184C65.737 27.4083 65.9314 28.3651 65.9314 29.3316C65.9314 30.2982 65.737 31.2549 65.3597 32.1448C64.9825 33.0348 64.4301 33.8397 63.7354 34.5118C63.0407 35.1839 62.2179 35.7093 61.316 36.057C60.4141 36.4046 59.4515 36.5673 58.4854 36.5353V36.534Z" fill="#343434"/>
</svg>
