<svg width="92" height="92" viewBox="0 0 92 92" fill="none" xmlns="http://www.w3.org/2000/svg">
<g clip-path="url(#clip0)">
<path d="M56.4059 37.4541L42.5828 50.5102L35.9488 43.6852C35.2134 42.928 34.0023 42.9108 33.2459 43.6463C32.4887 44.3825 32.4715 45.5927 33.207 46.3499L41.1636 54.5178C41.9028 55.2614 43.0974 55.2869 43.8673 54.5747L59.0713 40.2341C59.4405 39.8859 59.6562 39.4051 59.6705 38.898C59.6847 38.391 59.4967 37.899 59.1477 37.5305C58.4078 36.7613 57.1877 36.7276 56.4059 37.4541Z" fill="#343434"/>
<path d="M46.1485 17.3604C30.3506 17.3604 17.5049 30.206 17.5049 46.004C17.5049 61.8027 30.3506 74.6484 46.1485 74.6484C61.9473 74.6484 74.7929 61.8027 74.7929 46.004C74.7929 30.206 61.9473 17.3604 46.1485 17.3604ZM46.1485 70.8139C32.4596 70.8139 21.3394 59.6743 21.3394 46.004C21.3394 32.3337 32.4596 21.1949 46.1485 21.1949C59.851 21.1949 70.9584 32.3023 70.9584 46.004C70.9584 59.7057 59.851 70.8139 46.1485 70.8139Z" fill="#343434"/>
<path d="M85.5672 35.4599L86.2001 24.0903C86.2443 23.3272 85.8294 22.6104 85.1456 22.2689L75.0223 17.15L69.9033 7.02667C69.5551 6.34888 68.8428 5.93622 68.0819 5.97217L56.6929 6.5863L47.2024 0.316237C46.5629 -0.105412 45.7338 -0.105412 45.0935 0.316237L35.603 6.5863L24.2342 5.95345C23.4703 5.90851 22.7543 6.32342 22.4128 7.00794L17.2931 17.1313L7.17054 22.2502C6.49201 22.5977 6.0801 23.3099 6.11604 24.0716L6.74814 35.4412L0.478834 44.9316C0.0571855 45.5712 0.0571855 46.4003 0.478834 47.0406L6.72942 56.5498L6.09657 67.9193C6.05238 68.6825 6.46654 69.3992 7.15107 69.7407L17.2744 74.8597L22.3933 84.983C22.7408 85.6615 23.4531 86.0735 24.2147 86.0375L35.5843 85.4047L45.0747 91.674C45.7106 92.1091 46.5479 92.1091 47.1837 91.674L56.6742 85.4047L68.0437 86.0375C68.8069 86.0817 69.5229 85.6668 69.8651 84.983L74.9841 74.8597L85.1074 69.7407C85.7852 69.3925 86.1978 68.681 86.1619 67.9193L85.529 56.5498L91.7983 47.0593C92.22 46.4197 92.22 45.5899 91.7983 44.9503L85.5672 35.4599ZM82.0008 54.9778C81.7671 55.3208 81.6586 55.7335 81.6945 56.1476L82.2884 66.903L72.7215 71.7344C72.3568 71.9171 72.061 72.2137 71.8783 72.5784L67.0461 82.1453L56.2907 81.5514C55.8788 81.5364 55.4721 81.6428 55.1209 81.8577L46.1479 87.7825L37.1757 81.8577C36.8642 81.6473 36.4972 81.5334 36.1213 81.5319H36.0254L25.2692 82.1266L20.4379 72.559C20.2551 72.1942 19.9593 71.8984 19.5938 71.7157L10.0075 66.903L10.6021 56.1476C10.6171 55.7357 10.51 55.329 10.2951 54.9778L4.37103 46.0048L10.2951 37.0319C10.5295 36.6896 10.6381 36.2762 10.6021 35.8628L10.0075 25.1066L19.5751 20.2753C19.9398 20.0925 20.2357 19.7967 20.4184 19.432L25.2498 9.86437L36.0059 10.459C36.4171 10.4733 36.8237 10.3669 37.1757 10.152L46.1479 4.22791L55.1209 10.152C55.4639 10.3864 55.8773 10.495 56.2907 10.459L67.0461 9.86437L71.8783 19.432C72.061 19.7967 72.3568 20.0925 72.7215 20.2753L82.2884 25.1066L81.6945 35.8628C81.6795 36.274 81.7866 36.6806 82.0008 37.0319L87.9256 46.0048L82.0008 54.9778Z" fill="#343434"/>
</g>
<defs>
<clipPath id="clip0">
<rect width="92" height="92" fill="white"/>
</clipPath>
</defs>
</svg>
