<svg width="81" height="92" viewBox="0 0 81 92" fill="none" xmlns="http://www.w3.org/2000/svg">
<path d="M71.6838 31.4709C71.6838 14.09 57.5937 0 40.2128 0C22.8319 0 8.74192 14.09 8.74192 31.4709C4.24857 32.0304 0 34.9677 0 41.7864V58.2212C0 65.9141 5.38502 68.7115 10.4903 68.7115H15.5606C16.5262 68.7115 17.309 67.9287 17.309 66.9631V33.1144C17.309 32.1489 16.5262 31.366 15.5606 31.366H12.2387C12.2387 15.9164 24.7632 3.39187 40.2128 3.39187C55.6624 3.39187 68.187 15.9164 68.187 31.366H64.8651C63.8995 31.366 63.1167 32.1489 63.1167 33.1144V66.9107C63.1167 67.8762 63.8995 68.6591 64.8651 68.6591H68.187C67.6974 80.6705 61.9278 83.4854 50.4059 83.9924V82.821C50.4059 80.8897 48.8405 79.3242 46.9092 79.3242H35.9118C33.9805 79.3242 32.415 80.8897 32.415 82.821V88.5032C32.415 90.4345 33.9805 92 35.9118 92H46.9441C48.8754 92 50.4409 90.4345 50.4409 88.5032V87.4892C61.5256 86.9821 71.1068 84.6917 71.6838 68.5542C76.1771 67.9947 80.4257 65.0574 80.4257 58.2387V41.8039C80.4257 34.9502 76.1946 32.0304 71.6838 31.4709ZM13.8122 34.7404V65.1623H10.4029C7.81528 65.1623 3.40935 64.2531 3.40935 58.1688V41.7339C3.40935 35.702 7.76283 34.7404 10.4029 34.7404H13.8122ZM46.9441 85.8632V88.5207H35.9118V82.8385H46.9441V85.8632ZM76.9289 58.2212C76.9289 64.2531 72.5754 65.2148 69.9354 65.2148H66.6134V34.8628H70.0228C72.6104 34.8628 77.0163 35.772 77.0163 41.8563L76.9289 58.2212Z" fill="#343434"/>
</svg>
