<svg width="118" height="118" viewBox="0 0 118 118" fill="none" xmlns="http://www.w3.org/2000/svg">
<circle cx="58.9005" cy="58.9005" r="58.4005" fill="white" stroke="#5F47E6"/>
<circle cx="58.9005" cy="58.901" r="48.2984" fill="#5F47E6"/>
<path d="M60.8386 63.7514C62.2811 63.3765 63.3547 62.0748 63.3547 60.5157C63.3547 58.6655 61.8501 57.1608 59.9999 57.1608C59.0748 57.1608 58.3224 56.4085 58.3224 55.4834C58.3224 54.5583 59.0748 53.806 59.9999 53.806C60.925 53.806 61.6773 54.5583 61.6773 55.4834H63.3547C63.3547 53.9243 62.2811 52.6226 60.8386 52.2477V50.4512H59.1611V52.2477C57.7186 52.6226 56.645 53.9243 56.645 55.4834C56.645 57.3336 58.1497 58.8383 59.9999 58.8383C60.925 58.8383 61.6773 59.5906 61.6773 60.5157C61.6773 61.4408 60.925 62.1931 59.9999 62.1931C59.0748 62.1931 58.3224 61.4408 58.3224 60.5157H56.645C56.645 62.0748 57.7186 63.3765 59.1611 63.7514V65.5479H60.8386V63.7514Z" fill="white"/>
<path d="M59.9999 47.0967C53.988 47.0967 49.0967 51.988 49.0967 57.9999H50.7741C50.7741 52.9131 54.9131 48.7741 59.9999 48.7741V47.0967Z" fill="white"/>
<path d="M69.2258 58C69.2258 63.0868 65.0868 67.2258 60 67.2258V68.9032C66.0119 68.9032 70.9032 64.0119 70.9032 58H69.2258Z" fill="white"/>
<path d="M51.2775 38.0088C48.6482 39.157 46.3006 40.7916 44.3003 42.8666L45.5072 44.0316C47.3549 42.116 49.5221 40.6063 51.9493 39.5453L51.2775 38.0088Z" fill="white"/>
<path d="M54.7672 36.8262C54.1767 36.9713 53.5896 37.1424 53.021 37.3344L53.5594 38.9238C54.0828 38.7468 54.6246 38.5891 55.1681 38.4541L54.7672 36.8262Z" fill="white"/>
<path d="M58.2572 36.2627C57.6844 36.308 57.0973 36.3784 56.5127 36.4715L56.7777 38.128C57.3179 38.0408 57.8597 37.9762 58.3881 37.9359L58.2572 36.2627Z" fill="white"/>
<path d="M60 33.6774C66.4975 33.6774 72.605 36.2078 77.1986 40.8014C77.5131 41.1159 78.07 41.1159 78.3845 40.8014L80.129 39.0569V45.4194H73.7666L75.4197 43.7663C75.7476 43.4383 75.7476 42.9083 75.4197 42.5803C71.3008 38.4614 65.8248 36.1935 60 36.1935V37.871C65.096 37.871 69.9035 39.7522 73.6282 43.1859L71.149 45.6651C70.9091 45.905 70.837 46.2656 70.967 46.5793C71.097 46.893 71.4031 47.0968 71.7419 47.0968H80.9677C81.4307 47.0968 81.8064 46.7219 81.8064 46.2581V37.0323C81.8064 36.6934 81.6018 36.3865 81.289 36.2573C80.9736 36.1256 80.6146 36.1986 80.3748 36.4393L77.7823 39.0317C72.9472 34.491 66.6652 32 60 32C45.6639 32 34 43.6631 34 58H35.6774C35.6774 44.589 46.5882 33.6774 60 33.6774Z" fill="white"/>
<path d="M75.7008 73.1337L74.4939 71.9688C72.6462 73.8844 70.479 75.394 68.0518 76.455L68.7236 77.9915C71.3529 76.8433 73.6996 75.2087 75.7008 73.1337Z" fill="white"/>
<path d="M65.2329 79.1738C65.8234 79.0287 66.4105 78.8576 66.9791 78.6655L66.4407 77.0762C65.9173 77.2531 65.3755 77.4108 64.832 77.5459L65.2329 79.1738Z" fill="white"/>
<path d="M61.7427 79.7374C62.3155 79.6921 62.9026 79.6216 63.4872 79.5285L63.2221 77.8721C62.682 77.9593 62.1402 78.0239 61.6118 78.0641L61.7427 79.7374Z" fill="white"/>
<path d="M84.3224 58C84.3224 71.411 73.4116 82.3226 59.9998 82.3226C53.5023 82.3226 47.3948 79.7922 42.8012 75.1986C42.4867 74.8841 41.9298 74.8841 41.6153 75.1986L39.8708 76.9431V70.5806H46.2332L44.5801 72.2337C44.2522 72.5617 44.2522 73.0917 44.5801 73.4197C48.699 77.5386 54.175 79.8065 59.9998 79.8065V78.129C54.9038 78.129 50.0963 76.2478 46.3716 72.8141L48.8508 70.3349C49.0907 70.095 49.1628 69.7344 49.0328 69.4207C48.9028 69.107 48.5967 68.9032 48.2579 68.9032H39.0321C38.5691 68.9032 38.1934 69.2781 38.1934 69.7419V78.9677C38.1934 79.3066 38.398 79.6135 38.7108 79.7427C39.0245 79.8735 39.3852 79.8006 39.625 79.5607L42.2175 76.9683C47.0526 81.509 53.3346 84 59.9998 84C74.3359 84 85.9998 72.3369 85.9998 58H84.3224Z" fill="white"/>
<path d="M74.2578 58.0003C74.2578 50.1382 67.8618 43.7422 59.9998 43.7422C52.1377 43.7422 45.7417 50.1382 45.7417 58.0003C45.7417 65.8623 52.1377 72.2583 59.9998 72.2583C67.8618 72.2583 74.2578 65.8623 74.2578 58.0003ZM59.9998 70.5809C53.0628 70.5809 47.4191 64.9372 47.4191 58.0003C47.4191 51.0633 53.0628 45.4196 59.9998 45.4196C66.9367 45.4196 72.5804 51.0633 72.5804 58.0003C72.5804 64.9372 66.9367 70.5809 59.9998 70.5809Z" fill="white"/>
</svg>
