<svg width="118" height="118" viewBox="0 0 118 118" fill="none" xmlns="http://www.w3.org/2000/svg">
<circle cx="58.9005" cy="58.9005" r="58.4005" fill="white" stroke="#DDDDDD"/>
<circle cx="58.9005" cy="58.901" r="48.2984" fill="#F5F5F5"/>
<g clip-path="url(#clip0)">
<path d="M59.6788 61.3792C59.5825 61.3584 59.4838 61.3547 59.3864 61.3692C58.4097 61.2555 57.673 60.4292 57.6713 59.4464C57.6713 58.9753 57.2894 58.5934 56.8184 58.5934C56.3473 58.5934 55.9654 58.9753 55.9654 59.4464C55.9679 61.0877 57.0658 62.5254 58.6484 62.9598V63.8127C58.6484 64.2838 59.0303 64.6657 59.5013 64.6657C59.9724 64.6657 60.3543 64.2838 60.3543 63.8127V63.0114C62.181 62.6291 63.4225 60.9278 63.2305 59.0715C63.0381 57.2153 61.4742 55.8047 59.6079 55.8042C58.5384 55.8042 57.6713 54.9371 57.6713 53.8676C57.6713 52.7981 58.5384 51.931 59.6079 51.931C60.6775 51.931 61.5446 52.7981 61.5446 53.8676C61.5446 54.3386 61.9265 54.7206 62.3975 54.7206C62.8686 54.7206 63.2505 54.3386 63.2505 53.8676C63.248 52.1442 62.0406 50.6578 60.3543 50.3021V49.5258C60.3543 49.0548 59.9724 48.6729 59.5013 48.6729C59.0303 48.6729 58.6484 49.0548 58.6484 49.5258V50.3542C56.8883 50.8348 55.7555 52.5436 55.9979 54.352C56.2403 56.1603 57.7834 57.5101 59.6079 57.5097C60.6633 57.5097 61.5242 58.3548 61.5433 59.4097C61.5629 60.4646 60.7333 61.3409 59.6788 61.3792Z" fill="#343434"/>
<path d="M47.2393 56.7231C47.2393 63.5542 52.7768 69.0917 59.6079 69.0917C66.439 69.0917 71.9765 63.5542 71.9765 56.7231C71.9765 49.892 66.439 44.3545 59.6079 44.3545C52.7801 44.362 47.2472 49.8953 47.2393 56.7231ZM59.6079 46.0604C65.4969 46.0604 70.2706 50.8341 70.2706 56.7231C70.2706 62.6121 65.4969 67.3858 59.6079 67.3858C53.7188 67.3858 48.9452 62.6121 48.9452 56.7231C48.9518 50.837 53.7218 46.0671 59.6079 46.0604Z" fill="#343434"/>
<path d="M76.1812 71.1943L69.4996 74.3512C68.5771 72.6353 66.8075 71.5433 64.8601 71.4883L58.692 71.3188C57.7153 71.2909 56.757 71.0435 55.8887 70.595L55.261 70.2697C52.0475 68.5946 48.2171 68.5988 45.0069 70.2805L45.046 68.8587C45.059 68.3876 44.6879 67.9953 44.2168 67.9824L37.4532 67.7962C36.9822 67.7833 36.5903 68.1544 36.5774 68.6254L36.1688 83.4679C36.1559 83.939 36.527 84.3313 36.998 84.3442L43.7616 84.5304H43.7849C44.2472 84.5304 44.6254 84.1626 44.6379 83.7007L44.6575 82.9906L46.4146 82.0498C47.1043 81.6787 47.9106 81.5904 48.664 81.8037L59.1568 84.7486C59.1751 84.754 59.1934 84.7582 59.2122 84.7624C59.9706 84.921 60.7436 85.0006 61.5182 85.0002C63.1591 85.001 64.7809 84.6474 66.2723 83.9627C66.309 83.9461 66.3444 83.9265 66.3781 83.9044L81.5917 74.0638C81.9707 73.8185 82.0931 73.3208 81.8712 72.9277C80.7417 70.9236 78.2365 70.1602 76.1812 71.1943ZM37.8976 82.6625L38.2591 69.525L43.3172 69.6641L42.9557 82.802L37.8976 82.6625ZM65.5039 82.4392C63.651 83.2755 61.5815 83.5063 59.5899 83.0993L49.1255 80.1619C47.9477 79.8292 46.687 79.967 45.6095 80.5463L44.7116 81.0274L44.9519 72.2925C47.7973 70.4001 51.4465 70.2056 54.4768 71.7844L55.1044 72.1097C56.2014 72.6761 57.4113 72.9885 58.6453 73.0243L64.8138 73.1938C66.5464 73.2438 68.0178 74.4774 68.3693 76.175L59.1814 75.9213C58.7103 75.9084 58.3184 76.2799 58.3051 76.7505C58.2922 77.2216 58.6637 77.6139 59.1343 77.6268L69.2739 77.9058H69.2976C69.7595 77.9054 70.1373 77.5377 70.1498 77.0762C70.1602 76.7056 70.1327 76.3345 70.0673 75.9696L76.9205 72.7315C76.9271 72.7286 76.9338 72.7253 76.9405 72.7219C77.9125 72.2301 79.0878 72.3946 79.8875 73.1347L65.5039 82.4392Z" fill="#343434"/>
<path d="M60.4608 41.956V33.853C60.4608 33.3819 60.0789 33 59.6078 33C59.1368 33 58.7549 33.3819 58.7549 33.853V41.956C58.7549 42.427 59.1368 42.8089 59.6078 42.8089C60.0789 42.8089 60.4608 42.427 60.4608 41.956Z" fill="#343434"/>
<path d="M66.8582 41.9559V38.1176C66.8582 37.6466 66.4763 37.2646 66.0053 37.2646C65.5343 37.2646 65.1523 37.6466 65.1523 38.1176V41.9559C65.1523 42.4269 65.5343 42.8088 66.0053 42.8088C66.4763 42.8088 66.8582 42.4269 66.8582 41.9559Z" fill="#343434"/>
<path d="M54.0638 41.9559V38.1176C54.0638 37.6466 53.6819 37.2646 53.2109 37.2646C52.7398 37.2646 52.3579 37.6466 52.3579 38.1176V41.9559C52.3579 42.4269 52.7398 42.8088 53.2109 42.8088C53.6819 42.8088 54.0638 42.4269 54.0638 41.9559Z" fill="#343434"/>
</g>
<defs>
<clipPath id="clip0">
<rect width="52" height="52" fill="white" transform="translate(33 33)"/>
</clipPath>
</defs>
</svg>
