<svg width="118" height="118" viewBox="0 0 118 118" fill="none" xmlns="http://www.w3.org/2000/svg">
<circle cx="58.9005" cy="58.9005" r="58.4005" fill="white" stroke="#DDDDDD"/>
<circle cx="59.2984" cy="59.2984" r="48.2984" fill="#F5F5F5"/>
<path d="M70.9156 85.0062C63.1499 85.0062 56.8315 78.6867 56.8315 70.9196C56.8315 63.1525 63.1499 56.833 70.9156 56.833C78.6813 56.833 84.9997 63.1525 84.9997 70.9196C84.9997 78.6867 78.6813 85.0062 70.9156 85.0062ZM70.9156 59.0002C64.3438 59.0002 58.9983 64.3487 58.9983 70.9196C58.9983 77.4904 64.3438 82.839 70.9156 82.839C77.4875 82.839 82.8329 77.4904 82.8329 70.9196C82.8329 64.3487 77.4875 59.0002 70.9156 59.0002Z" fill="#343434"/>
<path d="M68.7529 76.3392C68.4669 76.3392 68.1896 76.2243 67.9859 76.0228L63.6523 71.6885C63.2298 71.2659 63.2298 70.5789 63.6523 70.1563C64.0749 69.7337 64.7617 69.7337 65.1843 70.1563L68.6988 73.6714L75.5198 65.8739C75.9141 65.421 76.5988 65.3777 77.0495 65.7721C77.5002 66.1665 77.5457 66.8492 77.1514 67.2999L69.5676 75.9686C69.3705 76.194 69.0866 76.3284 68.7876 76.3392C68.7768 76.3392 68.7638 76.3392 68.7529 76.3392Z" fill="#343434"/>
<path d="M53.5844 78.51H38.4169C35.4311 78.51 33 76.0806 33 73.0921V44.9189C33 41.9304 35.4311 39.501 38.4169 39.501H42.7505C43.3485 39.501 43.8339 39.9864 43.8339 40.5846C43.8339 41.1827 43.3485 41.6681 42.7505 41.6681H38.4169C36.625 41.6681 35.1668 43.1266 35.1668 44.9189V73.0921C35.1668 74.8843 36.625 76.3428 38.4169 76.3428H53.5844C54.1824 76.3428 54.6678 76.8282 54.6678 77.4264C54.6678 78.0245 54.1824 78.51 53.5844 78.51Z" fill="#343434"/>
<path d="M68.751 52.504C68.153 52.504 67.6676 52.0185 67.6676 51.4204V44.9189C67.6676 43.1266 66.2094 41.6681 64.4174 41.6681H60.0839C59.4858 41.6681 59.0005 41.1827 59.0005 40.5846C59.0005 39.9864 59.4858 39.501 60.0839 39.501H64.4174C67.4033 39.501 69.8344 41.9304 69.8344 44.9189V51.4204C69.8344 52.0185 69.349 52.504 68.751 52.504Z" fill="#343434"/>
<path d="M57.9178 46.003H44.9172C43.1252 46.003 41.667 44.5445 41.667 42.7522V38.4179C41.667 37.8198 42.1524 37.3343 42.7504 37.3343H46.1089C46.6137 34.8638 48.8 33 51.4175 33C54.035 33 56.2212 34.8638 56.7261 37.3343H60.0846C60.6826 37.3343 61.168 37.8198 61.168 38.4179V42.7522C61.168 44.5445 59.7098 46.003 57.9178 46.003ZM43.8338 39.5015V42.7522C43.8338 43.3482 44.3191 43.8358 44.9172 43.8358H57.9178C58.5159 43.8358 59.0012 43.3482 59.0012 42.7522V39.5015H55.7511C55.153 39.5015 54.6677 39.0161 54.6677 38.4179C54.6677 36.6257 53.2094 35.1672 51.4175 35.1672C49.6256 35.1672 48.1673 36.6257 48.1673 38.4179C48.1673 39.0161 47.682 39.5015 47.0839 39.5015H43.8338Z" fill="#343434"/>
<path d="M62.2507 52.4953H40.5829C39.9849 52.4953 39.4995 52.0098 39.4995 51.4117C39.4995 50.8136 39.9849 50.3281 40.5829 50.3281H62.2507C62.8487 50.3281 63.3341 50.8136 63.3341 51.4117C63.3341 52.0098 62.8487 52.4953 62.2507 52.4953Z" fill="#343434"/>
<path d="M55.7504 59.0002H40.5829C39.9849 59.0002 39.4995 58.5147 39.4995 57.9166C39.4995 57.3185 39.9849 56.833 40.5829 56.833H55.7504C56.3484 56.833 56.8337 57.3185 56.8337 57.9166C56.8337 58.5147 56.3484 59.0002 55.7504 59.0002Z" fill="#343434"/>
<path d="M51.4168 65.509H40.5829C39.9849 65.509 39.4995 65.0235 39.4995 64.4254C39.4995 63.8272 39.9849 63.3418 40.5829 63.3418H51.4168C52.0148 63.3418 52.5002 63.8272 52.5002 64.4254C52.5002 65.0235 52.0148 65.509 51.4168 65.509Z" fill="#343434"/>
</svg>
