<svg width="118" height="118" viewBox="0 0 118 118" fill="none" xmlns="http://www.w3.org/2000/svg">
<circle cx="58.9005" cy="58.9005" r="58.4005" fill="white" stroke="#FF9900"/>
<circle cx="58.9005" cy="58.901" r="48.2984" fill="#FF9900"/>
<path d="M76.3512 63.9205C78.2108 62.6058 79.3406 60.4533 79.3406 58.1489V53.6481C79.3406 53.5382 79.3227 53.4327 79.2905 53.3336C78.9255 49.7138 75.8633 46.8789 72.1518 46.8789C68.2225 46.8789 65.0224 50.0567 64.9787 53.9789C64.9765 54.0056 64.9746 54.0325 64.9746 54.0598V58.1489C64.9746 60.4556 66.1067 62.6101 67.9697 63.9244C66.1546 64.5531 64.4902 65.5838 63.1137 66.9459L62.4752 64.0722C62.2502 63.0593 61.3684 62.3519 60.3309 62.3519H40.6815C40.0117 62.3519 39.3872 62.6515 38.968 63.1741C38.5489 63.6967 38.3919 64.3713 38.5372 65.0253L41.6213 78.9052H34.0156C33.4547 78.9052 33 79.3601 33 79.921V83.9839C33 84.5448 33.4547 84.9996 34.0156 84.9996H83.9844C84.5453 84.9996 85 84.5448 85 83.9839V79.921V76.0603C85 70.4463 81.3795 65.6627 76.3512 63.9205ZM72.1518 48.9104C74.3637 48.9104 76.2535 50.3151 76.9788 52.2801C76.9753 52.2835 76.9716 52.2864 76.9682 52.2899C75.7075 53.57 73.9542 54.3042 72.1576 54.3042H67.0058V54.1001C67.0063 54.0866 67.0078 54.0734 67.0078 54.0599C67.0078 51.2204 69.3154 48.9104 72.1518 48.9104ZM67.0058 58.1489V56.3355H72.1576C74.0071 56.3355 75.8202 55.7354 77.3095 54.6604V58.1488C77.3095 59.9591 76.3309 61.638 74.7549 62.5306C73.155 63.4389 71.1666 63.4402 69.5657 62.5335C69.5637 62.5324 69.5595 62.53 69.5557 62.5279C67.9827 61.6353 67.0058 59.9577 67.0058 58.1489ZM72.1576 65.248C78.1189 65.248 82.9688 70.0984 82.9688 76.0602V78.9051H65.771L63.6551 69.3828C65.6983 66.7868 68.846 65.248 72.1576 65.248ZM41.3781 68.4462H52.1133C52.6743 68.4462 53.129 67.9914 53.129 67.4305C53.129 66.8696 52.6743 66.4148 52.1133 66.4148H40.9267L40.5201 64.5845C40.5059 64.5204 40.5299 64.4734 40.5525 64.4452C40.5751 64.4169 40.616 64.3833 40.6815 64.3833H60.3309C60.409 64.3833 60.4753 64.4365 60.4923 64.5127L63.6903 78.9051H43.702L41.3781 68.4462ZM82.9688 82.968H35.0312V80.9366H42.8874H64.9563H82.9688V82.968Z" fill="white"/>
<path d="M56.1758 66.4141C55.9087 66.4141 55.6466 66.5226 55.4577 66.7117C55.2688 66.9005 55.1602 67.1626 55.1602 67.4298C55.1602 67.6969 55.2688 67.959 55.4577 68.1478C55.6466 68.3367 55.9087 68.4455 56.1758 68.4455C56.4429 68.4455 56.7049 68.3368 56.8948 68.1478C57.0838 67.959 57.1914 67.6969 57.1914 67.4298C57.1914 67.1626 57.0838 66.9005 56.8948 66.7117C56.7049 66.5226 56.4439 66.4141 56.1758 66.4141Z" fill="white"/>
<path d="M45.9998 58.9969C49.4722 58.9969 52.7368 57.6445 55.1922 55.1889C59.0611 51.3196 60.0934 45.3961 57.7609 40.449C57.5218 39.9415 56.9164 39.7243 56.4091 39.9635C55.9017 40.2027 55.6844 40.808 55.9237 41.3154C57.8916 45.4895 57.0204 50.4876 53.7558 53.7525C51.6841 55.8243 48.9297 56.9655 45.9998 56.9655C43.0699 56.9655 40.3154 55.8244 38.2438 53.7525C33.9671 49.4753 33.9671 42.516 38.2438 38.2389C41.4869 34.9953 46.4601 34.1125 50.6187 36.0423C51.1274 36.2782 51.7313 36.0572 51.9674 35.5484C52.2034 35.0396 51.9823 34.4356 51.4736 34.1995C46.5449 31.9125 40.6509 32.9584 36.8074 36.8022C31.7387 41.8714 31.7387 50.1196 36.8074 55.1889C39.2628 57.6445 42.5274 58.9969 45.9998 58.9969Z" fill="white"/>
<path d="M53.7759 47.0207H54.5135C55.0745 47.0207 55.5292 46.5659 55.5292 46.005C55.5292 45.4441 55.0745 44.9893 54.5135 44.9893H53.7759C53.2149 44.9893 52.7603 45.4441 52.7603 46.005C52.7603 46.5659 53.2149 47.0207 53.7759 47.0207Z" fill="white"/>
<path d="M37.4863 44.9707C36.9254 44.9707 36.4707 45.4255 36.4707 45.9864C36.4707 46.5473 36.9254 47.0022 37.4863 47.0022H38.224C38.7849 47.0022 39.2396 46.5473 39.2396 45.9864C39.2396 45.4255 38.7849 44.9707 38.224 44.9707H37.4863Z" fill="white"/>
<path d="M44.9746 53.7726V54.5104C44.9746 55.0713 45.4293 55.5261 45.9902 55.5261C46.5512 55.5261 47.0059 55.0713 47.0059 54.5104V53.7726C47.0059 53.2117 46.5512 52.7568 45.9902 52.7568C45.4293 52.7568 44.9746 53.2116 44.9746 53.7726Z" fill="white"/>
<path d="M48.4374 49.3469C48.7046 49.3469 48.9713 49.2421 49.1708 49.034C49.5589 48.629 49.5452 47.9861 49.1402 47.5978L47.0161 45.5621L47.0253 38.2534C47.026 37.6924 46.5719 37.237 46.011 37.2363C46.0106 37.2363 46.0101 37.2363 46.0096 37.2363C45.4493 37.2363 44.9947 37.6903 44.994 38.2507L44.9844 45.9938C44.9841 46.2711 45.0971 46.5366 45.2973 46.7284L47.7348 49.0646C47.9316 49.2532 48.1847 49.3469 48.4374 49.3469Z" fill="white"/>
<path d="M54.4746 38.5363C54.7417 38.5363 55.0037 38.4278 55.1927 38.2387C55.3816 38.0497 55.4902 37.7877 55.4902 37.5206C55.4902 37.2535 55.3816 36.9914 55.1927 36.8026C55.0037 36.6137 54.7417 36.5049 54.4746 36.5049C54.2075 36.5049 53.9455 36.6136 53.7566 36.8026C53.5677 36.9914 53.459 37.2535 53.459 37.5206C53.459 37.7877 53.5677 38.0498 53.7566 38.2387C53.9455 38.4277 54.2075 38.5363 54.4746 38.5363Z" fill="white"/>
</svg>
